<svg width="53" height="25" viewBox="0 0 53 25" fill="none" xmlns="http://www.w3.org/2000/svg">
<g clip-path="url(#clip0_84_3192)">
<path d="M0.658539 10.9141C0.81306 10.3604 0.973931 9.88159 1.12111 9.39872C2.40697 5.17998 5.1921 2.41162 9.44625 1.04916C10.0029 0.870871 10.3931 0.96033 10.6973 1.47918C11.325 2.54976 11.9811 3.60425 12.7287 4.83518C9.10979 5.35879 6.54116 6.99718 5.52565 10.4336C4.92377 12.4703 5.18043 14.444 6.23522 16.294C7.13202 17.8669 8.44783 18.9882 10.1786 19.6103C11.8696 20.2181 13.5802 20.1951 15.3122 19.7643C17.1143 19.316 18.2823 17.9651 19.7667 16.6615C20.5107 17.9993 21.221 19.1933 21.8195 20.4392C21.9134 20.6346 21.5717 21.1443 21.3095 21.3746C19.6864 22.8001 17.7674 23.6914 15.6774 24.2403C15.2976 24.34 14.9019 24.3811 14.4824 24.5023C14.2821 24.5554 14.113 24.5554 13.8387 24.5078C13.3355 24.4449 12.9375 24.4296 12.4867 24.4101C12.3137 24.4557 12.1934 24.5056 12.0732 24.5554C11.9041 24.5554 11.735 24.5554 11.473 24.5031C11.2778 24.4286 11.1755 24.4055 11.0728 24.3843C6.24873 23.3853 2.83311 20.7637 1.20661 16.0919C0.99816 15.4932 0.839998 14.8775 0.658539 14.2697C0.658539 13.1755 0.658539 12.0813 0.658539 10.9141Z" fill="#567498"/>
<path d="M22.7794 0.55542C23.6831 0.838045 24.5863 0.996848 25.3295 1.42434C28.8962 3.4759 30.0144 6.94679 28.1606 10.6042C27.5562 11.7967 27.6523 12.6189 28.3401 13.669C29.4511 15.3652 30.4127 17.1559 31.457 19.0049C31.4556 19.1635 31.4344 19.2238 31.4133 19.2841C30.2544 19.3239 29.0956 19.3724 27.9364 19.4007C27.0448 19.4225 26.4122 19.0702 25.9515 18.264C25.0615 16.7064 24.1107 15.1798 23.1245 13.6788C22.4487 12.6502 22.3435 11.6925 23.0862 10.6599C23.4803 10.112 23.812 9.51638 24.1304 8.92085C25.252 6.82318 24.2147 5.02804 21.7935 4.93636C20.3181 4.88049 18.8337 4.86329 17.3619 4.95762C15.9481 5.04823 14.9638 4.57919 14.363 3.3093C14.0303 2.60606 13.6332 1.93226 13.2993 1.22951C13.2253 1.07384 13.2953 0.852076 13.3202 0.608082C13.7695 0.55542 14.1976 0.55542 14.7429 0.602239C15.6764 0.667879 16.4926 0.686699 17.3726 0.707101C17.7096 0.657594 17.9828 0.606507 18.2561 0.55542C19.7391 0.55542 21.2221 0.55542 22.7794 0.55542Z" fill="#87A1BC"/>
<path d="M52.6585 5.63989C49.5521 10.8572 46.4448 16.0155 43.3401 21.1753C42.8311 22.0213 42.3478 22.8827 41.8221 23.7185C41.6633 23.971 41.4017 24.161 41.0841 24.3371C39.5943 24.3154 38.2077 24.3363 36.8211 24.3572C36.2396 24.0153 36.6923 23.6716 36.8597 23.3888C39.2842 19.2952 41.731 15.2143 44.1608 11.1238C45.1166 9.51477 46.0617 7.89909 46.9773 6.26779C47.5539 5.24035 48.3713 4.77909 49.5729 4.92651C50.5584 5.04742 51.5527 5.0989 52.6008 5.20597C52.6585 5.34768 52.6585 5.46457 52.6585 5.63989Z" fill="#FFA625"/>
<path d="M36.8663 24.3762C38.2077 24.3363 39.5943 24.3154 41.029 24.3378C40.9861 24.4097 40.8951 24.4384 40.7862 24.5112C39.6024 24.5554 38.4365 24.5554 37.1963 24.5554C37.0518 24.5021 36.9816 24.4487 36.8663 24.3762Z" fill="#FFA100"/>
<path d="M17.3088 0.70557C16.4926 0.686749 15.6764 0.667928 14.8142 0.602288C15.5645 0.555469 16.3607 0.555469 17.2314 0.593006C17.3059 0.630542 17.3088 0.70557 17.3088 0.70557Z" fill="#9FB3C8"/>
<path d="M17.3726 0.707101C17.3088 0.70552 17.306 0.630493 17.3054 0.592956C17.5767 0.55542 17.8485 0.55542 18.1882 0.55542C17.9828 0.606507 17.7096 0.657594 17.3726 0.707101Z" fill="#AFBFD1"/>
<path d="M31.4113 19.3385C31.4344 19.2239 31.4555 19.1636 31.489 19.0567C31.8969 18.4672 32.335 17.9492 32.6801 17.3769C33.9677 15.2417 35.2229 13.0875 36.4964 10.944C36.6231 10.7307 36.792 10.5416 37.0461 10.2007C37.6273 11.1197 38.0738 11.9659 38.6544 12.7111C39.5535 13.8654 39.3099 14.836 38.5716 15.9977C37.0237 18.4332 35.6154 20.9556 34.1889 23.4638C33.793 24.1599 33.3082 24.4637 32.4816 24.4184C31.3041 24.3538 30.1202 24.4019 28.6916 24.4019C28.9588 23.7772 29.111 23.3052 29.3514 22.8816C30.0177 21.7079 30.7207 20.5543 31.4113 19.3385Z" fill="#FFA625"/>
</g>
<defs>
<clipPath id="clip0_84_3192">
<rect width="52" height="24" fill="white" transform="translate(0.5 0.399658)"/>
</clipPath>
</defs>
</svg>
