<svg version="1.1" id="Layer_1" xmlns="http://www.w3.org/2000/svg" xmlns:xlink="http://www.w3.org/1999/xlink" x="0px" y="0px"
	 width="100%" viewBox="0 0 223 226" enable-background="new 0 0 223 226" xml:space="preserve">
<path fill="#FEFEFF" opacity="1.000000" stroke="none" 
	d="
M111.000000,227.000000 
	C74.000000,227.000000 37.500004,227.000000 1.000005,227.000000 
	C1.000003,151.666672 1.000003,76.333344 1.000002,1.000010 
	C73.999992,1.000000 147.000031,1.030690 219.999802,0.903683 
	C223.424255,0.897725 224.102325,1.575549 224.096344,5.000135 
	C223.969162,77.666573 223.969193,150.333359 224.096344,222.999786 
	C224.102341,226.424210 223.426178,227.114059 219.999603,227.098923 
	C183.833633,226.939133 147.666687,227.000000 111.000000,227.000000 
z"/>
<path fill="#429C50" opacity="1.000000" stroke="none" 
	d="
M162.335846,135.048218 
	C155.849762,124.699371 152.041885,114.080925 155.897964,102.010384 
	C157.120941,98.182190 158.976669,94.743752 161.730133,91.345093 
	C162.236313,89.537285 163.222412,88.629204 164.871155,87.940521 
	C177.264175,82.306412 186.339066,85.631737 191.115158,98.084549 
	C184.583115,92.674942 178.215302,89.070145 170.213806,94.417358 
	C169.735397,97.172760 167.289154,98.358932 166.487823,100.879486 
	C161.358154,110.363922 162.979385,119.511581 166.493164,129.023712 
	C166.982849,132.457764 165.522141,134.284256 162.335846,135.048218 
z"/>
<path fill="#FBCA47" opacity="1.000000" stroke="none" 
	d="
M161.702850,135.232224 
	C163.867096,134.248428 164.820999,132.690613 165.814926,130.788940 
	C166.559128,125.289619 169.165802,120.477829 168.708344,114.936577 
	C168.293808,109.915405 166.566895,105.211121 165.985809,99.856293 
	C166.467865,97.445305 167.990570,96.222885 169.667633,94.819962 
	C175.964401,105.184357 180.276688,115.958679 175.908340,128.293076 
	C174.622406,131.924011 172.916794,135.308441 170.171417,138.617661 
	C169.657379,140.480591 168.674240,141.351074 166.992371,141.920776 
	C155.620529,147.508911 148.563309,145.478378 141.801544,134.527710 
	C141.613525,133.898438 141.581207,133.578613 141.795776,132.844604 
	C149.722549,138.926315 154.662796,139.723419 161.702850,135.232224 
z"/>
<path fill="#2A84C3" opacity="1.000000" stroke="none" 
	d="
M52.516964,101.892166 
	C51.073528,101.674553 50.738281,100.931198 50.733955,100.063042 
	C50.694206,92.089478 50.674568,84.115768 50.674950,76.142105 
	C50.674995,75.182533 50.549881,73.845261 51.896893,73.819031 
	C56.488964,73.729607 61.275196,72.707474 65.412910,75.662346 
	C67.450897,77.117744 69.021248,79.790031 67.733459,81.695389 
	C65.116234,85.567734 66.686096,88.114044 68.473915,91.623451 
	C70.561661,95.721588 67.495415,100.295174 62.887951,101.491531 
	C59.615433,102.341270 56.271759,101.786980 52.516964,101.892166 
z"/>
<path fill="#358AC6" opacity="1.000000" stroke="none" 
	d="
M87.912132,97.974823 
	C84.954819,88.484085 88.393608,82.827461 96.567795,83.094360 
	C102.468147,83.287010 105.385239,86.023560 105.892715,91.970253 
	C106.048172,93.791992 106.008125,95.633850 105.993645,97.465996 
	C105.953880,102.496170 105.752113,102.719589 101.220009,100.715286 
	C100.154968,100.244286 99.823967,100.688606 99.170959,100.981743 
	C94.791458,102.947777 91.087265,102.109467 87.912132,97.974823 
z"/>
<path fill="#3D8FC9" opacity="1.000000" stroke="none" 
	d="
M47.782288,111.167915 
	C47.778591,118.137733 47.906631,124.633713 47.731842,131.121536 
	C47.578117,136.827255 43.756824,140.668549 38.404346,140.871017 
	C37.310680,140.912384 35.780483,141.326233 35.628716,139.650497 
	C35.502968,138.262054 36.866367,138.443756 37.817898,138.291672 
	C41.941654,137.632553 43.130447,134.843033 43.107903,131.087662 
	C43.066933,124.262497 42.956036,117.432175 43.185902,110.614510 
	C43.250557,108.696777 41.423309,105.260414 45.227913,105.096191 
	C49.629421,104.906212 47.053520,108.731827 47.782288,111.167915 
z"/>
<path fill="#2F86C5" opacity="1.000000" stroke="none" 
	d="
M114.516968,114.685280 
	C120.840874,114.926270 123.795097,121.438690 121.887001,127.670219 
	C120.416061,132.474106 114.425781,134.707947 108.915474,132.644485 
	C104.070206,130.830063 101.866211,124.797737 104.175102,119.644478 
	C106.133507,115.273499 109.933418,114.547539 114.516968,114.685280 
z"/>
<path fill="#2580C1" opacity="1.000000" stroke="none" 
	d="
M65.028152,118.338066 
	C65.063034,116.286148 64.603973,114.406990 67.276733,114.448303 
	C69.884209,114.488609 69.526398,116.345444 69.536316,117.965141 
	C69.549515,120.120926 69.631226,122.289139 69.442886,124.430847 
	C68.916351,130.418213 65.556458,133.336426 59.564491,133.175369 
	C53.809479,133.020706 51.043709,130.141357 50.857182,124.004044 
	C50.781631,121.518059 50.866081,119.027534 50.852413,116.539215 
	C50.844402,115.080048 51.560642,114.474052 52.989380,114.469009 
	C54.450024,114.463860 55.076843,115.124702 55.069996,116.570068 
	C55.055855,119.555771 54.943531,122.553116 55.161270,125.524437 
	C55.381340,128.527542 56.301044,131.107315 60.183571,130.912109 
	C63.873566,130.726593 64.933151,128.418640 65.005013,125.247360 
	C65.053856,123.091713 65.023712,120.934265 65.028152,118.338066 
z"/>
<path fill="#358AC6" opacity="1.000000" stroke="none" 
	d="
M117.188484,99.199951 
	C118.951347,97.242798 118.310028,95.909645 116.625923,94.908859 
	C115.779968,94.406128 114.812584,94.101250 113.887245,93.739822 
	C111.186401,92.684875 108.509109,91.498917 108.420845,88.067398 
	C108.349831,85.306488 110.297867,83.795410 112.665649,83.224220 
	C116.004486,82.418770 119.413940,82.119232 122.144394,85.834328 
	C119.664246,86.644516 118.059036,84.882278 116.165688,84.954971 
	C114.571320,85.016182 112.941788,85.191422 112.346649,86.706284 
	C111.618576,88.559517 113.348396,89.273445 114.647942,89.945007 
	C115.970886,90.628624 117.383789,91.135780 118.739845,91.758247 
	C121.084534,92.834503 122.395340,94.548584 122.061302,97.259155 
	C121.725800,99.981613 119.883293,101.287308 117.487869,101.867195 
	C114.548508,102.578766 111.664902,102.322983 108.256554,100.859909 
	C111.368286,98.777779 114.439949,101.126495 117.188484,99.199951 
z"/>
<path fill="#2A84C3" opacity="1.000000" stroke="none" 
	d="
M141.294769,98.760452 
	C142.561646,99.442436 144.319305,99.328033 143.784256,101.019394 
	C143.389328,102.267883 142.105804,101.682289 141.190155,101.476608 
	C137.000458,100.535469 134.238373,98.011253 133.993790,93.667465 
	C133.666840,87.861061 133.805161,82.029060 133.709503,76.208618 
	C133.684387,74.679749 134.015778,73.673889 135.858627,73.614204 
	C138.079285,73.542274 138.178421,74.868660 138.166306,76.515068 
	C138.129562,81.506958 138.192307,86.499702 138.139893,91.491310 
	C138.110748,94.267494 138.513641,96.811310 141.294769,98.760452 
z"/>
<path fill="#2F86C5" opacity="1.000000" stroke="none" 
	d="
M76.605034,84.386490 
	C79.388374,83.600754 81.816223,82.356613 84.362808,83.507736 
	C84.406204,85.128777 83.479080,85.141754 82.700172,85.166908 
	C78.048676,85.317062 76.298004,87.982857 76.359375,92.314331 
	C76.394653,94.803940 76.345627,97.294647 76.350021,99.784828 
	C76.352478,101.181358 75.762833,101.983482 74.282249,101.925827 
	C73.327095,101.888634 72.378654,102.081596 71.810158,100.851822 
	C69.997810,96.931351 72.499428,87.614395 76.605034,84.386490 
z"/>
<path fill="#2A84C3" opacity="1.000000" stroke="none" 
	d="
M134.366425,114.874008 
	C135.997849,114.549210 137.322388,113.987755 138.370285,115.797676 
	C135.978012,117.250763 132.285126,116.177246 130.897537,119.537498 
	C129.708267,122.417465 130.475708,125.429337 130.044342,128.332825 
	C129.785583,130.074600 131.725281,133.170349 127.942032,133.218903 
	C123.826485,133.271729 125.611526,129.903732 125.571251,128.060776 
	C125.372559,118.968735 127.238670,116.239273 134.366425,114.874008 
z"/>
<path fill="#3F90C9" opacity="1.000000" stroke="none" 
	d="
M95.088898,120.174622 
	C95.094162,118.541115 95.087784,117.375885 95.107529,116.211098 
	C95.133232,114.694359 96.092545,114.254272 97.416565,114.233849 
	C98.757446,114.213173 99.740265,114.685600 99.750511,116.173790 
	C99.784897,121.166542 99.754402,126.159714 99.781494,131.152557 
	C99.789421,132.614029 99.102707,133.269547 97.679779,133.288177 
	C96.186844,133.307739 95.068336,132.995255 95.091553,131.128357 
	C95.135010,127.633827 95.094460,124.138245 95.088898,120.174622 
z"/>
<path fill="#49A056" opacity="1.000000" stroke="none" 
	d="
M166.817032,142.261978 
	C167.629105,140.997101 168.606461,140.051788 169.767914,139.048340 
	C173.859879,146.244461 179.152649,152.566452 183.830200,159.749054 
	C176.377258,156.133316 172.155960,148.895691 166.817032,142.261978 
z"/>
<path fill="#3B8DC8" opacity="1.000000" stroke="none" 
	d="
M125.698822,101.183411 
	C125.420319,95.847481 125.361420,90.889610 125.313675,85.931648 
	C125.298851,84.392181 125.287422,82.952621 127.504494,82.863243 
	C129.964600,82.764061 130.084457,84.242798 130.068054,86.053810 
	C130.030624,90.188141 129.937912,94.327660 130.096497,98.456276 
	C130.223206,101.754318 128.903259,102.661499 125.698822,101.183411 
z"/>
<path fill="#FBCD50" opacity="1.000000" stroke="none" 
	d="
M165.055222,87.522629 
	C164.273636,88.878616 163.334961,89.872429 162.164932,90.948212 
	C158.309814,84.458725 153.686966,78.578316 149.137329,72.272850 
	C148.870255,71.511497 148.939575,71.152924 149.639374,70.970062 
	C156.284515,75.174118 160.255371,81.479462 165.055222,87.522629 
z"/>
<path fill="#2A84C3" opacity="1.000000" stroke="none" 
	d="
M84.216354,116.593185 
	C78.215897,117.259720 77.184464,118.315041 77.085274,124.070915 
	C77.045334,126.388657 77.050682,128.707550 77.065140,131.025742 
	C77.073975,132.443726 76.473083,133.185638 74.991714,133.132401 
	C73.983727,133.096146 72.771286,133.152954 72.768204,131.804932 
	C72.758049,127.374603 71.781853,122.772118 74.120735,118.648537 
	C76.088760,115.178780 79.457314,114.481934 83.581772,114.958908 
	C84.348450,115.388779 84.474579,115.812698 84.216354,116.593185 
z"/>
<path fill="#2C85C4" opacity="1.000000" stroke="none" 
	d="
M84.327408,117.108963 
	C84.016586,116.476418 84.009865,116.065254 84.001297,115.345688 
	C88.474129,115.081009 90.622154,117.689873 91.096542,121.806396 
	C91.418755,124.602402 91.364243,127.442535 91.461319,130.263519 
	C91.517029,131.882568 91.360023,133.229568 89.129852,133.169144 
	C86.796730,133.105942 87.039444,131.543839 87.029541,130.054367 
	C87.014069,127.726242 86.968246,125.396881 87.023903,123.070152 
	C87.078712,120.778481 86.490074,118.801842 84.327408,117.108963 
z"/>
<path fill="#3F90C9" opacity="1.000000" stroke="none" 
	d="
M61.661804,110.406403 
	C60.010036,110.837196 58.826187,112.273560 56.755985,110.623985 
	C58.519596,109.299904 60.121418,108.069046 61.754063,106.880539 
	C63.046341,105.939812 64.384232,104.486443 65.584442,107.018219 
	C66.702972,109.377716 64.511490,109.231812 63.413666,109.874336 
	C63.005142,110.113441 62.473114,110.141525 61.661804,110.406403 
z"/>
<path fill="#2F86C5" opacity="1.000000" stroke="none" 
	d="
M129.993546,78.099808 
	C127.843422,79.971039 126.045486,79.963257 125.110069,77.411667 
	C124.413040,75.510315 125.467628,73.931396 127.430305,73.871437 
	C129.938416,73.794800 131.009094,75.288422 129.993546,78.099808 
z"/>
<path fill="#3B8DC8" opacity="1.000000" stroke="none" 
	d="
M98.567131,110.483360 
	C95.413055,111.135880 94.151329,109.781052 94.699074,107.112465 
	C95.021065,105.543747 96.532677,104.517776 98.086418,105.236740 
	C100.553825,106.378487 100.826447,108.249924 98.567131,110.483360 
z"/>
<path fill="#FCE5A4" opacity="1.000000" stroke="none" 
	d="
M144.960846,66.650856 
	C140.909348,65.596809 138.887360,62.080994 136.644913,58.778915 
	C140.074997,60.560890 142.982864,62.902588 144.960846,66.650856 
z"/>
<path fill="#FCE5A4" opacity="1.000000" stroke="none" 
	d="
M149.880264,70.724571 
	C149.701172,71.204147 149.489868,71.378738 149.197006,71.764778 
	C147.174042,71.702827 146.523972,70.252449 145.987610,68.350510 
	C147.710846,68.096428 149.329773,68.336273 149.880264,70.724571 
z"/>
<path fill="#FCE5A4" opacity="1.000000" stroke="none" 
	d="
M141.983704,132.138397 
	C141.987274,132.730545 141.931885,133.030685 141.761169,133.774536 
	C139.815750,133.307434 139.490479,131.628616 139.008362,129.734451 
	C141.204163,129.303223 141.203445,131.025360 141.983704,132.138397 
z"/>
<path fill="#FCE5A4" opacity="1.000000" stroke="none" 
	d="
M144.988159,67.007950 
	C145.315521,67.087784 145.589005,67.262146 145.902618,67.764473 
	C146.009476,67.987770 145.997696,68.002159 145.989075,68.009308 
	C145.700912,67.836617 145.421402,67.656769 145.081955,67.224670 
	C145.022034,66.972420 145.001007,66.997795 144.988159,67.007950 
z"/>
<path fill="#49A056" opacity="1.000000" stroke="none" 
	d="
M183.928101,160.049957 
	C183.905258,160.045364 184.085144,160.202454 184.085144,160.202454 
	C184.085144,160.202454 184.031036,159.958801 184.000946,160.029800 
	C183.970871,160.100800 183.950928,160.054535 183.928101,160.049957 
z"/>
<path fill="#49A056" opacity="1.000000" stroke="none" 
	d="
M187.506500,163.507507 
	C187.486954,163.508224 187.526047,163.506805 187.506500,163.507507 
z"/>
<path fill="#FAFBF6" opacity="1.000000" stroke="none" 
	d="
M165.672119,99.698212 
	C170.854523,109.545013 172.345718,119.699661 166.220093,130.255951 
	C161.112335,120.423393 159.531158,110.254814 165.672119,99.698212 
z"/>
<path fill="#F1F6FB" opacity="1.000000" stroke="none" 
	d="
M63.724358,97.681213 
	C61.204105,100.064629 58.118767,101.457497 56.025955,98.976257 
	C53.731163,96.255554 54.535194,92.215797 55.491199,88.957985 
	C56.002148,87.216812 58.455807,88.367798 60.019875,88.583801 
	C62.585606,88.938141 64.301239,90.367836 64.742012,93.008575 
	C64.995110,94.524948 64.674461,95.991699 63.724358,97.681213 
z"/>
<path fill="#F2F7FB" opacity="1.000000" stroke="none" 
	d="
M54.985477,82.911507 
	C55.366879,80.369247 53.833725,77.529648 56.745964,76.411835 
	C58.598534,75.700752 60.731491,76.287598 62.359451,77.474640 
	C63.986958,78.661346 64.164917,80.550934 63.656296,82.394150 
	C62.933075,85.015045 60.906372,85.838898 58.406853,85.993515 
	C56.440620,86.115150 54.676517,86.116165 54.985477,82.911507 
z"/>
<path fill="#F2F7FB" opacity="1.000000" stroke="none" 
	d="
M92.546585,98.217651 
	C90.456230,95.210686 90.726570,92.185432 91.325035,89.268326 
	C91.904549,86.443542 93.993958,85.112305 96.863228,85.406876 
	C99.535912,85.681274 100.864128,87.300217 101.207077,90.000267 
	C102.161392,97.513611 98.974442,100.797836 92.546585,98.217651 
z"/>
<path fill="#F5F9FC" opacity="1.000000" stroke="none" 
	d="
M109.210114,118.298157 
	C112.380234,116.316849 115.500282,115.858566 117.167656,119.163727 
	C118.911316,122.620087 119.153145,126.679710 116.306252,129.832642 
	C113.886002,132.513062 108.685028,130.861954 108.136238,127.276154 
	C107.698608,124.416687 107.216675,121.361961 109.210114,118.298157 
z"/>
</svg>