<svg version="1.1" id="Layer_1" xmlns="http://www.w3.org/2000/svg" xmlns:xlink="http://www.w3.org/1999/xlink" x="0px" y="0px"
	 width="100%" viewBox="0 0 200 150" enable-background="new 0 0 200 150" xml:space="preserve">
<path fill="#173C51" opacity="1.000000" stroke="none" 
	d="
M1.303828,35.267345 
	C1.000000,25.016047 1.168854,15.027623 0.904800,5.050658 
	C0.817052,1.735246 1.408447,0.888140 4.939271,0.896561 
	C65.341843,1.040623 125.744865,1.000000 186.147781,1.000000 
	C189.808563,1.000000 193.509644,1.337419 197.118988,0.906524 
	C200.839661,0.462337 201.142563,1.955482 201.083160,5.118861 
	C200.870789,16.430000 201.000000,27.747555 201.000000,39.531342 
	C199.957443,41.198738 198.610489,41.852356 197.054062,41.844757 
	C189.959106,41.810123 182.749146,43.107128 175.359100,39.740314 
	C175.347183,44.478928 173.295746,45.976440 169.019470,44.016266 
	C166.364822,42.799419 164.052490,45.772427 161.001419,44.953251 
	C158.930267,43.895546 159.323166,42.329235 159.725479,40.935940 
	C160.328217,38.848640 159.669174,37.424126 157.583740,36.209389 
	C156.524765,35.396320 155.621674,34.985519 154.756775,34.511692 
	C147.783356,30.691345 147.783295,30.692047 141.769196,35.753311 
	C141.131577,36.289906 140.412460,36.678066 139.265961,36.968403 
	C136.377426,36.974834 135.908859,35.017773 135.165741,33.152462 
	C133.781754,29.678524 131.431015,27.825573 127.221558,29.412556 
	C126.584160,29.814960 126.200462,29.996807 125.515434,30.242390 
	C124.683861,30.501459 124.120102,30.594515 123.334473,30.865683 
	C122.940170,31.044897 122.786896,31.121286 122.416008,31.325386 
	C121.905701,31.650841 121.629669,31.869923 121.173653,32.325348 
	C120.734009,32.852524 120.496796,33.166447 120.139824,33.755428 
	C119.788689,34.584045 119.668137,35.164234 119.711044,36.105942 
	C119.083778,43.522499 117.393997,45.157772 110.419273,44.810631 
	C108.492592,44.714733 106.905418,45.737358 104.689934,45.600555 
	C102.524864,42.881393 102.524864,42.881393 104.205185,39.113880 
	C95.225731,42.846901 86.478760,42.154881 77.878510,37.825466 
	C75.884209,36.821526 73.635300,37.191093 71.483307,37.058987 
	C59.536411,36.325584 47.576740,36.529934 35.649811,37.148834 
	C25.667706,37.666813 15.761186,35.090549 5.782712,36.788242 
	C4.299275,37.040627 2.790794,36.647331 1.303828,35.267345 
z"/>
<path fill="#185162" opacity="1.000000" stroke="none" 
	d="
M200.682678,121.715057 
	C201.000000,130.319290 200.805237,138.645386 201.095688,146.954529 
	C201.212158,150.286224 200.574219,151.110672 197.055389,151.102661 
	C134.827423,150.960938 72.599037,151.001617 10.370746,150.995163 
	C7.247159,150.994843 2.783625,152.136642 1.359113,150.561905 
	C-0.213649,148.823288 1.000000,144.564087 1.000000,141.402756 
	C1.000000,134.580948 1.000000,127.759132 1.000000,120.468658 
	C3.016849,117.675949 5.765460,117.962585 8.416949,117.937523 
	C26.218472,117.769249 44.004753,118.298996 61.796577,118.846802 
	C71.582550,119.148102 81.392464,118.531250 91.194534,118.904533 
	C94.347694,119.024612 97.417404,118.879456 100.409569,117.330383 
	C103.484818,115.738281 106.409805,116.530624 107.975334,119.809853 
	C109.903816,123.849327 113.159836,124.615372 117.072884,124.007553 
	C118.934196,123.718437 120.702248,123.783821 122.481522,124.380562 
	C128.121246,126.272003 133.602875,124.816879 139.375580,123.299538 
	C140.797272,121.656769 142.615601,121.605751 144.060425,120.816879 
	C144.930832,120.341644 145.572998,120.092567 145.707153,118.748192 
	C146.206116,113.748161 146.490784,113.663826 151.407272,115.217300 
	C152.043457,115.418312 152.704391,115.512360 153.732529,115.691925 
	C154.593613,115.979469 155.034515,116.261192 155.697403,116.933838 
	C157.137405,120.436844 159.038269,120.745155 162.504990,120.426361 
	C174.206894,119.350288 185.987381,119.818146 197.737900,120.147957 
	C198.738632,120.176048 199.630402,120.712128 200.682678,121.715057 
z"/>
<path fill="#194255" opacity="1.000000" stroke="none" 
	d="
M1.000000,35.468578 
	C10.915950,33.211895 20.833719,34.930122 30.747202,35.043255 
	C43.494274,35.188732 56.227264,33.715214 68.988617,34.941921 
	C73.537041,35.379147 77.761360,35.733891 82.305557,37.476650 
	C88.198730,39.736759 95.222672,41.866737 101.626152,37.386116 
	C102.419319,36.831123 103.448807,36.577446 104.401772,36.295776 
	C105.826820,35.874573 107.500732,33.989361 108.643036,36.366398 
	C109.507950,38.166214 107.978821,39.343674 106.767151,40.560123 
	C105.646233,41.685471 102.209351,41.755131 104.813141,44.888474 
	C106.268311,47.864445 107.156418,50.890343 110.159538,52.961849 
	C111.796333,54.193115 113.154427,54.342545 114.771332,52.883545 
	C117.908936,49.797775 121.175568,47.566643 124.913788,46.000820 
	C133.512360,42.399158 139.913193,44.366974 145.209183,52.622112 
	C145.640686,53.762188 145.785965,54.559959 145.872040,55.783306 
	C145.787186,56.460743 145.703842,56.724789 145.350784,57.305931 
	C144.630539,57.955364 144.133881,58.189716 143.184235,58.387711 
	C141.968933,58.554638 141.161743,58.683689 139.944046,58.595715 
	C133.584030,57.282993 127.618019,56.620483 121.459183,58.771301 
	C119.756439,61.307232 119.485092,63.072868 122.440056,64.577797 
	C126.128693,66.456367 126.048775,69.240234 123.213814,72.383347 
	C116.659836,73.066696 111.258202,71.567169 107.186401,65.930206 
	C106.783592,65.580048 106.687271,65.447334 106.578239,65.326065 
	C105.128273,63.713299 106.790070,60.012386 102.794525,60.036266 
	C98.722603,60.060604 99.095154,63.469975 97.971481,65.794365 
	C96.927780,67.953362 96.899422,70.661064 94.227180,72.246841 
	C93.072708,72.305847 92.496819,71.880051 91.896057,70.903343 
	C91.533768,69.129692 91.285713,67.703392 90.682632,65.998291 
	C90.148949,63.656013 89.179337,61.887363 88.038498,59.852036 
	C87.511124,59.366508 88.567665,58.759457 87.390022,58.763016 
	C86.256828,58.908531 85.452461,58.724430 84.342445,58.445896 
	C82.351067,57.568378 80.778732,57.559731 79.120804,59.215183 
	C71.933441,61.731033 68.900734,67.027718 67.000900,73.684509 
	C65.366341,79.411781 65.839615,85.663490 62.319870,91.217171 
	C61.286900,91.855927 60.517635,91.936058 59.357658,91.601318 
	C57.753654,90.256203 57.788448,88.731651 58.127590,87.283562 
	C58.784798,84.477394 58.925476,81.829224 57.536968,79.122688 
	C56.557884,77.214218 57.224037,75.236588 58.370087,73.501518 
	C59.371906,71.984818 60.421551,70.503380 60.846123,68.692177 
	C61.944801,64.005203 60.017757,61.435165 55.210392,61.037941 
	C50.487907,60.647739 45.615486,61.955147 40.737293,59.562393 
	C39.044701,56.251648 36.885460,56.694588 34.241520,57.624317 
	C25.398119,60.734055 16.244719,60.438908 7.100245,59.556114 
	C5.168077,59.369587 3.093986,59.093037 1.292916,57.264732 
	C1.000000,49.979053 1.000000,42.958103 1.000000,35.468578 
z"/>
<path fill="#184D5F" opacity="1.000000" stroke="none" 
	d="
M58.108116,90.801048 
	C59.452682,90.786636 60.471046,90.757401 61.987755,90.616753 
	C62.659286,90.578445 62.832474,90.651566 63.242752,90.880814 
	C63.785038,91.274536 64.085533,91.517921 64.622147,91.948456 
	C65.670059,92.767639 66.454659,93.434715 67.569244,94.176712 
	C68.493195,94.785805 69.154976,95.233498 70.264656,95.456322 
	C70.779671,95.565170 70.986412,95.617912 71.494965,95.786545 
	C73.973396,96.760643 76.077858,96.782234 78.305084,95.145752 
	C79.065140,94.523682 79.624107,94.186081 80.440804,93.650330 
	C81.081779,93.242134 81.462524,93.031624 82.148880,92.690361 
	C82.862892,92.385269 83.293297,92.280891 84.070145,92.226768 
	C85.318306,92.375641 86.044945,92.866287 86.928238,93.707207 
	C87.828819,95.161140 88.963921,95.531044 90.580597,95.667854 
	C93.799179,96.490486 96.555344,98.086014 99.685791,95.954750 
	C100.994110,95.064026 102.972191,95.405380 104.117493,96.925827 
	C105.206459,98.371483 104.432144,99.646965 103.491798,100.911209 
	C101.644135,103.395317 102.974792,106.717690 101.581894,109.505966 
	C101.927345,109.850647 102.075737,109.982697 102.441132,110.326485 
	C103.221870,111.116989 103.522911,111.901161 104.396011,112.597595 
	C104.958878,113.001633 105.253372,113.260986 105.730911,113.740356 
	C106.307571,114.325844 106.657333,114.738182 107.312576,115.194504 
	C107.690247,115.396538 107.845192,115.469551 108.241348,115.630219 
	C108.985321,115.862831 109.493759,115.976578 110.297478,115.993988 
	C111.570763,116.070381 112.472267,115.871002 113.454338,114.919205 
	C114.323997,114.350220 114.976944,114.104866 116.040527,113.918167 
	C120.086235,113.961922 120.139580,117.622757 122.215729,119.791992 
	C125.694214,125.096581 130.570007,122.511009 135.194336,122.672462 
	C136.976044,122.505745 138.348907,121.780579 140.426544,122.609573 
	C140.586227,125.420288 139.490280,125.883316 136.804077,126.418671 
	C129.730774,127.828369 122.865479,125.227859 115.789787,126.474022 
	C112.316727,127.085701 107.252831,126.905327 106.327705,120.876862 
	C105.807861,117.489349 103.340630,117.015633 100.892471,119.378777 
	C99.384872,120.834015 97.720329,121.002090 95.865410,121.001068 
	C81.438690,120.993149 66.985222,121.545700 52.592209,120.848198 
	C35.701389,120.029663 18.823851,120.131821 1.468657,120.000000 
	C1.000000,109.979103 1.000000,99.958214 1.000000,89.468658 
	C5.703253,88.520081 10.383136,89.219772 14.963259,89.928894 
	C17.812138,90.369965 20.088034,90.231239 22.470064,88.738564 
	C25.371605,86.920334 28.457310,85.828110 32.164215,87.635208 
	C32.873783,88.537445 33.020229,89.255730 32.844231,90.377670 
	C32.425503,91.308456 31.986465,91.755135 31.406054,92.092995 
	C30.522381,92.607391 28.798439,92.475716 29.252674,94.125351 
	C29.613495,95.435715 30.996569,95.340378 32.498714,95.315948 
	C39.132732,94.221703 45.651993,96.083061 52.135109,93.521072 
	C52.673771,93.283760 52.885952,93.191795 53.404869,92.959595 
	C53.906319,92.716652 54.101032,92.613945 54.576889,92.345535 
	C55.041245,92.063820 55.224461,91.947807 55.684135,91.659302 
	C56.529373,91.153641 57.133060,90.911217 58.108116,90.801048 
z"/>
<path fill="#184355" opacity="1.000000" stroke="none" 
	d="
M159.365295,43.990952 
	C161.655273,44.094975 163.383743,43.519882 164.892868,42.417362 
	C167.060013,40.834122 169.074921,40.404949 170.964096,42.793663 
	C171.518753,43.494953 172.298492,44.008118 173.090439,43.455986 
	C174.139099,42.724884 173.765945,41.757961 173.116272,40.874443 
	C172.512115,40.052826 170.813110,39.474648 172.186584,38.126282 
	C173.165497,37.165272 174.753799,36.530628 175.869980,37.291405 
	C183.493683,42.487629 192.026260,38.949699 200.531418,40.000095 
	C201.000000,51.687561 201.000000,63.375122 201.000000,75.531342 
	C197.893829,78.646980 194.488190,78.664795 190.916046,77.133171 
	C190.051422,76.762451 188.970688,75.534218 188.316223,76.310097 
	C184.175888,81.218521 181.067184,76.564125 177.347260,75.053932 
	C175.408051,71.876213 176.167084,68.657089 175.904678,65.572472 
	C175.355804,59.120621 172.658173,56.881115 166.193130,57.605785 
	C163.725235,57.882412 161.272049,58.183094 158.483368,57.184341 
	C155.824692,55.342781 154.480637,53.088974 154.043045,49.891102 
	C154.794159,46.851173 156.243393,44.839092 159.365295,43.990952 
z"/>
<path fill="#184759" opacity="1.000000" stroke="none" 
	d="
M32.377007,87.907104 
	C28.042673,88.379097 24.195391,88.963219 21.117245,91.859573 
	C20.557032,92.386711 19.318529,92.991402 18.885128,92.733505 
	C13.550291,89.559021 6.652170,93.925369 1.355306,89.061905 
	C1.000000,81.979050 1.000000,74.958107 1.000000,67.468582 
	C2.843074,64.824974 5.378947,64.936035 7.879213,64.899681 
	C16.676653,64.771767 25.479361,65.133156 34.737480,64.672806 
	C36.897278,65.099289 37.899689,66.151772 38.319000,68.274231 
	C38.384792,69.004074 38.395054,69.293671 38.386581,70.011322 
	C37.099228,74.465775 35.931824,78.504845 35.185055,82.682274 
	C34.862957,84.484093 34.709854,86.644844 32.377007,87.907104 
z"/>
<path fill="#184D5F" opacity="1.000000" stroke="none" 
	d="
M201.000000,121.533142 
	C191.591125,122.000000 182.182236,121.991219 172.773376,122.003853 
	C168.329361,122.009819 163.925476,122.080162 159.487289,122.862198 
	C154.962799,123.659416 154.008148,122.289215 154.741974,117.086533 
	C154.667740,116.217857 154.732361,116.001961 155.027313,115.548164 
	C155.981415,114.849831 156.775894,114.711716 157.851776,114.819565 
	C158.085159,114.846550 158.475388,114.832146 158.607773,114.697144 
	C158.827637,114.283127 158.900940,114.000427 159.035614,113.457550 
	C159.418625,112.469727 159.919540,111.874802 160.667099,111.078316 
	C161.330734,110.426788 161.805527,110.026802 162.427261,109.325027 
	C163.197754,108.434921 163.824188,107.846878 164.696228,107.033554 
	C165.123184,106.675041 165.301743,106.538994 165.768005,106.220177 
	C166.262589,105.938316 166.469467,105.839211 167.003250,105.628181 
	C169.165329,105.023170 170.548691,103.538795 172.818481,103.183273 
	C175.403275,104.029587 177.537949,104.047310 179.953644,103.601555 
	C186.898590,102.320045 193.786560,102.932732 200.717850,105.746918 
	C201.000000,111.022095 201.000000,116.044182 201.000000,121.533142 
z"/>
<path fill="#1E4A5B" opacity="1.000000" stroke="none" 
	d="
M177.423340,74.554398 
	C178.345718,74.790405 179.028931,74.536453 179.636658,74.658478 
	C182.654800,75.264534 186.440170,79.145241 187.666916,72.640221 
	C188.268692,72.793938 189.246750,72.770058 189.415710,73.128059 
	C191.887390,78.364899 196.465378,75.499527 200.575623,76.000793 
	C201.000000,80.356903 201.000000,84.713799 201.000000,89.535355 
	C199.568146,91.738525 197.565247,91.901794 195.545349,91.906403 
	C190.387451,91.918159 185.225357,92.153923 180.073975,91.698982 
	C179.079849,91.611183 177.931549,91.177788 177.115463,91.626877 
	C173.067993,93.854225 169.789719,92.157448 165.933960,89.011894 
	C167.448227,93.186554 171.669250,94.995918 170.709259,99.459854 
	C170.381790,99.968582 170.205185,100.143005 169.665894,100.419662 
	C164.639557,98.725006 161.107452,95.547386 158.162476,91.128212 
	C157.954269,86.040886 160.148422,81.720245 160.649612,76.718994 
	C166.009094,73.480888 171.124786,70.393883 177.423340,74.554398 
z"/>
<path fill="#174C5E" opacity="1.000000" stroke="none" 
	d="
M169.697571,100.488525 
	C170.160736,96.061623 166.598770,94.353447 164.468811,91.755302 
	C163.462860,90.528221 161.277313,89.531227 162.769821,87.774178 
	C164.023529,86.298279 166.211487,86.733185 167.852325,87.698235 
	C168.972717,88.357185 169.849380,89.430450 170.835297,90.318169 
	C171.572403,90.981850 172.953751,92.104538 173.308182,91.441780 
	C176.014999,86.380066 179.911072,90.442970 183.123657,90.143867 
	C188.725952,89.622253 194.411865,89.999001 200.531372,89.999603 
	C201.000000,95.022095 201.000000,100.044182 201.000000,105.533142 
	C195.231949,105.666824 189.466110,105.280602 183.694275,105.037590 
	C182.242188,104.976440 180.208054,104.828911 179.406555,105.656166 
	C176.095840,109.073303 174.473114,106.543060 172.327072,104.085800 
	C170.825012,104.463638 170.189148,103.728020 169.453064,102.570862 
	C169.258255,101.733170 169.305283,101.250664 169.697571,100.488525 
z"/>
<path fill="#164358" opacity="1.000000" stroke="none" 
	d="
M36.234680,65.764206 
	C26.856955,68.087059 17.580866,66.529945 8.376963,66.984665 
	C6.235386,67.090469 4.084122,67.000168 1.468657,67.000053 
	C1.000000,63.969406 1.000000,60.938816 1.000000,57.454109 
	C10.237277,57.703140 19.442425,58.908539 28.733002,57.121063 
	C31.431538,56.601875 33.669174,55.188816 36.198349,54.555523 
	C39.074993,53.835217 42.305744,53.414845 41.047569,58.676991 
	C40.886658,59.221355 40.773430,59.422672 40.400875,59.849667 
	C37.208813,60.742954 36.942665,63.206448 36.234680,65.764206 
z"/>
<path fill="#F7FAFA" opacity="1.000000" stroke="none" 
	d="
M177.849930,74.437309 
	C172.119354,73.185371 167.224823,76.076981 161.690613,77.172180 
	C157.690170,79.902084 156.315353,83.826820 155.622681,88.427979 
	C155.601059,88.946304 155.599991,89.151291 155.639145,89.660156 
	C155.726776,90.164223 155.774200,90.364418 155.963409,90.843788 
	C159.224457,93.977020 162.814880,96.397110 164.783569,100.751572 
	C165.148071,106.867561 160.531021,109.810020 157.367859,114.016556 
	C156.751297,114.922066 156.130539,115.275383 155.152283,115.731079 
	C154.822388,115.871201 154.903397,115.930916 154.891693,115.881973 
	C154.642853,116.295311 154.272873,116.527618 153.384872,116.485481 
	C149.498032,115.010506 146.085892,113.359985 143.279602,110.145309 
	C140.608353,107.414879 139.627869,107.753891 137.905685,112.040970 
	C137.597809,116.097198 139.119324,120.030151 136.307953,123.769348 
	C131.013763,123.918503 125.399361,127.482208 121.178146,121.391327 
	C119.458000,118.685844 120.287140,115.075920 116.905991,113.372009 
	C112.559807,111.431641 111.532692,116.280060 108.291649,117.011124 
	C107.991646,117.176338 107.584366,117.012756 107.367874,116.976822 
	C106.418610,116.572113 105.704643,116.181541 105.202011,115.110489 
	C105.054184,114.512634 104.924744,114.245651 104.451630,113.977249 
	C103.119186,113.373657 102.798492,112.261742 102.388626,110.932999 
	C102.455254,110.604057 102.136932,110.775162 102.299103,110.684227 
	C100.778427,107.094727 102.197395,101.034119 105.533714,98.139801 
	C108.475090,95.588104 111.626152,96.148216 114.738121,97.901131 
	C115.750252,98.471252 116.612595,99.261200 117.565331,99.919426 
	C125.433556,105.355400 131.314316,104.853249 137.694489,97.748741 
	C141.462372,93.553078 144.659180,88.886711 145.804108,82.755768 
	C146.240143,81.139832 146.649109,79.908798 146.455551,78.192986 
	C147.805298,74.847847 147.534882,71.732277 147.373901,68.263962 
	C147.211578,67.413567 147.161636,66.928772 147.223953,66.092026 
	C147.429428,64.117081 146.662369,62.703377 146.106323,60.900215 
	C145.920837,60.375904 145.845505,60.166332 145.697693,59.630230 
	C145.516617,58.625278 145.653275,57.979179 145.925873,57.017025 
	C145.968445,56.688667 146.005676,56.337204 145.871674,56.222000 
	C144.658600,56.057213 144.552292,55.230682 144.256393,54.060738 
	C138.154984,45.033195 131.470901,43.624825 122.058784,49.219101 
	C119.951469,50.471622 118.136208,52.215481 116.010529,53.988457 
	C114.132133,56.736362 111.659874,54.999886 109.336212,54.937675 
	C107.674080,52.963619 106.308716,51.373837 104.807945,49.924225 
	C103.268677,48.437416 103.656197,47.116604 104.977547,45.388359 
	C106.585342,44.329292 106.742645,41.974388 109.352310,42.381676 
	C117.147743,43.598301 117.172905,43.437084 118.477158,35.597595 
	C118.226723,34.617741 118.173523,34.048187 118.688385,33.246368 
	C119.218201,32.634613 119.564720,32.259861 120.024345,31.654591 
	C120.325821,30.631697 121.003014,30.524458 121.964310,30.299206 
	C122.292770,30.243370 122.141426,30.200577 122.132767,30.278736 
	C122.380501,29.434383 123.265808,29.521904 124.297417,29.192715 
	C124.998619,29.244949 125.310776,29.215904 125.808044,28.922668 
	C127.287178,27.866507 128.698410,27.922606 130.404846,28.385784 
	C131.109344,28.745550 130.806229,29.530634 131.663544,29.423162 
	C135.288483,28.984396 135.261749,31.715958 135.831451,33.873077 
	C136.239822,35.419373 136.043701,37.539715 139.049896,36.274651 
	C146.730484,28.379477 146.729996,28.380388 156.579575,33.732704 
	C157.010544,33.966892 157.465866,34.156258 158.140778,34.636559 
	C158.499573,38.162151 156.107574,40.301006 154.807907,42.921928 
	C153.938782,44.674660 152.469055,46.155018 152.451813,48.605896 
	C153.499466,51.653248 154.364304,54.474613 157.710678,55.822929 
	C161.012924,56.907349 163.915298,55.797390 166.830948,55.539253 
	C173.670868,54.933681 176.623840,57.002625 177.623917,63.638992 
	C178.139648,67.061310 178.579483,70.523956 177.849930,74.437309 
z"/>
<path fill="#B3B5C7" opacity="1.000000" stroke="none" 
	d="
M151.268433,49.363373 
	C149.515701,47.929348 150.081757,46.812225 150.885803,45.609257 
	C153.191574,42.159443 155.442596,38.673035 158.043411,35.053814 
	C163.581924,37.379822 163.581924,37.379822 159.863403,43.667084 
	C158.462814,45.601704 157.176102,47.201298 155.610138,48.943550 
	C154.199722,49.849758 153.010468,50.213837 151.268433,49.363373 
z"/>
<path fill="#193745" opacity="1.000000" stroke="none" 
	d="
M138.990448,36.022377 
	C138.638962,37.391335 138.074066,39.295139 136.350891,38.898270 
	C134.413986,38.452179 135.692093,36.282955 135.102203,35.055405 
	C134.230087,33.240509 136.090790,29.614368 131.497284,29.927345 
	C130.029709,28.096386 128.195663,29.457680 126.400330,28.847498 
	C129.594788,25.908131 134.338791,27.126173 136.259308,31.308165 
	C136.977188,32.871365 136.516037,35.069939 138.990448,36.022377 
z"/>
<path fill="#193745" opacity="1.000000" stroke="none" 
	d="
M118.596161,33.083111 
	C118.842155,33.574402 118.812637,34.139435 118.633598,34.947136 
	C117.604691,34.578476 116.998993,33.945141 118.596161,33.083111 
z"/>
<path fill="#193745" opacity="1.000000" stroke="none" 
	d="
M121.956551,30.245789 
	C121.775635,30.577261 121.258507,30.911154 120.439415,31.334558 
	C120.631744,31.032118 121.126038,30.640165 121.956551,30.245789 
z"/>
<path fill="#193745" opacity="1.000000" stroke="none" 
	d="
M124.297600,29.162630 
	C124.062218,29.501404 123.449791,29.855928 122.480728,30.283678 
	C122.722923,29.964062 123.321739,29.571220 124.297600,29.162630 
z"/>
<path fill="#184D5F" opacity="1.000000" stroke="none" 
	d="
M143.756378,108.578873 
	C146.869736,111.120644 149.631958,113.456757 152.697784,115.958130 
	C153.207245,116.269447 153.413101,116.415504 153.309967,116.780380 
	C152.040375,116.799858 151.017715,116.744942 150.134430,116.365547 
	C148.960571,115.861328 147.739365,114.554626 146.751434,116.268135 
	C145.880859,117.778076 147.609116,118.099991 148.428665,118.765999 
	C150.412872,120.378487 149.370285,121.318260 147.632706,121.808609 
	C145.732681,122.344795 143.752884,122.598213 141.413330,122.999947 
	C141.018829,123.025009 140.866959,122.880249 140.790558,122.808365 
	C139.139938,121.384087 138.777954,119.537041 138.595581,117.260094 
	C138.546387,116.008865 138.592957,115.099106 138.303268,113.861221 
	C138.020477,112.278702 137.936493,111.049782 138.715637,109.558090 
	C140.285843,108.159584 141.695435,107.509880 143.756378,108.578873 
z"/>
<path fill="#1E4A5B" opacity="1.000000" stroke="none" 
	d="
M153.333893,116.999939 
	C153.000992,116.999207 153.000534,116.561279 153.000946,116.342331 
	C153.418335,116.052002 153.835312,115.980621 154.566132,115.871140 
	C154.909546,116.026962 154.939087,116.220886 154.983429,116.708801 
	C154.554413,117.002083 154.110596,117.001381 153.333893,116.999939 
z"/>
<path fill="#1D4B5C" opacity="1.000000" stroke="none" 
	d="
M147.687927,82.663803 
	C146.046234,91.082047 141.724411,97.588058 135.122955,102.509567 
	C128.768265,107.247101 123.202492,106.888367 116.574127,101.637421 
	C109.088173,95.707108 105.124306,97.107468 102.918495,106.482399 
	C102.655899,107.598488 102.526840,108.746002 102.398575,110.236115 
	C101.319321,110.692696 100.136612,111.026535 99.044914,110.836800 
	C97.388512,110.548904 96.381844,109.129280 98.353058,108.369972 
	C103.181656,106.510002 99.485474,100.901321 103.155960,98.344528 
	C104.082558,97.699074 101.200294,96.725395 100.458389,97.305122 
	C97.092964,99.934860 93.923843,98.171608 90.332878,97.142899 
	C89.888344,96.745285 89.789513,96.503395 89.865692,95.913338 
	C92.275139,93.571022 95.041519,93.958939 97.662750,94.001297 
	C101.363876,94.061104 104.966408,93.515602 108.540474,92.683922 
	C109.573441,92.443565 110.360649,91.771713 110.323158,90.593903 
	C110.299919,89.864067 109.756508,89.409332 109.059929,89.255669 
	C106.248634,88.635513 102.452980,89.619438 101.252541,86.072098 
	C99.906746,82.095200 101.613541,78.243469 103.496407,74.292282 
	C106.932648,72.771278 108.963875,71.073074 106.194305,67.178528 
	C106.175438,66.348045 106.307159,65.896301 106.795380,65.233177 
	C107.715004,65.037254 108.840874,64.886292 108.944069,65.144318 
	C111.434433,71.371437 118.055267,69.068977 122.605804,71.833908 
	C125.019821,73.738190 124.171310,75.951866 123.773720,77.984787 
	C123.044937,81.711197 122.180740,85.412849 121.333031,89.116264 
	C121.010872,90.523682 120.496071,92.238914 122.653076,92.717049 
	C124.508873,93.128403 125.991005,92.371696 126.560455,90.532341 
	C127.585991,87.219742 128.150055,83.781601 129.090302,80.443451 
	C129.890625,77.602119 130.162598,74.561203 132.379181,71.883575 
	C133.100967,71.413513 133.568634,71.277954 134.425034,71.302078 
	C138.831146,73.872208 137.414551,78.060936 138.076584,82.075172 
	C140.433670,80.646255 141.961029,77.397202 145.325363,78.404236 
	C147.294052,78.993515 147.567200,80.606354 147.687927,82.663803 
z"/>
<path fill="#F4F9F9" opacity="1.000000" stroke="none" 
	d="
M40.117676,59.293526 
	C40.512188,59.167953 40.805149,59.255909 40.902519,59.137974 
	C45.477489,59.000130 49.955318,59.001732 54.432610,58.953117 
	C57.681942,58.917843 60.991508,59.076885 62.647472,62.374710 
	C64.348389,65.762062 63.772327,69.398499 61.540714,72.254494 
	C59.364292,75.039856 57.348862,76.878349 60.336727,80.758003 
	C62.449997,83.502014 59.999245,87.067070 58.588272,90.461540 
	C57.990021,91.344604 57.545723,91.873337 57.038376,92.655609 
	C56.763348,93.178650 56.540134,93.438446 56.089447,93.828758 
	C55.875050,93.970558 55.974033,93.978745 55.976376,93.929138 
	C55.771130,94.206718 55.510262,94.483742 54.922562,94.801102 
	C47.668552,97.742638 40.311832,96.589249 32.637733,96.918106 
	C31.536581,96.466965 31.019217,95.912689 30.688356,94.765610 
	C30.614706,93.854080 30.685690,93.336739 31.003086,92.476257 
	C31.362087,91.935898 31.545368,91.748352 32.009048,91.285851 
	C33.913002,84.155708 35.573784,77.308739 37.242363,70.397980 
	C37.636318,70.419510 37.632473,70.360733 37.608727,70.343307 
	C38.101791,66.651886 36.074406,62.479111 40.117676,59.293526 
z"/>
<path fill="#F4F9F9" opacity="1.000000" stroke="none" 
	d="
M84.194794,92.812080 
	C83.580620,92.986649 83.312141,93.124802 83.013901,93.589172 
	C82.729820,94.206085 82.449867,94.536354 81.746094,94.828667 
	C80.971611,95.020096 80.525070,95.166054 79.984283,95.536285 
	C77.426445,97.587128 74.557114,96.793381 71.423225,97.011856 
	C71.002762,97.017250 70.547142,96.973587 70.318298,96.971375 
	C69.329636,96.283279 68.322105,96.626793 67.273865,96.051872 
	C66.050301,94.917908 65.019577,94.070129 63.750210,93.059929 
	C62.650200,92.712822 62.516331,92.019096 62.429939,90.958366 
	C62.457890,90.605019 62.505379,90.564735 62.495739,90.535034 
	C62.536560,82.835625 64.337509,75.516449 66.790382,68.302414 
	C68.708771,62.660328 72.376556,59.111595 78.648590,57.878700 
	C80.859955,56.928047 82.712036,56.082542 85.001114,57.251747 
	C85.870087,57.842274 86.552223,58.040211 87.524139,58.227097 
	C89.985298,59.713848 91.595154,61.593876 92.078041,64.657990 
	C92.717964,66.224701 92.415520,67.518196 92.498703,69.156570 
	C93.146759,75.819420 91.173683,81.663628 89.270676,87.853668 
	C88.960381,88.354309 88.838081,88.552658 88.558586,89.059753 
	C87.722588,90.258934 87.072311,91.172638 86.012901,92.164024 
	C85.341064,92.526405 84.920944,92.632118 84.194794,92.812080 
z"/>
<path fill="#F3F8F9" opacity="1.000000" stroke="none" 
	d="
M105.355789,73.715576 
	C103.994835,78.145042 102.921906,82.291412 101.733070,86.885712 
	C104.221405,86.885712 106.224602,86.638275 108.132652,86.958252 
	C109.892059,87.253296 112.766479,85.192215 113.258568,88.553703 
	C113.847824,92.579002 111.464531,95.324760 107.838402,95.426811 
	C102.197815,95.585564 96.556450,95.716621 90.455948,95.946350 
	C89.462364,96.227539 88.990578,96.127480 88.367065,95.409477 
	C87.538864,92.727303 88.511398,90.612740 89.374779,88.148819 
	C91.471024,82.894722 91.260948,77.406525 93.679916,72.256180 
	C94.986198,68.658417 96.186394,65.368759 97.163773,62.014175 
	C98.134430,58.682632 104.763840,55.916698 107.322388,58.205296 
	C109.205780,59.889969 107.112503,62.158234 107.060455,64.589508 
	C106.913696,65.388527 106.761803,65.779381 106.563606,66.484123 
	C107.239182,69.142876 108.167801,71.514961 105.355789,73.715576 
z"/>
<path fill="#F1F6F7" opacity="1.000000" stroke="none" 
	d="
M133.363892,71.751198 
	C131.592377,78.606331 130.051376,85.227974 128.475143,91.841225 
	C128.140350,93.245926 128.065964,94.918022 125.892311,94.807571 
	C123.424957,94.682213 120.911217,94.870224 118.508240,94.428818 
	C117.750015,94.289536 118.524620,92.666557 118.731148,91.739952 
	C120.138992,85.423668 121.558205,79.109932 122.959259,72.396393 
	C124.049232,68.813026 126.130821,65.121315 119.694427,65.985603 
	C117.628777,66.262978 117.137901,65.308853 117.745499,63.399200 
	C118.236359,61.856411 118.489700,60.238049 118.911194,58.276367 
	C125.550888,55.273289 132.414185,56.947857 139.564346,56.744041 
	C140.720840,56.983086 141.452942,57.034790 142.553619,57.061634 
	C145.754074,61.026600 144.054108,64.128738 140.601776,67.125732 
	C139.469406,67.469170 138.763687,67.801743 137.690491,68.125122 
	C135.470245,68.600479 134.974304,70.574776 133.363892,71.751198 
z"/>
<path fill="#2D505D" opacity="1.000000" stroke="none" 
	d="
M93.677238,71.781837 
	C94.241669,77.295845 92.459305,82.276634 91.252617,87.697250 
	C90.044380,88.670006 88.988197,89.049927 87.443130,88.264122 
	C89.984146,82.616127 90.403275,76.543480 91.989029,70.381302 
	C92.239998,69.795555 92.378281,69.591621 92.728806,69.690262 
	C93.117653,70.524277 93.294250,71.055717 93.677238,71.781837 
z"/>
<path fill="#163E4C" opacity="1.000000" stroke="none" 
	d="
M139.653717,56.690483 
	C133.262573,57.200378 126.536385,57.469372 119.392082,57.818947 
	C119.365898,56.628796 120.250702,56.002125 121.556007,56.038433 
	C127.476295,56.203102 133.417618,55.468388 139.653717,56.690483 
z"/>
<path fill="#163E4C" opacity="1.000000" stroke="none" 
	d="
M138.899170,66.267502 
	C143.789551,64.955551 142.031296,60.656879 143.019104,57.433846 
	C143.599960,56.966972 144.277740,56.897171 145.461975,56.758018 
	C146.312607,57.282600 146.656784,57.876530 146.987885,58.734936 
	C146.744217,59.369389 146.622498,59.774029 146.471817,60.511936 
	C145.685699,61.476955 145.468948,62.338955 145.146423,63.545364 
	C144.509079,64.751579 144.400040,65.793541 143.562805,66.946060 
	C141.654221,68.253937 140.126175,68.410095 138.899170,66.267502 
z"/>
<path fill="#163745" opacity="1.000000" stroke="none" 
	d="
M84.957253,57.321182 
	C83.382164,57.712646 81.576378,57.780956 79.387802,57.802162 
	C80.591255,55.077076 82.616882,55.719955 84.957253,57.321182 
z"/>
<path fill="#123441" opacity="1.000000" stroke="none" 
	d="
M109.327347,54.819340 
	C111.064476,54.437572 113.030067,54.383289 115.415115,54.286392 
	C114.094711,56.999630 111.843437,56.199692 109.327347,54.819340 
z"/>
<path fill="#364C5E" opacity="1.000000" stroke="none" 
	d="
M92.959541,69.618294 
	C92.941055,69.992844 92.521385,69.996948 92.311554,69.998222 
	C92.080399,68.607269 92.059082,67.215034 92.113548,65.410995 
	C93.261787,66.263618 92.948074,67.785606 92.959541,69.618294 
z"/>
<path fill="#163E4C" opacity="1.000000" stroke="none" 
	d="
M144.164215,54.068336 
	C144.584946,54.247032 145.061447,54.810005 145.637802,55.739891 
	C145.231766,55.555408 144.725876,55.004013 144.164215,54.068336 
z"/>
<path fill="#163745" opacity="1.000000" stroke="none" 
	d="
M87.824623,58.115685 
	C87.769333,58.193295 88.012825,57.832146 88.012825,57.832146 
	C88.012825,57.832146 87.996025,58.073044 87.904984,58.144539 
	C87.813934,58.216038 87.879913,58.038078 87.824623,58.115685 
z"/>
<path fill="#D4DDE3" opacity="1.000000" stroke="none" 
	d="
M138.939056,109.874550 
	C139.455902,111.156364 139.643936,112.257133 139.902344,113.685745 
	C140.367554,114.375793 140.530502,114.822556 140.321106,115.701904 
	C140.336136,118.032379 140.491638,120.014839 140.680649,122.366898 
	C139.388702,123.153214 138.063278,123.569946 136.391418,124.036682 
	C136.222260,119.985718 135.337662,115.832535 136.820175,111.412033 
	C137.238922,110.237434 137.811890,109.829559 138.939056,109.874550 
z"/>
<path fill="#B6BFC2" opacity="1.000000" stroke="none" 
	d="
M108.081558,117.428116 
	C108.991966,115.717339 110.268867,114.373421 110.933998,112.774956 
	C112.245857,109.622299 114.081001,109.527847 116.778519,111.552391 
	C117.716324,112.943031 117.155319,113.765503 115.968246,114.678177 
	C115.220253,115.206192 114.831642,115.576820 114.230614,116.114059 
	C112.981926,116.932007 111.912170,117.486610 110.327377,117.261169 
	C109.401642,117.274315 108.786560,117.477104 108.081558,117.428116 
z"/>
<path fill="#184759" opacity="1.000000" stroke="none" 
	d="
M31.874092,93.797203 
	C32.086082,94.737030 32.078148,95.466599 32.125690,96.557663 
	C31.854898,96.932816 31.527674,96.934975 31.202509,96.961952 
	C28.658957,97.173019 26.279194,96.655701 26.333992,93.629684 
	C26.390312,90.519653 29.154371,91.153893 31.590775,90.999481 
	C32.163868,91.185364 32.331806,91.371460 32.546856,91.930595 
	C32.593967,92.303635 32.602268,92.360405 32.596016,92.388397 
	C31.695801,91.994331 31.579556,92.139771 31.874092,93.797203 
z"/>
<path fill="#194255" opacity="1.000000" stroke="none" 
	d="
M32.757862,91.971680 
	C32.481472,92.092125 32.368977,91.880623 32.126205,91.334190 
	C31.994352,90.251816 31.992777,89.504372 31.989151,88.383461 
	C34.410114,82.440842 33.926353,76.045769 37.279495,70.529510 
	C36.064796,77.492920 34.493279,84.566322 32.757862,91.971680 
z"/>
<path fill="#1D4B5C" opacity="1.000000" stroke="none" 
	d="
M87.022018,88.195435 
	C88.152054,87.999817 89.208740,87.995705 90.661575,88.003395 
	C90.379929,90.087479 89.702141,92.159760 88.957741,94.613892 
	C88.246819,95.620193 87.495331,95.736664 86.332840,95.229630 
	C85.480766,94.408653 84.958015,93.824028 84.171005,93.099960 
	C83.942276,92.610352 84.102234,92.331573 84.615700,92.032059 
	C86.026115,91.503555 86.547241,90.606422 86.760773,89.095367 
	C86.901596,88.794388 86.948669,88.386948 87.022018,88.195435 
z"/>
<path fill="#27525E" opacity="1.000000" stroke="none" 
	d="
M115.979874,114.916016 
	C116.003532,114.036018 116.398193,113.236465 116.902679,112.119431 
	C122.047173,112.773544 119.637314,117.503418 121.187408,120.605865 
	C118.738754,119.634918 119.672928,115.627365 115.979874,114.916016 
z"/>
<path fill="#2B4F5D" opacity="1.000000" stroke="none" 
	d="
M71.304672,97.249359 
	C73.683083,96.620834 76.363403,96.224419 79.466881,95.794273 
	C77.608444,98.642487 74.647743,98.255630 71.304672,97.249359 
z"/>
<path fill="#174B62" opacity="1.000000" stroke="none" 
	d="
M86.101181,95.332520 
	C86.725403,94.994820 87.447289,94.996353 88.530151,94.996811 
	C89.105461,95.263977 89.319794,95.532204 89.765305,95.916870 
	C89.996490,96.033302 89.992020,96.510406 89.989601,96.748795 
	C88.608643,96.882080 87.028542,97.357445 86.101181,95.332520 
z"/>
<path fill="#27525E" opacity="1.000000" stroke="none" 
	d="
M110.258881,117.278244 
	C111.122620,116.803978 112.228508,116.536446 113.676300,116.274796 
	C113.351051,118.157692 112.057892,118.206406 110.258881,117.278244 
z"/>
<path fill="#1D4B5C" opacity="1.000000" stroke="none" 
	d="
M102.359756,110.978745 
	C103.265236,111.334511 104.104454,112.046364 104.189674,113.590225 
	C102.682449,113.747635 102.018929,112.899429 102.359756,110.978745 
z"/>
<path fill="#2B4F5D" opacity="1.000000" stroke="none" 
	d="
M67.284790,96.040909 
	C67.952538,95.982224 68.824043,96.198769 69.892502,96.692245 
	C69.222496,96.751495 68.355522,96.533813 67.284790,96.040909 
z"/>
<path fill="#1D4B5C" opacity="1.000000" stroke="none" 
	d="
M105.114334,115.167824 
	C105.682594,115.349449 106.305214,115.859344 107.039612,116.655060 
	C106.216698,116.835014 105.435211,116.518898 105.114334,115.167824 
z"/>
<path fill="#194255" opacity="1.000000" stroke="none" 
	d="
M62.405754,90.955338 
	C62.742512,91.167175 63.027134,91.729324 63.411659,92.594498 
	C63.125584,92.366898 62.739605,91.836281 62.405754,90.955338 
z"/>
<path fill="#1D4B5C" opacity="1.000000" stroke="none" 
	d="
M81.718079,94.768982 
	C81.714622,94.573578 82.011093,94.273003 82.617020,93.887894 
	C82.623657,94.090179 82.320831,94.376999 81.718079,94.768982 
z"/>
<path fill="#194255" opacity="1.000000" stroke="none" 
	d="
M54.908600,94.777252 
	C54.903671,94.607346 55.158371,94.323105 55.695892,93.959198 
	C55.708553,94.140663 55.438389,94.401794 54.908600,94.777252 
z"/>
<path fill="#194255" opacity="1.000000" stroke="none" 
	d="
M56.093605,93.832123 
	C56.073380,93.679916 56.271709,93.389267 56.722679,93.003883 
	C56.754269,93.170662 56.533211,93.432175 56.093605,93.832123 
z"/>
<path fill="#CDD0D2" opacity="1.000000" stroke="none" 
	d="
M150.904480,49.473732 
	C152.049774,49.095230 153.244171,49.080486 154.884735,49.075981 
	C154.929626,51.697369 157.555389,52.975529 158.032516,55.550018 
	C156.149277,57.620796 154.500717,57.357342 153.322296,55.137802 
	C152.416901,53.432522 151.734909,51.608635 150.904480,49.473732 
z"/>
<path fill="#194255" opacity="1.000000" stroke="none" 
	d="
M40.100128,59.140812 
	C39.653324,62.669529 38.794460,66.171104 37.760292,69.999283 
	C37.220131,69.079605 36.855278,67.833313 36.245789,66.292900 
	C33.633091,60.153084 33.633091,60.153084 40.100128,59.140812 
z"/>
<path fill="#BCC4C7" opacity="1.000000" stroke="none" 
	d="
M156.569092,114.505852 
	C156.355087,110.623138 160.092255,109.306419 161.419556,106.384064 
	C162.151657,104.772141 163.106003,103.261139 164.012756,101.351814 
	C165.129990,99.402840 166.625992,99.445663 168.616699,99.951767 
	C169.002426,100.001022 169.459351,100.106186 169.689484,100.150818 
	C169.953094,100.590988 169.986557,100.986526 169.976562,101.676598 
	C170.361679,104.208252 168.785538,105.309898 167.061584,106.662674 
	C166.755768,106.824318 166.863388,106.891670 166.890442,106.834244 
	C166.787933,107.137917 166.575958,107.439133 166.016342,107.799118 
	C165.221924,108.387444 164.679199,108.847260 164.032089,109.556602 
	C163.598587,110.563805 163.201996,111.265839 162.149628,111.800262 
	C161.305237,112.404175 160.723404,112.851372 160.034729,113.556152 
	C159.144867,114.829773 158.109360,115.003357 156.569092,114.505852 
z"/>
<path fill="#1E4A5B" opacity="1.000000" stroke="none" 
	d="
M167.111862,106.829102 
	C167.615677,105.305733 168.475586,103.787148 169.634308,102.119850 
	C170.470596,102.526291 171.008087,103.081444 171.773102,103.818604 
	C171.008377,105.774765 169.363571,106.504951 167.111862,106.829102 
z"/>
<path fill="#1E4A5B" opacity="1.000000" stroke="none" 
	d="
M155.975632,114.453033 
	C157.201324,114.209297 158.198700,114.117928 159.561966,113.920151 
	C159.947388,114.298767 159.966919,114.783783 159.991394,115.632858 
	C159.832291,116.175911 159.668228,116.354912 159.254227,116.269028 
	C157.888626,115.982483 156.772964,115.960831 155.239853,115.905197 
	C155.130692,115.449272 155.438995,115.027336 155.975632,114.453033 
z"/>
<path fill="#185162" opacity="1.000000" stroke="none" 
	d="
M159.012680,116.305450 
	C159.004272,116.004128 159.500351,116.000610 159.748352,115.998764 
	C160.158340,116.789688 161.247162,117.837471 159.995911,118.285950 
	C159.189163,118.575104 159.122955,117.331734 159.012680,116.305450 
z"/>
<path fill="#1E4A5B" opacity="1.000000" stroke="none" 
	d="
M162.213821,111.894638 
	C162.385468,111.329636 162.883850,110.702293 163.654968,109.940536 
	C163.844376,110.741013 163.558182,111.537025 162.213821,111.894638 
z"/>
<path fill="#1E4A5B" opacity="1.000000" stroke="none" 
	d="
M166.011627,107.797409 
	C165.970490,107.612488 166.176315,107.297340 166.649826,106.879509 
	C166.697861,107.073608 166.478210,107.370392 166.011627,107.797409 
z"/>
<path fill="#D8DDDF" opacity="1.000000" stroke="none" 
	d="
M153.337082,90.325226 
	C153.867905,87.205032 154.660828,84.330154 155.365753,81.433868 
	C156.032593,78.694214 157.534210,77.008751 160.916702,77.074081 
	C163.125137,81.908905 160.379623,85.940582 159.164902,90.593239 
	C157.842743,92.448616 156.343155,92.175781 154.374466,91.247238 
	C153.955994,91.018768 153.997452,90.991859 153.998383,91.016563 
	C153.853119,90.881241 153.706924,90.721222 153.337082,90.325226 
z"/>
<path fill="#CBD1D5" opacity="1.000000" stroke="none" 
	d="
M154.131409,91.305908 
	C155.394730,91.004997 156.833481,90.991226 158.703003,90.969406 
	C162.321732,93.776253 165.509689,96.591141 168.850037,99.703522 
	C167.834396,101.279076 166.278870,100.945724 164.441833,101.003067 
	C160.812531,97.863670 157.559692,94.728355 154.131409,91.305908 
z"/>
<path fill="#194658" opacity="1.000000" stroke="none" 
	d="
M138.600006,65.751396 
	C139.965851,67.097771 141.162933,67.210442 142.754150,66.226112 
	C144.368866,64.397545 145.839462,63.121723 148.415894,64.709732 
	C148.828903,65.446129 148.931808,65.891945 148.975616,66.678902 
	C148.461731,67.542160 148.516373,68.204453 148.292465,69.118965 
	C146.916977,71.503708 147.809326,73.564384 148.347900,75.943161 
	C148.483292,76.691353 148.465149,77.125740 148.223099,77.837357 
	C148.082794,79.480934 148.116592,80.845543 147.990417,82.593102 
	C145.880142,78.954895 143.694397,77.920616 140.902054,82.324547 
	C140.206635,83.421349 139.143173,84.278168 138.331573,85.310310 
	C137.812042,85.971016 137.341522,86.843979 136.429184,86.611244 
	C135.008087,86.248718 135.648468,85.110954 135.738022,84.169052 
	C136.099747,80.364754 136.435211,76.554726 135.069839,72.428398 
	C133.701340,70.080673 134.578781,68.330742 135.739777,66.259644 
	C136.746948,65.843964 137.490982,65.751259 138.600006,65.751396 
z"/>
<path fill="#A2ACB0" opacity="1.000000" stroke="none" 
	d="
M139.629425,110.011948 
	C138.682373,110.267700 138.096878,110.479805 137.250946,110.864304 
	C136.388306,110.878654 135.786102,110.720619 135.183899,110.562592 
	C136.637268,108.581573 138.870880,107.602318 140.875900,106.420799 
	C142.348358,105.553101 143.104568,107.124634 143.964874,108.487289 
	C142.699097,109.053101 141.181137,108.940750 139.629425,110.011948 
z"/>
<path fill="#194255" opacity="1.000000" stroke="none" 
	d="
M148.757996,64.654358 
	C147.057480,65.295326 145.388947,65.590332 143.359589,65.941849 
	C143.180801,65.155128 143.362839,64.311890 143.772720,63.233253 
	C144.621277,62.367458 145.269318,61.762871 146.029175,60.809708 
	C146.369080,60.374722 146.502258,60.198666 146.943588,59.901352 
	C147.764481,61.289528 148.277237,62.798965 148.757996,64.654358 
z"/>
<path fill="#113847" opacity="1.000000" stroke="none" 
	d="
M148.432983,77.905655 
	C148.037216,77.646011 148.025421,77.175697 148.007202,76.352501 
	C147.085922,73.986595 146.685837,71.928467 147.713821,69.386871 
	C148.151062,68.474991 148.329254,67.944168 148.711975,67.216690 
	C149.701920,70.585999 149.656433,74.144196 148.432983,77.905655 
z"/>
<path fill="#F5F3F1" opacity="1.000000" stroke="none" 
	d="
M131.074860,29.899862 
	C130.837326,30.995632 131.300186,32.465656 129.647827,33.046875 
	C128.612686,31.642626 129.194717,30.759373 130.828461,29.991968 
	C131.144821,29.897982 131.050232,29.947147 131.074860,29.899862 
z"/>
<path fill="#194255" opacity="1.000000" stroke="none" 
	d="
M146.231079,60.183342 
	C146.160339,59.722008 146.351608,59.476509 146.782425,59.133583 
	C146.974823,58.999413 147.262360,59.336876 147.257050,59.558483 
	C147.251724,59.780090 147.087631,59.925804 147.005875,59.998981 
	C146.764725,60.168919 146.605331,60.265675 146.231079,60.183342 
z"/>
<path fill="#CBD1D5" opacity="1.000000" stroke="none" 
	d="
M153.207687,90.291077 
	C153.382553,90.222595 153.604156,90.411667 153.888794,90.848862 
	C153.716873,90.922020 153.484421,90.739227 153.207687,90.291077 
z"/>
<path fill="#185162" opacity="1.000000" stroke="none" 
	d="
M142.958405,119.463409 
	C142.393768,119.057564 142.426910,118.592934 142.975281,118.603600 
	C143.521927,118.614235 143.538956,119.079887 142.958405,119.463409 
z"/>
<path fill="#55737F" opacity="1.000000" stroke="none" 
	d="
M140.322540,115.860870 
	C140.067978,115.600731 139.955338,115.151550 139.907715,114.357986 
	C140.521484,114.452225 140.738281,114.989273 140.322540,115.860870 
z"/>
<path fill="#194255" opacity="1.000000" stroke="none" 
	d="
M105.427368,74.013977 
	C105.403641,71.803131 105.739517,69.607597 106.296349,67.105034 
	C107.289787,67.608643 108.113770,68.377007 108.822334,69.240128 
	C109.810234,70.443512 111.463394,71.524017 110.534187,73.394516 
	C109.348251,75.781853 107.385796,73.866516 105.427368,74.013977 
z"/>
<path fill="#163E4C" opacity="1.000000" stroke="none" 
	d="
M135.627014,65.914490 
	C135.670792,67.704063 135.338669,69.471458 135.002045,71.630447 
	C134.586060,72.016220 134.174576,72.010399 133.454498,71.996124 
	C133.352020,69.784714 133.712128,67.634933 135.627014,65.914490 
z"/>
<path fill="#194255" opacity="1.000000" stroke="none" 
	d="
M105.486023,76.510666 
	C105.474525,76.483101 105.497513,76.538231 105.486023,76.510666 
z"/>
<path fill="#2C515F" opacity="1.000000" stroke="none" 
	d="
M44.178322,85.432648 
	C45.166985,83.533203 44.183819,81.164886 46.254559,80.300095 
	C47.470802,79.792160 48.932518,79.843323 49.889462,80.991440 
	C51.606701,83.051735 50.444820,85.016129 49.426971,86.891708 
	C48.466301,88.661934 46.861965,89.516594 44.904263,89.078987 
	C42.788216,88.605995 44.277588,86.957443 44.178322,85.432648 
z"/>
<path fill="#345460" opacity="1.000000" stroke="none" 
	d="
M47.706650,70.506622 
	C48.211460,68.258827 48.098446,65.868126 51.132206,66.363617 
	C52.684280,66.617119 53.288994,67.665390 53.141411,69.228638 
	C52.909786,71.682007 51.571907,73.309914 49.229355,73.704865 
	C46.683292,74.134125 47.149700,72.401123 47.706650,70.506622 
z"/>
<path fill="#194255" opacity="1.000000" stroke="none" 
	d="
M32.275497,93.779907 
	C31.547997,93.498795 31.136074,92.988289 32.331215,92.437790 
	C32.545498,92.795052 32.501236,93.173706 32.275497,93.779907 
z"/>
<path fill="#254B5C" opacity="1.000000" stroke="none" 
	d="
M78.185532,84.744125 
	C78.234283,86.440094 77.668869,87.608070 76.815910,88.619728 
	C76.050972,89.526985 75.028122,90.190964 73.817802,89.765205 
	C72.482513,89.295471 72.470345,88.021881 72.625038,86.878143 
	C72.863983,85.111534 73.235687,83.362869 73.746681,81.292603 
	C75.540695,76.141754 76.253235,71.045616 78.313095,65.944458 
	C78.393631,65.568672 78.456841,65.357910 78.566132,65.345215 
	C81.550392,65.343842 81.919403,67.228813 81.380844,69.357574 
	C80.646156,72.261475 80.271133,75.210999 79.839401,78.564934 
	C79.834724,79.542923 79.791954,80.107925 79.555038,80.884506 
	C77.860336,81.818108 78.837517,83.408157 78.185532,84.744125 
z"/>
<path fill="#284752" opacity="1.000000" stroke="none" 
	d="
M78.156982,65.819901 
	C78.173859,70.828087 76.216866,75.634750 74.221725,80.741455 
	C74.548035,75.817245 75.644676,70.786873 78.156982,65.819901 
z"/>
<path fill="#284752" opacity="1.000000" stroke="none" 
	d="
M80.018898,78.608772 
	C77.966660,76.053070 80.230934,73.348648 80.420998,70.541306 
	C80.542992,68.739243 81.367256,67.032097 79.015305,65.567230 
	C81.226494,63.865265 82.527023,64.603630 82.107559,67.526367 
	C81.592308,71.116653 80.820953,74.670197 80.018898,78.608772 
z"/>
<path fill="#284752" opacity="1.000000" stroke="none" 
	d="
M78.396599,84.784882 
	C77.156822,83.616882 77.959709,82.497864 79.093582,81.243088 
	C79.112267,82.234573 78.863647,83.373055 78.396599,84.784882 
z"/>
<path fill="#2D505D" opacity="1.000000" stroke="none" 
	d="
M86.610367,88.939880 
	C86.888290,89.990944 86.994705,91.242134 85.191818,91.860123 
	C85.336243,90.988411 85.827690,90.036896 86.610367,88.939880 
z"/>
<path fill="#194658" opacity="1.000000" stroke="none" 
	d="
M145.688141,60.084892 
	C146.016220,60.004246 146.470795,60.033569 146.697449,60.052864 
	C147.020981,61.674534 146.591064,62.873528 144.355835,62.980026 
	C144.058594,61.864094 144.024628,60.686169 145.688141,60.084892 
z"/>
<path fill="#17485A" opacity="1.000000" stroke="none" 
	d="
M147.637421,69.109055 
	C147.983109,71.045540 147.993347,73.085266 148.002167,75.562302 
	C146.263672,73.892044 144.811356,71.755142 147.637421,69.109055 
z"/>
</svg>