<svg width="131" height="271" viewBox="0 0 131 271" fill="none" xmlns="http://www.w3.org/2000/svg">
<path d="M82.7994 0C90.8959 7.55606 97.8874 15.6578 102.757 25.4928C108.826 37.7505 110.402 50.2108 107.323 63.7233C102.12 86.558 89.72 103.597 69.1805 114.785C63.3356 117.968 57.4947 121.167 51.7582 124.54C39.1969 131.924 31.7906 142.812 29.8539 157.333C29.6566 158.812 29.2895 160.269 28.983 161.732C28.96 161.842 28.7904 161.922 27.9705 162.679C22.0688 154.593 15.4171 147.049 10.5517 138.489C0.261184 120.385 7.36325 95.401 25.2233 84.0319C27.3254 82.6938 29.5149 81.4678 31.7534 80.373C63.1883 64.9991 79.6374 39.8279 81.1911 4.89172C81.2502 3.56246 81.3095 2.23321 81.2507 0.451975C81.5771 0 82.0216 0 82.7994 0Z" fill="#E2730E"/>
<path d="M92.9995 268.662C91.4824 269.287 89.7686 269.928 88.0536 269.932C59.0821 269.99 30.1105 269.968 0.675878 269.955C0.142664 238.495 0.0719339 207.046 0.00311994 175.596C-0.00335506 172.636 0.00225686 169.677 0.00225686 165.319C21.726 189.363 42.6042 212.472 63.9201 236.021C72.0201 245.171 79.6825 253.88 87.3449 262.589C89.164 264.52 90.9831 266.451 92.9995 268.662Z" fill="#B75919"/>
<path d="M58.3725 199.82C52.5301 193.392 46.8855 187.268 41.3632 181.035C34.806 173.635 34.5038 165.61 38.9308 156.974C45.4053 144.343 55.2211 135.116 67.6642 128.685C80.1317 122.242 91.4494 114.517 99.1922 102.494C102.057 98.0454 104.558 93.3628 107.356 88.5616C107.622 89.2447 108.104 90.1308 108.314 91.0773C110.734 101.953 113.441 112.779 115.416 123.737C117.692 136.358 115.137 148.271 108.293 159.155C97.2901 176.652 81.8028 189.825 66.0817 202.772C61.9408 206.182 60.7931 201.84 58.3725 199.82Z" fill="#F47A27"/>
<path d="M87.7236 262.294C79.6825 253.88 72.0201 245.171 64.2177 236.148C85.9694 212.652 107.861 189.47 130.766 165.216C130.766 167.946 130.766 169.197 130.766 170.447C130.766 199.095 130.68 227.743 130.861 256.389C130.887 260.621 129.594 261.675 125.506 261.636C113.04 261.519 100.571 261.845 87.7236 262.294Z" fill="#E2730E"/>
<path d="M93.1968 268.943C93.5274 269.42 93.858 269.897 94.1607 270.687C63.1118 271 32.0909 271 0.601357 271C0.12288 270.822 0.113061 270.645 0.621068 270.216C30.1105 269.968 59.0821 269.99 88.0536 269.932C89.7687 269.928 91.4824 269.287 93.1968 268.943Z" fill="#D49C77"/>
</svg>
