<svg width="95" height="195" viewBox="0 0 95 195" fill="none" xmlns="http://www.w3.org/2000/svg">
<path d="M60.2973 0C66.1132 5.43701 71.1353 11.2667 74.6334 18.3435C78.9931 27.1637 80.1251 36.1295 77.9133 45.8525C74.1756 62.2834 65.2685 74.5443 50.5146 82.5941C46.3161 84.8848 42.1205 87.1867 37.9998 89.6134C28.9768 94.9272 23.6568 102.761 22.2656 113.21C22.1239 114.274 21.8601 115.323 21.64 116.376C21.6234 116.455 21.5016 116.512 20.9127 117.057C16.6734 111.239 11.8953 105.81 8.4004 99.6508C1.00854 86.624 6.11009 68.6464 18.9393 60.4657C20.4493 59.5029 22.022 58.6208 23.63 57.833C46.2103 46.7706 58.026 28.6584 59.142 3.51987C59.1845 2.56339 59.2271 1.60692 59.1849 0.325222C59.4194 0 59.7386 0 60.2973 0Z" fill="#E2730E"/>
<path d="M67.6243 193.318C66.5345 193.767 65.3035 194.229 64.0715 194.231C43.2608 194.273 22.4499 194.257 1.30642 194.248C0.923401 171.611 0.872594 148.981 0.823164 126.351C0.818513 124.222 0.822544 122.092 0.822544 118.957C16.4271 136.258 31.4244 152.885 46.736 169.831C52.5544 176.415 58.0584 182.681 63.5624 188.948C64.8691 190.337 66.1759 191.727 67.6243 193.318Z" fill="#B75919"/>
<path d="M42.751 143.782C38.5543 139.157 34.4996 134.75 30.5329 130.265C25.8228 124.94 25.6057 119.166 28.7856 112.952C33.4364 103.863 40.4873 97.224 49.4254 92.5965C58.381 87.9599 66.5108 82.4012 72.0725 73.7501C74.1304 70.5493 75.9268 67.1798 77.9368 63.7251C78.1279 64.2167 78.474 64.8543 78.6253 65.5353C80.3635 73.3612 82.3075 81.1511 83.7267 89.0355C85.3614 98.1173 83.526 106.69 78.6095 114.521C70.7062 127.111 59.5815 136.59 48.2887 145.906C45.3142 148.36 44.4898 145.235 42.751 143.782Z" fill="#F47A27"/>
<path d="M63.8345 188.735C58.0584 182.681 52.5544 176.415 46.9497 169.922C62.5744 153.015 78.2997 136.335 94.7528 118.882C94.7528 120.847 94.7528 121.747 94.7528 122.647C94.7529 143.26 94.6909 163.874 94.8206 184.487C94.8398 187.531 93.911 188.29 90.9743 188.262C82.02 188.178 73.0627 188.412 63.8345 188.735Z" fill="#E2730E"/>
<path d="M67.766 193.52C68.0035 193.863 68.241 194.206 68.4584 194.775C46.1553 195 23.8724 195 1.25289 195C0.909189 194.872 0.902136 194.744 1.26705 194.436C22.4499 194.257 43.2608 194.273 64.0715 194.231C65.3035 194.229 66.5345 193.767 67.766 193.52Z" fill="#D49C77"/>
</svg>
