<svg version="1.1" id="Layer_1" xmlns="http://www.w3.org/2000/svg" xmlns:xlink="http://www.w3.org/1999/xlink" x="0px" y="0px"
	 width="100%" viewBox="0 0 328 154" enable-background="new 0 0 328 154" xml:space="preserve">
<path fill="#FFFEFE" opacity="1.000000" stroke="none" 
	d="
M231.000000,155.000000 
	C183.645767,155.000000 136.291550,155.000000 88.665375,154.659546 
	C90.842941,153.881668 93.338860,153.617950 95.734245,152.977966 
	C108.917137,149.455978 121.021904,143.736755 131.260040,134.589844 
	C132.913864,133.112289 135.069138,129.841431 134.476990,128.587585 
	C130.701523,120.593216 126.221306,112.931679 121.528641,104.347443 
	C112.164970,112.712090 104.797890,121.380272 93.431099,124.256775 
	C82.505966,127.021515 71.716118,127.168877 61.049850,123.268913 
	C50.132423,119.277122 41.832737,112.081917 36.175987,101.989212 
	C29.522717,90.118530 27.903736,77.453934 31.700266,64.384872 
	C38.105774,42.334717 54.307903,31.821709 77.134972,28.461889 
	C72.419495,20.563442 68.280823,13.797131 64.321365,6.927534 
	C62.402454,3.598264 59.941563,3.024233 56.430210,4.168234 
	C29.596317,12.910735 12.028542,30.674362 3.917734,57.744610 
	C2.989395,60.842995 1.974669,63.915497 1.000000,67.000000 
	C1.000000,45.066124 1.000000,23.132248 1.000000,1.000000 
	C27.353895,1.000000 53.708290,1.000000 80.397430,1.337914 
	C80.708809,2.903542 80.267319,4.326558 80.733887,5.325419 
	C82.840195,9.834702 85.344734,14.158254 87.443451,18.670732 
	C91.233253,26.819216 97.441933,29.828890 106.359375,29.247465 
	C115.643173,28.642155 125.006157,28.752525 134.312912,29.111021 
	C149.585098,29.699305 156.127792,41.218140 149.053497,54.678177 
	C147.045120,58.499496 144.952881,62.321407 142.466782,65.837372 
	C137.781921,72.462936 138.445343,78.608444 142.708069,85.208496 
	C148.928665,94.839981 154.926285,104.635742 160.540421,114.630287 
	C163.445969,119.802895 167.436172,122.063782 173.060257,121.923920 
	C180.372437,121.742081 187.681412,121.430908 194.978836,121.523567 
	C190.623047,129.324951 186.188492,136.727005 181.985916,144.258514 
	C180.469238,146.976608 179.509308,150.005371 177.823669,154.014008 
	C186.835083,154.014008 194.302826,153.704834 201.730179,154.119415 
	C206.943710,154.410461 210.001892,152.460754 212.499100,147.994141 
	C221.497192,131.899857 230.379974,115.714378 240.144012,100.086731 
	C244.801163,92.632835 246.337570,86.404373 240.666000,78.998032 
	C237.004135,74.216095 234.187866,68.786606 230.521378,62.889290 
	C228.918854,65.076622 227.853668,66.290062 227.054306,67.658760 
	C219.021332,81.413033 211.104233,95.235634 202.982315,108.936905 
	C200.805679,112.608765 198.041794,115.932503 195.345398,119.085152 
	C188.679901,107.520035 182.614304,96.029694 175.606827,85.145767 
	C171.268188,78.407104 170.662323,73.131271 174.474747,65.479637 
	C186.167862,42.011295 179.114349,19.739771 156.616486,6.575550 
	C151.928574,3.832494 146.231827,2.813510 141.000000,0.999999 
	C203.666687,1.000000 266.333374,1.000000 329.000000,1.000000 
	C329.000000,10.768224 329.000000,20.415455 328.635925,30.372049 
	C322.024750,30.153625 315.753021,29.823318 309.536926,29.047506 
	C301.957245,28.101509 296.801819,31.061295 293.164459,37.654053 
	C287.389313,48.121552 281.427643,58.488804 275.398987,68.813255 
	C260.072357,95.061028 244.639053,121.246498 229.346115,147.513779 
	C228.289658,149.328369 225.434677,151.533615 229.387161,153.850266 
	C230.114639,154.315140 230.557312,154.657578 231.000000,155.000000 
z"/>
<path fill="#567498" opacity="1.000000" stroke="none" 
	d="
M1.000000,67.468582 
	C1.974669,63.915497 2.989395,60.842995 3.917734,57.744610 
	C12.028542,30.674362 29.596317,12.910735 56.430210,4.168234 
	C59.941563,3.024233 62.402454,3.598264 64.321365,6.927534 
	C68.280823,13.797131 72.419495,20.563442 77.134972,28.461889 
	C54.307903,31.821709 38.105774,42.334717 31.700266,64.384872 
	C27.903736,77.453934 29.522717,90.118530 36.175987,101.989212 
	C41.832737,112.081917 50.132423,119.277122 61.049850,123.268913 
	C71.716118,127.168877 82.505966,127.021515 93.431099,124.256775 
	C104.797890,121.380272 112.164970,112.712090 121.528641,104.347443 
	C126.221306,112.931679 130.701523,120.593216 134.476990,128.587585 
	C135.069138,129.841431 132.913864,133.112289 131.260040,134.589844 
	C121.021904,143.736755 108.917137,149.455978 95.734245,152.977966 
	C93.338860,153.617950 90.842941,153.881668 88.196716,154.659546 
	C86.933327,155.000000 85.866661,155.000000 84.136124,154.694763 
	C80.962059,154.291092 78.451851,154.192657 75.608704,154.067383 
	C74.517181,154.360352 73.758591,154.680176 73.000000,155.000000 
	C71.933327,155.000000 70.866661,155.000000 69.214470,154.664459 
	C67.982765,154.186325 67.337723,154.038315 66.690231,153.901917 
	C36.261219,147.491760 14.716532,130.670120 4.457079,100.692612 
	C3.142226,96.850685 2.144590,92.900200 1.000000,89.000000 
	C1.000000,81.979050 1.000000,74.958107 1.000000,67.468582 
z"/>
<path fill="#87A1BC" opacity="1.000000" stroke="none" 
	d="
M140.531342,0.999999 
	C146.231827,2.813510 151.928574,3.832494 156.616486,6.575550 
	C179.114349,19.739771 186.167862,42.011295 174.474747,65.479637 
	C170.662323,73.131271 171.268188,78.407104 175.606827,85.145767 
	C182.614304,96.029694 188.679901,107.520035 195.267242,119.384430 
	C195.258026,120.401543 195.124893,120.788475 194.991760,121.175407 
	C187.681412,121.430908 180.372437,121.742081 173.060257,121.923920 
	C167.436172,122.063782 163.445969,119.802895 160.540421,114.630287 
	C154.926285,104.635742 148.928665,94.839981 142.708069,85.208496 
	C138.445343,78.608444 137.781921,72.462936 142.466782,65.837372 
	C144.952881,62.321407 147.045120,58.499496 149.053497,54.678177 
	C156.127792,41.218140 149.585098,29.699305 134.312912,29.111021 
	C125.006157,28.752525 115.643173,28.642155 106.359375,29.247465 
	C97.441933,29.828890 91.233253,26.819216 87.443451,18.670732 
	C85.344734,14.158254 82.840195,9.834702 80.733887,5.325419 
	C80.267319,4.326558 80.708809,2.903542 80.866089,1.337914 
	C83.700012,1.000000 86.400032,1.000000 89.839859,1.300422 
	C95.728088,1.721610 100.876488,1.842376 106.426910,1.973284 
	C108.552612,1.655617 110.276306,1.327809 112.000000,1.000000 
	C121.354225,1.000000 130.708450,1.000000 140.531342,0.999999 
z"/>
<path fill="#FFFFFE" opacity="1.000000" stroke="none" 
	d="
M329.000000,33.999992 
	C329.000000,74.243111 329.000000,114.486229 329.000000,155.000000 
	C304.313110,155.000000 279.625214,155.000000 254.581512,154.716553 
	C254.799759,154.249161 255.373825,154.065201 256.295044,153.876648 
	C257.995270,152.469055 259.645233,151.249619 260.647034,149.629410 
	C263.962921,144.266586 267.011414,138.739319 270.222412,133.310577 
	C289.805756,100.201614 309.405609,67.102432 329.000000,33.999992 
z"/>
<path fill="#FFA625" opacity="1.000000" stroke="none" 
	d="
M329.000000,33.624992 
	C309.405609,67.102432 289.805756,100.201614 270.222412,133.310577 
	C267.011414,138.739319 263.962921,144.266586 260.647034,149.629410 
	C259.645233,151.249619 257.995270,152.469055 255.991791,153.598907 
	C246.595032,153.459778 237.848694,153.593811 229.102356,153.727829 
	C225.434677,151.533615 228.289658,149.328369 229.346115,147.513779 
	C244.639053,121.246498 260.072357,95.061028 275.398987,68.813255 
	C281.427643,58.488804 287.389313,48.121552 293.164459,37.654053 
	C296.801819,31.061295 301.957245,28.101509 309.536926,29.047506 
	C315.753021,29.823318 322.024750,30.153625 328.635925,30.840706 
	C329.000000,31.750000 329.000000,32.500000 329.000000,33.624992 
z"/>
<path fill="#FEFEFE" opacity="1.000000" stroke="none" 
	d="
M1.000000,89.468658 
	C2.144590,92.900200 3.142226,96.850685 4.457079,100.692612 
	C14.716532,130.670120 36.261219,147.491760 66.690231,153.901917 
	C67.337723,154.038315 67.982765,154.186325 68.814476,154.664459 
	C46.407581,155.000000 23.815159,155.000000 1.000000,155.000000 
	C1.000000,133.312943 1.000000,111.625130 1.000000,89.468658 
z"/>
<path fill="#FFA100" opacity="1.000000" stroke="none" 
	d="
M229.387161,153.850266 
	C237.848694,153.593811 246.595032,153.459778 255.644623,153.603485 
	C255.373825,154.065201 254.799759,154.249161 254.112854,154.716553 
	C246.645752,155.000000 239.291504,155.000000 231.468628,155.000000 
	C230.557312,154.657578 230.114639,154.315140 229.387161,153.850266 
z"/>
<path fill="#9FB3C8" opacity="1.000000" stroke="none" 
	d="
M106.024895,1.963142 
	C100.876488,1.842376 95.728088,1.721610 90.289841,1.300422 
	C95.022095,1.000000 100.044182,1.000000 105.536530,1.240859 
	C106.006775,1.481718 106.024895,1.963142 106.024895,1.963142 
z"/>
<path fill="#7A90AB" opacity="1.000000" stroke="none" 
	d="
M75.941643,154.094208 
	C78.451851,154.192657 80.962059,154.291092 83.736130,154.694763 
	C81.629440,155.000000 79.258888,155.000000 76.433853,154.773285 
	C75.979370,154.546555 75.941643,154.094208 75.941643,154.094208 
z"/>
<path fill="#AFBFD1" opacity="1.000000" stroke="none" 
	d="
M106.426910,1.973284 
	C106.024895,1.963142 106.006775,1.481718 106.003387,1.240859 
	C107.714355,1.000000 109.428719,1.000000 111.571533,1.000000 
	C110.276306,1.327809 108.552612,1.655617 106.426910,1.973284 
z"/>
<path fill="#93A4BA" opacity="1.000000" stroke="none" 
	d="
M75.608704,154.067368 
	C75.941643,154.094208 75.979370,154.546555 75.989685,154.773285 
	C75.250000,155.000000 74.500000,155.000000 73.375000,155.000000 
	C73.758591,154.680176 74.517181,154.360352 75.608704,154.067368 
z"/>
<path fill="#FFA625" opacity="1.000000" stroke="none" 
	d="
M194.978836,121.523567 
	C195.124893,120.788475 195.258026,120.401543 195.469330,119.715332 
	C198.041794,115.932503 200.805679,112.608765 202.982315,108.936905 
	C211.104233,95.235634 219.021332,81.413033 227.054306,67.658760 
	C227.853668,66.290062 228.918854,65.076622 230.521378,62.889290 
	C234.187866,68.786606 237.004135,74.216095 240.666000,78.998032 
	C246.337570,86.404373 244.801163,92.632835 240.144012,100.086731 
	C230.379974,115.714378 221.497192,131.899857 212.499100,147.994141 
	C210.001892,152.460754 206.943710,154.410461 201.730179,154.119415 
	C194.302826,153.704834 186.835083,154.014008 177.823669,154.014008 
	C179.509308,150.005371 180.469238,146.976608 181.985916,144.258514 
	C186.188492,136.727005 190.623047,129.324951 194.978836,121.523567 
z"/>
</svg>