<svg version="1.1" id="Layer_1" xmlns="http://www.w3.org/2000/svg" xmlns:xlink="http://www.w3.org/1999/xlink" x="0px" y="0px"
	 width="100%" viewBox="0 0 223 226" enable-background="new 0 0 223 226" xml:space="preserve">
<path fill="#FFFEFE" opacity="1.000000" stroke="none" 
	d="
M159.000000,227.000000 
	C106.000000,227.000000 53.500008,227.000000 1.000007,227.000000 
	C1.000005,151.666672 1.000005,76.333351 1.000002,1.000017 
	C75.333321,1.000011 149.666641,1.000011 223.999969,1.000006 
	C223.999985,76.333321 223.999985,151.666641 224.000000,226.999969 
	C202.500000,227.000000 181.000000,227.000000 159.000000,227.000000 
M126.754158,167.507492 
	C126.838814,167.670944 126.923462,167.834396 127.404022,168.733093 
	C129.820374,168.733093 132.236710,168.733093 135.354401,168.733093 
	C135.354401,163.865051 135.354401,159.437454 135.354401,153.680679 
	C138.196991,157.015564 140.054840,159.195160 142.128983,161.628510 
	C144.156845,159.125717 145.934586,156.931595 147.712326,154.737488 
	C148.110199,154.886108 148.508057,155.034744 148.905930,155.183365 
	C148.905930,159.665070 148.905930,164.146790 148.905930,169.317993 
	C152.065536,168.796341 154.511047,168.392593 157.230606,167.508530 
	C157.185593,167.329773 157.140579,167.151031 157.308594,166.058594 
	C157.231750,157.712494 157.154922,149.366379 157.178955,140.483521 
	C157.074036,140.334763 156.969101,140.185989 156.493408,139.340073 
	C148.770523,136.829575 146.136139,143.589294 141.942062,148.070236 
	C140.225800,145.982788 138.657639,144.482910 137.582626,142.687698 
	C134.908218,138.221512 131.232437,138.379089 126.774460,140.482010 
	C126.810410,140.665329 126.846359,140.848648 126.648766,141.941238 
	C126.726601,150.284271 126.804436,158.627304 126.754158,167.507492 
M106.212517,135.249588 
	C106.518265,135.180618 106.824020,135.111664 107.762566,135.471466 
	C109.510269,135.607803 111.257980,135.744125 113.864807,136.012238 
	C115.325104,135.792191 116.783379,135.557602 118.245987,135.354248 
	C146.214722,131.465454 160.972443,100.125854 146.110214,76.176857 
	C138.541031,63.979847 124.414536,56.690258 112.189285,58.914597 
	C109.441170,58.868477 106.590485,58.326366 103.964226,58.869495 
	C96.170097,60.481358 89.912201,64.506622 84.295647,70.413284 
	C73.434517,81.835419 71.189560,94.953308 75.838509,109.193733 
	C80.531967,123.570488 90.971619,132.189438 106.212517,135.249588 
M54.454456,146.939621 
	C56.048141,146.939621 57.641827,146.939621 59.678806,146.939621 
	C59.678806,154.611481 59.678806,161.551102 59.678806,168.216415 
	C69.568138,168.216415 79.015968,168.482239 88.438873,168.112595 
	C93.740036,167.904633 97.248146,164.060349 97.823784,159.185303 
	C98.590652,152.690765 98.013176,146.037460 98.013176,139.491882 
	C94.835449,139.491882 92.084297,139.491882 88.932617,139.491882 
	C88.932617,145.119064 88.848701,150.419220 88.963470,155.715073 
	C89.034531,158.994476 87.654182,160.848221 84.370857,160.903000 
	C78.739746,160.996964 73.105927,160.928970 67.473251,160.928970 
	C67.248802,160.178909 67.024345,159.428833 66.799896,158.678772 
	C69.838066,155.061569 75.483665,158.651047 78.853523,156.542358 
	C80.058823,152.052216 78.616318,149.956818 73.936081,150.578659 
	C72.627373,150.752533 71.209892,150.844528 69.962639,150.516525 
	C68.922058,150.242889 68.057457,149.300034 67.114906,148.653564 
	C68.033081,148.017532 68.915230,146.905823 69.876053,146.833084 
	C72.978668,146.598175 76.110214,146.745483 79.344116,146.745483 
	C79.344116,143.956512 79.344116,141.753342 79.344116,139.569839 
	C64.065453,139.569839 49.185917,139.569839 34.471542,139.569839 
	C34.471542,149.552414 34.471542,159.118164 34.471542,168.646057 
	C37.324947,168.646057 39.764492,168.646057 42.475227,168.646057 
	C42.639896,165.005585 42.793724,161.604736 42.968853,157.733063 
	C47.141094,157.733063 50.887409,157.733063 54.856613,157.733063 
	C54.856613,155.308701 54.856613,153.386246 54.856613,150.931549 
	C50.772736,150.931549 46.863297,150.931549 42.953854,150.931549 
	C42.702152,150.406570 42.450451,149.881607 42.198746,149.356628 
	C43.289860,148.552750 44.308823,147.212814 45.486794,147.054245 
	C48.104435,146.701950 50.801716,146.941376 54.454456,146.939621 
M168.442780,152.727325 
	C169.442520,148.504074 172.282135,145.991806 176.385040,147.114197 
	C181.321625,148.464691 183.179367,145.485214 185.525116,142.556671 
	C179.139862,137.097809 172.230347,136.874023 166.001663,141.821167 
	C159.875946,146.686569 158.048157,154.505020 161.520996,160.987320 
	C165.197708,167.850159 172.640305,171.295517 179.479645,169.300781 
	C187.094879,167.079788 191.515366,160.598755 190.699448,152.534851 
	C186.170334,152.534851 181.612091,152.534851 177.177078,152.534851 
	C174.788528,156.995209 178.321838,157.453079 181.153564,159.154694 
	C178.403839,160.328796 175.604401,161.319916 173.079346,160.846725 
	C169.529114,160.181458 168.311035,157.080795 168.442780,152.727325 
M110.358337,150.276138 
	C108.549171,147.727234 109.580246,146.755035 112.323837,146.749435 
	C115.437767,146.743073 118.551712,146.747955 121.732132,146.747955 
	C121.732132,144.002945 121.732132,141.892258 121.732132,139.471710 
	C114.780869,139.471710 108.063477,139.471710 101.223862,139.471710 
	C101.223862,149.329712 101.223862,158.899887 101.223862,168.586777 
	C108.232399,168.586777 114.961754,168.586777 121.804497,168.586777 
	C121.804497,166.009476 121.804497,163.754700 121.804497,161.001434 
	C119.264450,161.001434 116.936348,161.263519 114.702278,160.917847 
	C112.939545,160.645126 111.292534,159.624496 109.594124,158.936050 
	C111.222427,158.328674 112.809319,157.418396 114.489250,157.188736 
	C116.711411,156.884949 119.006401,157.113937 121.196198,157.113937 
	C121.196198,154.580292 121.196198,152.706757 121.196198,150.515854 
	C117.630348,150.515854 114.483757,150.515854 110.358337,150.276138 
z"/>
<path fill="#C91544" opacity="1.000000" stroke="none" 
	d="
M113.002579,59.092575 
	C124.414536,56.690258 138.541031,63.979847 146.110214,76.176857 
	C160.972443,100.125854 146.214722,131.465454 118.245987,135.354248 
	C116.783379,135.557602 115.325104,135.792191 113.431442,135.485535 
	C112.998726,127.650513 112.999359,120.342171 113.387863,112.954353 
	C117.162460,114.255081 120.549202,115.635292 123.950081,117.024536 
	C123.964218,117.033569 123.982208,117.061806 123.758934,117.391075 
	C125.688416,118.814400 127.841171,119.908455 130.128128,121.149078 
	C130.788452,121.339607 131.314575,121.383553 132.252701,121.564011 
	C135.337311,122.221275 136.143524,121.056030 136.115662,118.441208 
	C135.964783,104.291153 135.949081,90.139656 135.964935,75.691017 
	C135.415970,75.275269 134.788849,75.157158 133.799683,75.132111 
	C126.804695,79.454483 119.871384,78.923119 112.868958,76.027725 
	C112.945900,70.050468 112.974236,64.571518 113.002579,59.092575 
z"/>
<path fill="#D21847" opacity="1.000000" stroke="none" 
	d="
M112.595932,59.003586 
	C112.974236,64.571518 112.945900,70.050468 112.508286,75.980247 
	C104.741562,76.431084 97.384102,76.431084 89.623871,76.431084 
	C89.623871,90.486191 89.623871,105.786888 89.471588,121.079788 
	C89.319305,121.071999 89.021591,121.005913 88.848923,121.105331 
	C88.826408,121.483841 88.976555,121.762939 89.393555,122.271225 
	C91.486549,122.018097 93.312691,121.535774 95.502213,121.051285 
	C98.491608,119.484398 101.014038,117.696617 103.771828,116.415527 
	C106.732613,115.040146 109.914558,114.140869 113.000000,113.033836 
	C112.999359,120.342171 112.998726,127.650513 113.001884,135.419647 
	C111.257980,135.744125 109.510269,135.607803 107.157700,135.250122 
	C106.360733,135.021255 106.168640,135.013718 105.976540,135.006165 
	C90.971619,132.189438 80.531967,123.570488 75.838509,109.193733 
	C71.189560,94.953308 73.434517,81.835419 84.295647,70.413284 
	C89.912201,64.506622 96.170097,60.481358 103.964226,58.869495 
	C106.590485,58.326366 109.441170,58.868477 112.595932,59.003586 
M89.285599,74.562210 
	C89.458466,74.647583 89.631332,74.732948 89.804199,74.818321 
	C89.767868,74.625290 89.731544,74.432259 89.285599,74.562210 
z"/>
<path fill="#5A5A5C" opacity="1.000000" stroke="none" 
	d="
M53.960495,146.939606 
	C50.801716,146.941376 48.104435,146.701950 45.486794,147.054245 
	C44.308823,147.212814 43.289860,148.552750 42.198746,149.356628 
	C42.450451,149.881607 42.702152,150.406570 42.953854,150.931549 
	C46.863297,150.931549 50.772736,150.931549 54.856613,150.931549 
	C54.856613,153.386246 54.856613,155.308701 54.856613,157.733063 
	C50.887409,157.733063 47.141094,157.733063 42.968853,157.733063 
	C42.793724,161.604736 42.639896,165.005585 42.475227,168.646057 
	C39.764492,168.646057 37.324947,168.646057 34.471542,168.646057 
	C34.471542,159.118164 34.471542,149.552414 34.471542,139.569839 
	C49.185917,139.569839 64.065453,139.569839 79.344116,139.569839 
	C79.344116,141.753342 79.344116,143.956512 79.344116,146.745483 
	C76.110214,146.745483 72.978668,146.598175 69.876053,146.833084 
	C68.915230,146.905823 68.033081,148.017532 67.114914,148.653564 
	C68.057457,149.300034 68.922058,150.242889 69.962639,150.516525 
	C71.209892,150.844528 72.627373,150.752533 73.936081,150.578659 
	C78.616318,149.956818 80.058823,152.052216 78.853523,156.542358 
	C75.483665,158.651047 69.838066,155.061569 66.799896,158.678772 
	C67.024345,159.428833 67.248802,160.178909 67.473251,160.928970 
	C73.105927,160.928970 78.739746,160.996964 84.370857,160.903000 
	C87.654182,160.848221 89.034531,158.994476 88.963470,155.715073 
	C88.848701,150.419220 88.932617,145.119064 88.932617,139.491882 
	C92.084297,139.491882 94.835449,139.491882 98.013176,139.491882 
	C98.013176,146.037460 98.590652,152.690765 97.823784,159.185303 
	C97.248146,164.060349 93.740036,167.904633 88.438873,168.112595 
	C79.015968,168.482239 69.568138,168.216415 59.678806,168.216415 
	C59.678806,161.551102 59.678806,154.611481 59.678806,146.939621 
	C57.641827,146.939621 56.048141,146.939621 53.960495,146.939606 
z"/>
<path fill="#575759" opacity="1.000000" stroke="none" 
	d="
M156.956543,167.988846 
	C154.511047,168.392593 152.065536,168.796341 148.905930,169.317993 
	C148.905930,164.146790 148.905930,159.665070 148.905930,155.183365 
	C148.508057,155.034744 148.110199,154.886108 147.712326,154.737488 
	C145.934586,156.931595 144.156845,159.125717 142.128983,161.628510 
	C140.054840,159.195160 138.196991,157.015564 135.354401,153.680679 
	C135.354401,159.437454 135.354401,163.865051 135.354401,168.733093 
	C132.236710,168.733093 129.820374,168.733093 127.370064,168.257477 
	C127.184830,167.511353 127.033554,167.240845 126.882271,166.970337 
	C126.804436,158.627304 126.726601,150.284271 126.942780,141.411957 
	C127.327469,140.794815 127.510727,140.660278 127.493782,140.626678 
	C127.386185,140.413300 127.234383,140.222229 127.097153,140.023804 
	C131.232437,138.379089 134.908218,138.221512 137.582626,142.687698 
	C138.657639,144.482910 140.225800,145.982788 141.942062,148.070236 
	C146.136139,143.589294 148.770523,136.829575 156.536011,139.804993 
	C156.745117,140.520035 156.911606,140.770157 157.078079,141.020279 
	C157.154922,149.366379 157.231750,157.712494 157.025665,166.596649 
	C156.657608,167.229996 156.482834,167.381088 156.501801,167.411530 
	C156.630539,167.618195 156.800140,167.799408 156.956543,167.988846 
z"/>
<path fill="#5A5A5C" opacity="1.000000" stroke="none" 
	d="
M168.398132,153.159241 
	C168.311035,157.080795 169.529114,160.181458 173.079346,160.846725 
	C175.604401,161.319916 178.403839,160.328796 181.153564,159.154694 
	C178.321838,157.453079 174.788528,156.995209 177.177078,152.534851 
	C181.612091,152.534851 186.170334,152.534851 190.699448,152.534851 
	C191.515366,160.598755 187.094879,167.079788 179.479645,169.300781 
	C172.640305,171.295517 165.197708,167.850159 161.520996,160.987320 
	C158.048157,154.505020 159.875946,146.686569 166.001663,141.821167 
	C172.230347,136.874023 179.139862,137.097809 185.525116,142.556671 
	C183.179367,145.485214 181.321625,148.464691 176.385040,147.114197 
	C172.282135,145.991806 169.442520,148.504074 168.398132,153.159241 
z"/>
<path fill="#59595B" opacity="1.000000" stroke="none" 
	d="
M110.847748,150.395996 
	C114.483757,150.515854 117.630348,150.515854 121.196198,150.515854 
	C121.196198,152.706757 121.196198,154.580292 121.196198,157.113937 
	C119.006401,157.113937 116.711411,156.884949 114.489250,157.188736 
	C112.809319,157.418396 111.222427,158.328674 109.594124,158.936035 
	C111.292534,159.624496 112.939545,160.645126 114.702278,160.917847 
	C116.936348,161.263519 119.264450,161.001434 121.804497,161.001434 
	C121.804497,163.754700 121.804497,166.009476 121.804497,168.586777 
	C114.961754,168.586777 108.232399,168.586777 101.223862,168.586777 
	C101.223862,158.899887 101.223862,149.329712 101.223862,139.471710 
	C108.063477,139.471710 114.780869,139.471710 121.732132,139.471710 
	C121.732132,141.892258 121.732132,144.002945 121.732132,146.747955 
	C118.551712,146.747955 115.437767,146.743073 112.323837,146.749435 
	C109.580246,146.755035 108.549171,147.727234 110.847748,150.395996 
z"/>
<path fill="#474749" opacity="1.000000" stroke="none" 
	d="
M157.093567,167.748688 
	C156.800140,167.799408 156.630539,167.618195 156.501801,167.411530 
	C156.482834,167.381088 156.657608,167.229996 156.919159,167.053497 
	C157.140579,167.151031 157.185593,167.329773 157.093567,167.748688 
z"/>
<path fill="#4A4A4B" opacity="1.000000" stroke="none" 
	d="
M126.818222,167.238922 
	C127.033554,167.240845 127.184830,167.511353 127.172104,167.889862 
	C126.923462,167.834396 126.838814,167.670944 126.818222,167.238922 
z"/>
<path fill="#474749" opacity="1.000000" stroke="none" 
	d="
M157.128510,140.751892 
	C156.911606,140.770157 156.745117,140.520035 156.721390,140.153564 
	C156.969101,140.185989 157.074036,140.334763 157.128510,140.751892 
z"/>
<path fill="#4A4A4B" opacity="1.000000" stroke="none" 
	d="
M126.935806,140.252899 
	C127.234383,140.222229 127.386185,140.413300 127.493782,140.626678 
	C127.510727,140.660278 127.327469,140.794815 127.059547,140.957321 
	C126.846359,140.848648 126.810410,140.665329 126.935806,140.252899 
z"/>
<path fill="#C91544" opacity="1.000000" stroke="none" 
	d="
M106.094528,135.127869 
	C106.168640,135.013718 106.360733,135.021255 106.841293,135.035751 
	C106.824020,135.111664 106.518265,135.180618 106.094528,135.127869 
z"/>
<path fill="#FAEBEF" opacity="1.000000" stroke="none" 
	d="
M89.623871,121.087585 
	C89.623871,105.786888 89.623871,90.486191 89.623871,76.431084 
	C97.384102,76.431084 104.741562,76.431084 112.459686,76.478561 
	C119.871384,78.923119 126.804695,79.454483 134.022675,75.237198 
	C135.034073,75.495697 135.460434,75.742172 135.886795,75.988655 
	C135.949081,90.139656 135.964783,104.291153 136.115662,118.441208 
	C136.143524,121.056030 135.337311,122.221275 132.049103,121.432701 
	C130.953629,121.110748 130.473785,121.056625 129.993927,121.002502 
	C127.841171,119.908455 125.688416,118.814400 123.966599,116.950348 
	C127.074165,117.122368 129.750778,118.064384 132.853622,119.156410 
	C132.853622,112.091339 132.837051,105.788628 132.858231,99.486038 
	C132.879990,93.011276 132.938614,86.536644 132.964569,79.908195 
	C132.857285,79.426895 132.640945,79.254776 131.944794,79.456299 
	C117.143608,84.401306 116.513664,84.795120 115.219017,89.598824 
	C119.131889,88.922951 123.205154,88.219360 127.504997,87.476639 
	C126.842049,98.133583 125.229820,100.740517 114.697601,109.297707 
	C117.014542,110.398712 119.650955,111.290817 121.825684,112.833679 
	C122.951424,113.632332 123.258820,115.584488 123.935944,117.015503 
	C120.549202,115.635292 117.162460,114.255081 113.387863,112.954353 
	C109.914558,114.140869 106.732613,115.040146 103.771828,116.415527 
	C101.014038,117.696617 98.491608,119.484398 95.103195,121.030136 
	C92.768501,121.036629 91.196182,121.062103 89.623871,121.087585 
M92.720741,117.413643 
	C93.788689,117.527695 94.856644,117.641747 96.599411,117.663582 
	C101.304657,114.549919 106.009903,111.436249 110.918564,108.187973 
	C102.774300,103.868805 100.279884,96.570198 100.393089,87.955856 
	C102.133614,89.728424 103.291840,91.819511 103.864517,94.060249 
	C105.604973,100.870155 108.068558,103.667236 113.799843,103.981628 
	C119.803337,103.674660 123.500916,98.691376 122.764488,90.481758 
	C119.266380,92.048988 116.131760,93.453377 112.581932,94.301903 
	C111.117043,88.258881 107.882576,83.870544 101.541214,82.268044 
	C99.312241,81.704773 97.140221,80.916061 94.256561,79.924469 
	C93.803436,80.287575 93.350311,80.650681 92.696129,81.931679 
	C92.766609,93.610809 92.837090,105.289948 92.720741,117.413643 
M115.007507,80.281349 
	C110.940506,79.555138 106.873505,78.828918 101.650444,77.896278 
	C106.316483,81.479767 109.682884,84.065140 113.032349,86.637497 
	C114.506210,85.007858 116.180199,83.156952 118.002129,81.142464 
	C117.005394,80.862289 116.372276,80.684319 115.007507,80.281349 
z"/>
<path fill="#F9E6EA" opacity="1.000000" stroke="none" 
	d="
M130.128128,121.149078 
	C130.473785,121.056625 130.953629,121.110748 131.637085,121.296188 
	C131.314575,121.383553 130.788452,121.339607 130.128128,121.149078 
z"/>
<path fill="#F9E6EA" opacity="1.000000" stroke="none" 
	d="
M135.964935,75.691017 
	C135.460434,75.742172 135.034073,75.495697 134.384720,75.144135 
	C134.788849,75.157158 135.415970,75.275269 135.964935,75.691017 
z"/>
<path fill="#F9E6EA" opacity="1.000000" stroke="none" 
	d="
M89.471588,121.079788 
	C91.196182,121.062103 92.768501,121.036629 94.739822,121.032303 
	C93.312691,121.535774 91.486549,122.018097 89.462738,122.002487 
	C89.183914,121.338341 89.102753,121.172127 89.021591,121.005913 
	C89.021591,121.005913 89.319305,121.071999 89.471588,121.079788 
z"/>
<path fill="#CE0034" opacity="1.000000" stroke="none" 
	d="
M88.848923,121.105331 
	C89.102753,121.172127 89.183914,121.338341 89.195892,121.773300 
	C88.976555,121.762939 88.826408,121.483841 88.848923,121.105331 
z"/>
<path fill="#F9E6EA" opacity="1.000000" stroke="none" 
	d="
M89.490402,74.400719 
	C89.731544,74.432259 89.767868,74.625290 89.804199,74.818321 
	C89.631332,74.732948 89.458466,74.647583 89.490402,74.400719 
z"/>
<path fill="#D21948" opacity="1.000000" stroke="none" 
	d="
M113.002266,103.928917 
	C108.068558,103.667236 105.604973,100.870155 103.864517,94.060249 
	C103.291840,91.819511 102.133614,89.728424 100.393089,87.955856 
	C100.279884,96.570198 102.774300,103.868805 110.918564,108.187973 
	C106.009903,111.436249 101.304657,114.549919 96.027512,117.487991 
	C94.606270,117.197952 93.756920,117.083511 92.907578,116.969070 
	C92.837090,105.289948 92.766609,93.610809 93.085045,81.466934 
	C93.963371,80.744881 94.452782,80.487579 94.942200,80.230278 
	C97.140221,80.916061 99.312241,81.704773 101.541214,82.268044 
	C107.882576,83.870544 111.117043,88.258881 112.790260,95.038284 
	C112.999817,98.492744 113.001038,101.210831 113.002266,103.928917 
z"/>
<path fill="#CA1A48" opacity="1.000000" stroke="none" 
	d="
M123.950081,117.024536 
	C123.258820,115.584488 122.951424,113.632332 121.825684,112.833679 
	C119.650955,111.290817 117.014542,110.398712 114.697601,109.297707 
	C125.229820,100.740517 126.842049,98.133583 127.504997,87.476639 
	C123.205154,88.219360 119.131889,88.922951 115.219017,89.598824 
	C116.513664,84.795120 117.143608,84.401306 132.110382,79.666161 
	C132.747162,79.792519 132.864136,79.927238 132.981110,80.061951 
	C132.938614,86.536644 132.879990,93.011276 132.858231,99.486038 
	C132.837051,105.788628 132.853622,112.091339 132.853622,119.156410 
	C129.750778,118.064384 127.074165,117.122368 124.189880,116.621078 
	C123.982208,117.061806 123.964218,117.033569 123.950081,117.024536 
z"/>
<path fill="#CA1846" opacity="1.000000" stroke="none" 
	d="
M113.401054,103.955276 
	C113.001038,101.210831 112.999817,98.492744 112.997864,95.316208 
	C116.131760,93.453377 119.266380,92.048988 122.764488,90.481758 
	C123.500916,98.691376 119.803337,103.674660 113.401054,103.955276 
z"/>
<path fill="#D2234F" opacity="1.000000" stroke="none" 
	d="
M115.373337,80.393845 
	C116.372276,80.684319 117.005394,80.862289 118.002129,81.142464 
	C116.180199,83.156952 114.506210,85.007858 113.032349,86.637497 
	C109.682884,84.065140 106.316483,81.479767 101.650444,77.896278 
	C106.873505,78.828918 110.940506,79.555138 115.373337,80.393845 
z"/>
<path fill="#CF053C" opacity="1.000000" stroke="none" 
	d="
M92.814156,117.191360 
	C93.756920,117.083511 94.606270,117.197952 95.690109,117.534096 
	C94.856644,117.641747 93.788689,117.527695 92.814156,117.191360 
z"/>
<path fill="#CF053C" opacity="1.000000" stroke="none" 
	d="
M94.599380,80.077377 
	C94.452782,80.487579 93.963371,80.744881 93.185577,81.007988 
	C93.350311,80.650681 93.803436,80.287575 94.599380,80.077377 
z"/>
<path fill="#F9E6EA" opacity="1.000000" stroke="none" 
	d="
M132.964569,79.908195 
	C132.864136,79.927238 132.747162,79.792519 132.464569,79.447937 
	C132.640945,79.254776 132.857285,79.426895 132.964569,79.908195 
z"/>
</svg>