<svg version="1.1" id="Layer_1" xmlns="http://www.w3.org/2000/svg" xmlns:xlink="http://www.w3.org/1999/xlink" x="0px" y="0px"
	 width="100%" viewBox="0 0 420 271" enable-background="new 0 0 420 271" xml:space="preserve">
<path fill="#FEFDFD" opacity="1.000000" stroke="none" 
	d="
M318.000000,272.000000 
	C245.645767,272.000000 173.291550,272.000000 100.496643,271.686768 
	C99.725342,270.896545 99.394707,270.419556 98.866821,269.662354 
	C96.850441,267.451202 95.031303,265.520264 93.590912,263.293884 
	C106.437828,262.844940 118.907623,262.518646 131.373230,262.636230 
	C135.461594,262.674774 136.754593,261.620605 136.727921,257.389069 
	C136.547333,228.742706 136.633545,200.094681 136.633484,171.447189 
	C136.633469,170.196564 136.633469,168.945938 136.633469,166.215759 
	C113.728485,190.470261 91.836655,213.651917 69.647278,236.706726 
	C48.471523,213.471573 27.593307,190.363266 5.869564,166.319107 
	C5.869564,170.676880 5.863952,173.636322 5.870427,176.595734 
	C5.939241,208.045517 6.009971,239.495285 6.025358,271.206177 
	C5.980361,271.644867 5.990180,271.822449 6.000000,272.000000 
	C4.335349,272.000000 2.670699,272.000000 1.004536,272.000000 
	C1.003024,181.777939 1.003024,91.555893 1.003024,1.000000 
	C29.353354,1.000000 57.708019,1.000000 86.649345,1.451975 
	C87.176788,3.233206 87.117485,4.562459 87.058365,5.891720 
	C85.504662,40.827858 69.055649,65.999130 37.620705,81.373024 
	C35.382172,82.467834 33.192692,83.693787 31.090611,85.031883 
	C13.230547,96.400963 6.128485,121.385101 16.418985,139.489090 
	C21.284416,148.048798 27.936144,155.593140 33.837788,163.678696 
	C34.657722,162.921783 34.827255,162.842407 34.850307,162.732346 
	C35.156788,161.269012 35.523945,159.812225 35.721214,158.333160 
	C37.657936,143.812088 45.064220,132.924500 57.625484,125.539719 
	C63.362022,122.167175 69.202896,118.968079 75.047783,115.784584 
	C95.587280,104.597458 107.987114,87.558006 113.190514,64.723274 
	C116.269638,51.210789 114.693756,38.750546 108.624428,26.492765 
	C103.754700,16.657759 96.763168,8.556055 89.000000,1.000000 
	C199.597046,1.000000 310.194092,1.000000 420.895569,1.000000 
	C420.895569,91.333275 420.895569,181.666611 420.895569,272.000000 
	C390.232208,272.000000 359.584747,272.000000 328.637024,271.686523 
	C329.105255,269.978210 330.331299,268.653015 330.556183,267.175385 
	C331.218170,262.826080 333.555542,261.558807 337.735657,261.949432 
	C341.607483,262.311218 345.539734,262.026550 349.514435,262.026550 
	C349.514435,257.903229 349.514435,254.637405 349.514435,250.991180 
	C347.676910,250.905167 346.065765,250.768585 344.454285,250.764389 
	C335.300079,250.740555 326.141937,250.913666 316.992645,250.698883 
	C307.846527,250.484161 300.293427,244.587296 297.602112,236.039703 
	C294.912537,227.497604 297.676147,217.951248 305.421143,213.168579 
	C309.301331,210.772491 314.349396,209.476425 318.957092,209.211685 
	C329.020294,208.633484 339.139679,209.032867 349.445251,209.032867 
	C349.445251,205.009674 349.445251,201.618073 349.445251,197.795578 
	C338.510498,197.795578 327.886353,197.688965 317.265106,197.819656 
	C299.752502,198.035141 285.910645,211.649811 285.335938,229.049438 
	C284.772766,246.099945 298.253143,260.730042 315.637695,261.951843 
	C317.042969,262.050629 318.441345,262.247040 319.971619,262.411926 
	C319.257660,265.883911 318.628845,268.941956 318.000000,272.000000 
M64.491837,201.075943 
	C66.660400,202.839920 67.808128,207.182114 71.949036,203.771942 
	C87.670135,190.825058 103.157364,177.651825 114.159813,160.155411 
	C121.004303,149.271118 123.559395,137.357910 121.283600,124.736580 
	C119.307861,113.779282 116.601562,102.953255 114.181786,92.077301 
	C113.971191,91.130814 113.489281,90.244682 113.223335,89.561546 
	C110.425110,94.362762 107.924210,99.045433 105.059441,103.493759 
	C97.316658,115.516495 85.998978,123.241730 73.531448,129.685425 
	C61.088360,136.116486 51.272636,145.343399 44.798069,157.974136 
	C40.371101,166.610382 40.673321,174.634842 47.230534,182.035431 
	C52.752762,188.267929 58.397362,194.391998 64.491837,201.075943 
M409.391968,183.990601 
	C411.660034,183.990601 413.928101,183.990601 416.358887,183.990601 
	C416.358887,179.919662 416.358887,176.519608 416.358887,172.718872 
	C414.217133,172.718872 412.403900,172.718948 410.590668,172.718857 
	C397.595856,172.718292 384.600922,172.691528 371.606262,172.733902 
	C367.962433,172.745789 364.540344,171.950684 364.037323,167.889954 
	C363.499268,163.546722 363.916046,159.085205 363.916046,154.342148 
	C377.916351,154.342148 391.209808,154.342148 404.680298,154.342148 
	C404.680298,150.434464 404.680298,146.895218 404.680298,142.828033 
	C390.919800,142.828033 377.510193,142.828033 364.177246,142.828033 
	C363.019531,132.569351 364.389160,130.994507 373.959534,130.992447 
	C384.455353,130.990173 394.951172,130.991928 405.446991,130.991928 
	C409.044983,130.991928 412.642944,130.991913 416.327332,130.991913 
	C416.327332,126.877136 416.327332,123.487373 416.327332,119.744934 
	C401.153992,119.744934 386.343719,119.718185 371.533569,119.753311 
	C359.474121,119.781906 352.542175,126.548965 352.399384,138.525330 
	C352.294128,147.353897 352.308319,156.185425 352.397797,165.014343 
	C352.518463,176.923569 359.562378,183.926910 371.436096,183.977798 
	C383.764282,184.030624 396.092865,183.990219 409.391968,183.990601 
M352.900848,226.761063 
	C352.855042,227.757141 352.764648,228.753464 352.770020,229.749268 
	C352.867462,247.785980 367.308350,262.176849 385.132202,262.011444 
	C402.962067,261.845978 417.217072,247.153259 416.975311,229.190552 
	C416.758057,213.050140 403.643860,198.990555 387.767456,197.877197 
	C370.082825,196.637039 355.948456,208.002258 352.900848,226.761063 
M236.080719,154.542358 
	C231.228149,164.100266 226.375580,173.658173 221.403015,183.452423 
	C233.156967,185.030243 233.154938,185.029205 237.876404,175.783157 
	C243.002686,165.744324 248.133286,155.707687 253.689819,144.832779 
	C254.958176,147.118011 255.859039,148.634445 256.660126,150.201843 
	C261.806946,160.272171 266.855560,170.394058 272.146454,180.387833 
	C272.939240,181.885284 274.699158,183.545822 276.247040,183.824722 
	C279.258118,184.367233 282.436066,183.983597 286.491058,183.983597 
	C275.476257,162.399231 264.845825,141.568130 253.784225,119.892105 
	C247.610825,131.989487 242.021408,142.942505 236.080719,154.542358 
M239.502426,229.997391 
	C234.175598,240.428528 228.848785,250.859665 223.383469,261.562012 
	C235.279266,262.923126 235.272522,262.919678 240.174698,253.322144 
	C245.215378,243.453476 250.271072,233.592499 255.703568,222.979172 
	C256.918732,225.094467 257.771362,226.446091 258.496887,227.862823 
	C263.725800,238.073761 268.870789,248.328415 274.207062,258.482697 
	C274.952423,259.901031 276.473633,261.635284 277.851288,261.851837 
	C281.034180,262.352234 284.349426,262.010803 288.525452,262.010803 
	C277.491943,240.397186 266.869141,219.588043 255.810379,197.924911 
	C250.084991,209.193558 244.967743,219.265305 239.502426,229.997391 
M207.253326,180.583923 
	C217.498840,160.511414 227.744339,140.438889 238.305069,119.748802 
	C235.613373,119.748802 233.767578,119.963737 231.989990,119.706779 
	C227.434967,119.048370 224.794189,120.717888 222.885223,125.075752 
	C219.822006,132.068588 216.032181,138.743408 212.542023,145.548843 
	C210.383743,149.757217 208.211792,153.958603 205.663239,158.906189 
	C199.296951,146.439423 193.469406,134.867050 187.434174,123.404022 
	C186.642807,121.900917 184.925949,120.196381 183.394989,119.917389 
	C180.383347,119.368584 177.201111,119.755836 174.227325,119.755836 
	C174.055328,120.420502 173.927872,120.624702 173.984116,120.736534 
	C184.206192,141.061707 194.436035,161.383026 204.759216,181.656799 
	C204.853516,181.841980 206.202728,181.388184 207.253326,180.583923 
M342.907990,180.315994 
	C342.907990,177.887802 342.907990,175.459610 342.907990,172.677521 
	C332.054443,172.677521 321.918640,172.736633 311.783905,172.657608 
	C304.525543,172.601028 301.195862,169.164551 301.142944,161.854950 
	C301.098419,155.700378 301.133240,149.545227 301.133148,143.390335 
	C301.133026,135.629181 301.133148,127.868019 301.133148,120.064743 
	C297.113159,120.064743 293.721588,120.064743 290.077057,120.064743 
	C290.077057,135.642441 289.658051,150.929794 290.230927,166.179871 
	C290.586487,175.645889 299.217407,183.436035 308.912201,183.819351 
	C319.209961,184.226547 329.536041,184.027039 339.845673,183.851669 
	C340.879517,183.834106 341.885010,182.150986 342.907990,180.315994 
M357.556885,76.783752 
	C364.162567,76.783752 370.768219,76.783752 377.376404,76.783752 
	C377.376404,74.251038 377.376404,72.379784 377.376404,70.207718 
	C367.827362,70.207718 358.684753,70.001900 349.557312,70.285034 
	C344.096588,70.454430 340.325745,74.487991 340.086121,80.049843 
	C339.835480,85.866760 339.887939,91.706917 340.065125,97.529083 
	C340.225677,102.803886 343.396027,107.307938 348.119446,107.537224 
	C357.854675,108.009789 367.628845,107.679428 377.404907,107.679428 
	C377.404907,105.303154 377.404907,103.421906 377.404907,101.145821 
	C368.553589,101.145821 360.086487,101.072502 351.621735,101.182266 
	C348.282684,101.225563 346.600647,99.970512 346.733154,96.525291 
	C346.806396,94.620514 346.746277,92.710602 346.746277,90.452789 
	C355.230255,90.452789 362.854828,90.452789 370.752258,90.452789 
	C370.752258,88.198242 370.752258,86.303116 370.752258,83.880478 
	C362.790161,83.880478 355.041504,83.880478 347.393066,83.880478 
	C346.403290,77.836990 347.045654,76.941933 352.081482,76.792908 
	C353.578735,76.748596 355.078400,76.784492 357.556885,76.783752 
M195.012772,86.525070 
	C188.277527,81.345787 181.542282,76.166512 174.411514,70.683083 
	C174.411514,83.685219 174.411514,95.589699 174.411514,107.473816 
	C176.631866,107.473816 178.511261,107.473816 181.007599,107.473816 
	C181.007599,99.766815 181.007599,92.435509 181.007599,84.155884 
	C191.614899,92.279610 201.359848,99.742905 211.576019,107.567085 
	C211.576019,94.466728 211.576019,82.560425 211.576019,70.480057 
	C209.376419,70.480057 207.495880,70.480057 205.021179,70.480057 
	C205.021179,78.288239 205.021179,85.786919 205.021179,94.100258 
	C201.360443,91.322395 198.477051,89.134399 195.012772,86.525070 
M385.453308,74.933876 
	C378.337524,82.380379 377.080078,91.189552 382.017761,99.001427 
	C386.631012,106.299919 395.359344,109.665375 403.285767,107.035027 
	C410.974121,104.483688 415.593872,99.071793 416.506012,91.063622 
	C417.395477,83.254974 414.259491,76.905190 407.474884,72.915520 
	C400.130585,68.596764 392.827393,69.259346 385.453308,74.933876 
M278.891327,101.142593 
	C271.111267,100.316811 266.714905,95.743820 266.863495,88.631592 
	C267.007599,81.736649 272.069214,76.973969 279.647186,76.821220 
	C285.598175,76.701271 291.553467,76.797150 297.611816,76.797150 
	C297.611816,74.339890 297.611816,72.459335 297.611816,70.342636 
	C290.308075,70.342636 283.304840,69.858322 276.396790,70.462349 
	C267.280121,71.259491 260.379852,79.361526 260.126190,88.485535 
	C259.874329,97.544647 266.371796,106.337021 275.358673,107.392792 
	C282.687317,108.253754 290.197632,107.567886 297.586670,107.567886 
	C297.586670,105.309578 297.586670,103.417450 297.586670,101.143784 
	C291.415710,101.143784 285.612732,101.143784 278.891327,101.142593 
M254.738358,92.760254 
	C254.738358,85.327560 254.738358,77.894867 254.738358,70.445480 
	C252.538300,70.445480 250.676880,70.445480 248.445328,70.445480 
	C248.445328,76.486023 248.505997,82.124985 248.431015,87.762138 
	C248.320297,96.084679 243.676315,101.144867 236.253830,101.166550 
	C228.910675,101.187996 224.061417,95.974281 223.963547,87.827652 
	C223.894150,82.052086 223.950089,76.275017 223.950089,70.408295 
	C221.443359,70.408295 219.564789,70.408295 217.265884,70.408295 
	C217.265884,76.734085 217.068680,82.703659 217.309814,88.655479 
	C217.722260,98.835464 224.572296,106.631691 233.751389,107.752563 
	C243.268372,108.914696 251.171860,103.503319 254.738358,92.760254 
M314.164551,101.014885 
	C310.577118,99.994324 309.960571,97.297356 309.995941,94.028297 
	C310.081573,86.118141 310.023773,78.206436 310.023773,70.269470 
	C307.494843,70.269470 305.721985,70.269470 303.748840,70.269470 
	C303.748840,79.765831 303.358032,89.035408 303.900208,98.250092 
	C304.209259,103.502014 308.861572,107.496498 313.952759,107.737701 
	C320.543365,108.049950 327.159973,107.813873 333.921814,107.813873 
	C333.921814,105.413277 333.921814,103.399094 333.921814,101.120010 
	C327.335846,101.120010 321.196777,101.120010 314.164551,101.014885 
M173.620178,208.556580 
	C173.620178,213.653839 173.620178,218.751083 173.620178,224.137558 
	C179.140640,224.137558 184.111359,224.582535 188.967560,224.026764 
	C195.269348,223.305557 199.918198,217.409607 199.943878,211.151077 
	C199.970459,204.673218 195.174728,198.825989 188.554184,198.132080 
	C183.823090,197.636215 178.998154,198.035751 173.620667,198.035751 
	C173.620667,201.355896 173.620667,204.469635 173.620178,208.556580 
M221.516663,223.168457 
	C227.658813,219.555847 230.084854,215.171951 229.103821,208.900620 
	C228.250076,203.443100 224.899643,199.977966 219.697968,198.389465 
	C214.631943,196.842377 209.170456,198.712372 205.877441,202.904465 
	C202.323792,207.428391 202.020142,213.519226 205.112061,218.258163 
	C208.499664,223.450333 213.742401,225.195938 221.516663,223.168457 
M240.928787,53.602772 
	C238.696472,56.668777 236.464142,59.734783 233.885742,63.276108 
	C242.117523,64.593956 242.322708,64.396637 244.968842,53.943363 
	C243.856033,53.826233 242.772232,53.712154 240.928787,53.602772 
z"/>
<path fill="#E2720D" opacity="1.000000" stroke="none" 
	d="
M88.666672,1.000000 
	C96.763168,8.556055 103.754700,16.657759 108.624428,26.492765 
	C114.693756,38.750546 116.269638,51.210789 113.190514,64.723274 
	C107.987114,87.558006 95.587280,104.597458 75.047783,115.784584 
	C69.202896,118.968079 63.362022,122.167175 57.625484,125.539719 
	C45.064220,132.924500 37.657936,143.812088 35.721214,158.333160 
	C35.523945,159.812225 35.156788,161.269012 34.850307,162.732346 
	C34.827255,162.842407 34.657722,162.921783 33.837788,163.678696 
	C27.936144,155.593140 21.284416,148.048798 16.418985,139.489090 
	C6.128485,121.385101 13.230547,96.400963 31.090611,85.031883 
	C33.192692,83.693787 35.382172,82.467834 37.620705,81.373024 
	C69.055649,65.999130 85.504662,40.827858 87.058365,5.891720 
	C87.117485,4.562459 87.176788,3.233206 87.118004,1.451975 
	C87.444443,1.000000 87.888893,1.000000 88.666672,1.000000 
z"/>
<path fill="#B95E20" opacity="1.000000" stroke="none" 
	d="
M318.454102,272.000000 
	C318.628845,268.941956 319.257660,265.883911 319.971619,262.411926 
	C318.441345,262.247040 317.042969,262.050629 315.637695,261.951843 
	C298.253143,260.730042 284.772766,246.099945 285.335938,229.049438 
	C285.910645,211.649811 299.752502,198.035141 317.265106,197.819656 
	C327.886353,197.688965 338.510498,197.795578 349.445251,197.795578 
	C349.445251,201.618073 349.445251,205.009674 349.445251,209.032867 
	C339.139679,209.032867 329.020294,208.633484 318.957092,209.211685 
	C314.349396,209.476425 309.301331,210.772491 305.421143,213.168579 
	C297.676147,217.951248 294.912537,227.497604 297.602112,236.039703 
	C300.293427,244.587296 307.846527,250.484161 316.992645,250.698883 
	C326.141937,250.913666 335.300079,250.740555 344.454285,250.764389 
	C346.065765,250.768585 347.676910,250.905167 349.514435,250.991180 
	C349.514435,254.637405 349.514435,257.903229 349.514435,262.026550 
	C345.539734,262.026550 341.607483,262.311218 337.735657,261.949432 
	C333.555542,261.558807 331.218170,262.826080 330.556183,267.175385 
	C330.331299,268.653015 329.105255,269.978210 328.168335,271.686523 
	C324.969391,272.000000 321.938812,272.000000 318.454102,272.000000 
z"/>
<path fill="#D49C77" opacity="1.000000" stroke="none" 
	d="
M99.064072,269.942535 
	C99.394707,270.419556 99.725342,270.896545 100.027985,271.686768 
	C68.979103,272.000000 37.958210,272.000000 6.468657,272.000000 
	C5.990180,271.822449 5.980361,271.644867 6.488368,271.215637 
	C35.977798,270.968018 64.949440,270.989563 93.920914,270.931793 
	C95.635956,270.928375 97.349716,270.287048 99.064072,269.942535 
z"/>
<path fill="#B75919" opacity="1.000000" stroke="none" 
	d="
M98.866821,269.662354 
	C97.349716,270.287048 95.635956,270.928375 93.920914,270.931793 
	C64.949440,270.989563 35.977798,270.968018 6.543185,270.954529 
	C6.009971,239.495285 5.939241,208.045517 5.870427,176.595734 
	C5.863952,173.636322 5.869564,170.676880 5.869564,166.319107 
	C27.593307,190.363266 48.471523,213.471573 69.787399,237.021149 
	C77.887428,246.171371 85.549797,254.880341 93.212166,263.589294 
	C95.031303,265.520264 96.850441,267.451202 98.866821,269.662354 
z"/>
<path fill="#F47A27" opacity="1.000000" stroke="none" 
	d="
M64.239815,200.820007 
	C58.397362,194.391998 52.752762,188.267929 47.230534,182.035431 
	C40.673321,174.634842 40.371101,166.610382 44.798069,157.974136 
	C51.272636,145.343399 61.088360,136.116486 73.531448,129.685425 
	C85.998978,123.241730 97.316658,115.516495 105.059441,103.493759 
	C107.924210,99.045433 110.425110,94.362762 113.223335,89.561546 
	C113.489281,90.244682 113.971191,91.130814 114.181786,92.077301 
	C116.601562,102.953255 119.307861,113.779282 121.283600,124.736580 
	C123.559395,137.357910 121.004303,149.271118 114.159813,160.155411 
	C103.157364,177.651825 87.670135,190.825058 71.949036,203.771942 
	C67.808128,207.182114 66.660400,202.839920 64.239815,200.820007 
z"/>
<path fill="#E2730E" opacity="1.000000" stroke="none" 
	d="
M93.590912,263.293884 
	C85.549797,254.880341 77.887428,246.171371 70.084946,237.147980 
	C91.836655,213.651917 113.728485,190.470261 136.633469,166.215759 
	C136.633469,168.945938 136.633469,170.196564 136.633484,171.447189 
	C136.633545,200.094681 136.547333,228.742706 136.727921,257.389069 
	C136.754593,261.620605 135.461594,262.674774 131.373230,262.636230 
	C118.907623,262.518646 106.437828,262.844940 93.590912,263.293884 
z"/>
<path fill="#BA5E20" opacity="1.000000" stroke="none" 
	d="
M408.906616,183.990601 
	C396.092865,183.990219 383.764282,184.030624 371.436096,183.977798 
	C359.562378,183.926910 352.518463,176.923569 352.397797,165.014343 
	C352.308319,156.185425 352.294128,147.353897 352.399384,138.525330 
	C352.542175,126.548965 359.474121,119.781906 371.533569,119.753311 
	C386.343719,119.718185 401.153992,119.744934 416.327332,119.744934 
	C416.327332,123.487373 416.327332,126.877136 416.327332,130.991913 
	C412.642944,130.991913 409.044983,130.991928 405.446991,130.991928 
	C394.951172,130.991928 384.455353,130.990173 373.959534,130.992447 
	C364.389160,130.994507 363.019531,132.569351 364.177246,142.828033 
	C377.510193,142.828033 390.919800,142.828033 404.680298,142.828033 
	C404.680298,146.895218 404.680298,150.434464 404.680298,154.342148 
	C391.209808,154.342148 377.916351,154.342148 363.916046,154.342148 
	C363.916046,159.085205 363.499268,163.546722 364.037323,167.889954 
	C364.540344,171.950684 367.962433,172.745789 371.606262,172.733902 
	C384.600922,172.691528 397.595856,172.718292 410.590668,172.718857 
	C412.403900,172.718948 414.217133,172.718872 416.358887,172.718872 
	C416.358887,176.519608 416.358887,179.919662 416.358887,183.990601 
	C413.928101,183.990601 411.660034,183.990601 408.906616,183.990601 
z"/>
<path fill="#B95D20" opacity="1.000000" stroke="none" 
	d="
M352.935303,226.309280 
	C355.948456,208.002258 370.082825,196.637039 387.767456,197.877197 
	C403.643860,198.990555 416.758057,213.050140 416.975311,229.190552 
	C417.217072,247.153259 402.962067,261.845978 385.132202,262.011444 
	C367.308350,262.176849 352.867462,247.785980 352.770020,229.749268 
	C352.764648,228.753464 352.855042,227.757141 352.935303,226.309280 
M367.682343,241.670715 
	C374.682831,250.340805 384.176300,253.010056 393.355408,248.889130 
	C401.690033,245.147339 406.924713,236.037521 405.558319,227.406998 
	C404.118866,218.315216 399.058044,212.250229 390.092773,209.780945 
	C381.923004,207.530746 373.315857,210.391891 368.296265,217.216003 
	C362.684601,224.845047 362.508514,232.891571 367.682343,241.670715 
z"/>
<path fill="#B95E20" opacity="1.000000" stroke="none" 
	d="
M236.256363,154.218933 
	C242.021408,142.942505 247.610825,131.989487 253.784225,119.892105 
	C264.845825,141.568130 275.476257,162.399231 286.491058,183.983597 
	C282.436066,183.983597 279.258118,184.367233 276.247040,183.824722 
	C274.699158,183.545822 272.939240,181.885284 272.146454,180.387833 
	C266.855560,170.394058 261.806946,160.272171 256.660126,150.201843 
	C255.859039,148.634445 254.958176,147.118011 253.689819,144.832779 
	C248.133286,155.707687 243.002686,165.744324 237.876404,175.783157 
	C233.154938,185.029205 233.156967,185.030243 221.403015,183.452423 
	C226.375580,173.658173 231.228149,164.100266 236.256363,154.218933 
z"/>
<path fill="#B95E20" opacity="1.000000" stroke="none" 
	d="
M239.676453,229.667221 
	C244.967743,219.265305 250.084991,209.193558 255.810379,197.924911 
	C266.869141,219.588043 277.491943,240.397186 288.525452,262.010803 
	C284.349426,262.010803 281.034180,262.352234 277.851288,261.851837 
	C276.473633,261.635284 274.952423,259.901031 274.207062,258.482697 
	C268.870789,248.328415 263.725800,238.073761 258.496887,227.862823 
	C257.771362,226.446091 256.918732,225.094467 255.703568,222.979172 
	C250.271072,233.592499 245.215378,243.453476 240.174698,253.322144 
	C235.272522,262.919678 235.279266,262.923126 223.383469,261.562012 
	C228.848785,250.859665 234.175598,240.428528 239.676453,229.667221 
z"/>
<path fill="#B95D1F" opacity="1.000000" stroke="none" 
	d="
M207.109695,180.908325 
	C206.202728,181.388184 204.853516,181.841980 204.759216,181.656799 
	C194.436035,161.383026 184.206192,141.061707 173.984116,120.736534 
	C173.927872,120.624702 174.055328,120.420502 174.227325,119.755836 
	C177.201111,119.755836 180.383347,119.368584 183.394989,119.917389 
	C184.925949,120.196381 186.642807,121.900917 187.434174,123.404022 
	C193.469406,134.867050 199.296951,146.439423 205.663239,158.906189 
	C208.211792,153.958603 210.383743,149.757217 212.542023,145.548843 
	C216.032181,138.743408 219.822006,132.068588 222.885223,125.075752 
	C224.794189,120.717888 227.434967,119.048370 231.989990,119.706779 
	C233.767578,119.963737 235.613373,119.748802 238.305069,119.748802 
	C227.744339,140.438889 217.498840,160.511414 207.109695,180.908325 
z"/>
<path fill="#B85B1C" opacity="1.000000" stroke="none" 
	d="
M342.905823,180.778412 
	C341.885010,182.150986 340.879517,183.834106 339.845673,183.851669 
	C329.536041,184.027039 319.209961,184.226547 308.912201,183.819351 
	C299.217407,183.436035 290.586487,175.645889 290.230927,166.179871 
	C289.658051,150.929794 290.077057,135.642441 290.077057,120.064743 
	C293.721588,120.064743 297.113159,120.064743 301.133148,120.064743 
	C301.133148,127.868019 301.133026,135.629181 301.133148,143.390335 
	C301.133240,149.545227 301.098419,155.700378 301.142944,161.854950 
	C301.195862,169.164551 304.525543,172.601028 311.783905,172.657608 
	C321.918640,172.736633 332.054443,172.677521 342.907990,172.677521 
	C342.907990,175.459610 342.907990,177.887802 342.905823,180.778412 
z"/>
<path fill="#BD662B" opacity="1.000000" stroke="none" 
	d="
M357.066925,76.783691 
	C355.078400,76.784492 353.578735,76.748596 352.081482,76.792908 
	C347.045654,76.941933 346.403290,77.836990 347.393066,83.880478 
	C355.041504,83.880478 362.790161,83.880478 370.752258,83.880478 
	C370.752258,86.303116 370.752258,88.198242 370.752258,90.452789 
	C362.854828,90.452789 355.230255,90.452789 346.746277,90.452789 
	C346.746277,92.710602 346.806396,94.620514 346.733154,96.525291 
	C346.600647,99.970512 348.282684,101.225563 351.621735,101.182266 
	C360.086487,101.072502 368.553589,101.145821 377.404907,101.145821 
	C377.404907,103.421906 377.404907,105.303154 377.404907,107.679428 
	C367.628845,107.679428 357.854675,108.009789 348.119446,107.537224 
	C343.396027,107.307938 340.225677,102.803886 340.065125,97.529083 
	C339.887939,91.706917 339.835480,85.866760 340.086121,80.049843 
	C340.325745,74.487991 344.096588,70.454430 349.557312,70.285034 
	C358.684753,70.001900 367.827362,70.207718 377.376404,70.207718 
	C377.376404,72.379784 377.376404,74.251038 377.376404,76.783752 
	C370.768219,76.783752 364.162567,76.783752 357.066925,76.783691 
z"/>
<path fill="#BC652A" opacity="1.000000" stroke="none" 
	d="
M195.303207,86.735733 
	C198.477051,89.134399 201.360443,91.322395 205.021179,94.100258 
	C205.021179,85.786919 205.021179,78.288239 205.021179,70.480057 
	C207.495880,70.480057 209.376419,70.480057 211.576019,70.480057 
	C211.576019,82.560425 211.576019,94.466728 211.576019,107.567085 
	C201.359848,99.742905 191.614899,92.279610 181.007599,84.155884 
	C181.007599,92.435509 181.007599,99.766815 181.007599,107.473816 
	C178.511261,107.473816 176.631866,107.473816 174.411514,107.473816 
	C174.411514,95.589699 174.411514,83.685219 174.411514,70.683083 
	C181.542282,76.166512 188.277527,81.345787 195.303207,86.735733 
z"/>
<path fill="#BC6327" opacity="1.000000" stroke="none" 
	d="
M385.729767,74.694534 
	C392.827393,69.259346 400.130585,68.596764 407.474884,72.915520 
	C414.259491,76.905190 417.395477,83.254974 416.506012,91.063622 
	C415.593872,99.071793 410.974121,104.483688 403.285767,107.035027 
	C395.359344,109.665375 386.631012,106.299919 382.017761,99.001427 
	C377.080078,91.189552 378.337524,82.380379 385.729767,74.694534 
M389.534302,79.987221 
	C385.359558,84.305412 384.531464,89.303970 387.094635,94.621933 
	C389.321411,99.241959 393.306305,101.380180 398.456848,101.165977 
	C403.633789,100.950661 407.195587,98.319023 409.206696,93.624352 
	C411.207794,88.953133 409.891479,83.305939 406.153473,79.944664 
	C401.705902,75.945351 396.331665,75.793884 389.534302,79.987221 
z"/>
<path fill="#BD662C" opacity="1.000000" stroke="none" 
	d="
M279.350525,101.143188 
	C285.612732,101.143784 291.415710,101.143784 297.586670,101.143784 
	C297.586670,103.417450 297.586670,105.309578 297.586670,107.567886 
	C290.197632,107.567886 282.687317,108.253754 275.358673,107.392792 
	C266.371796,106.337021 259.874329,97.544647 260.126190,88.485535 
	C260.379852,79.361526 267.280121,71.259491 276.396790,70.462349 
	C283.304840,69.858322 290.308075,70.342636 297.611816,70.342636 
	C297.611816,72.459335 297.611816,74.339890 297.611816,76.797150 
	C291.553467,76.797150 285.598175,76.701271 279.647186,76.821220 
	C272.069214,76.973969 267.007599,81.736649 266.863495,88.631592 
	C266.714905,95.743820 271.111267,100.316811 279.350525,101.143188 
z"/>
<path fill="#BB6226" opacity="1.000000" stroke="none" 
	d="
M254.604645,93.163261 
	C251.171860,103.503319 243.268372,108.914696 233.751389,107.752563 
	C224.572296,106.631691 217.722260,98.835464 217.309814,88.655479 
	C217.068680,82.703659 217.265884,76.734085 217.265884,70.408295 
	C219.564789,70.408295 221.443359,70.408295 223.950089,70.408295 
	C223.950089,76.275017 223.894150,82.052086 223.963547,87.827652 
	C224.061417,95.974281 228.910675,101.187996 236.253830,101.166550 
	C243.676315,101.144867 248.320297,96.084679 248.431015,87.762138 
	C248.505997,82.124985 248.445328,76.486023 248.445328,70.445480 
	C250.676880,70.445480 252.538300,70.445480 254.738358,70.445480 
	C254.738358,77.894867 254.738358,85.327560 254.604645,93.163261 
z"/>
<path fill="#BD672C" opacity="1.000000" stroke="none" 
	d="
M314.611145,101.067444 
	C321.196777,101.120010 327.335846,101.120010 333.921814,101.120010 
	C333.921814,103.399094 333.921814,105.413277 333.921814,107.813873 
	C327.159973,107.813873 320.543365,108.049950 313.952759,107.737701 
	C308.861572,107.496498 304.209259,103.502014 303.900208,98.250092 
	C303.358032,89.035408 303.748840,79.765831 303.748840,70.269470 
	C305.721985,70.269470 307.494843,70.269470 310.023773,70.269470 
	C310.023773,78.206436 310.081573,86.118141 309.995941,94.028297 
	C309.960571,97.297356 310.577118,99.994324 314.611145,101.067444 
z"/>
<path fill="#BB6226" opacity="1.000000" stroke="none" 
	d="
M173.620422,208.069977 
	C173.620667,204.469635 173.620667,201.355896 173.620667,198.035751 
	C178.998154,198.035751 183.823090,197.636215 188.554184,198.132080 
	C195.174728,198.825989 199.970459,204.673218 199.943878,211.151077 
	C199.918198,217.409607 195.269348,223.305557 188.967560,224.026764 
	C184.111359,224.582535 179.140640,224.137558 173.620178,224.137558 
	C173.620178,218.751083 173.620178,213.653839 173.620422,208.069977 
M179.848404,219.798889 
	C182.341293,219.797958 184.850037,219.976501 187.323669,219.757843 
	C192.118546,219.333984 195.241119,215.833664 195.271591,211.148773 
	C195.301117,206.608139 192.534698,203.215363 187.856125,202.685852 
	C184.793961,202.339264 181.660751,202.620422 177.747345,202.620422 
	C178.176849,208.588181 178.573257,214.096054 179.848404,219.798889 
z"/>
<path fill="#BD672D" opacity="1.000000" stroke="none" 
	d="
M221.173645,223.330124 
	C213.742401,225.195938 208.499664,223.450333 205.112061,218.258163 
	C202.020142,213.519226 202.323792,207.428391 205.877441,202.904465 
	C209.170456,198.712372 214.631943,196.842377 219.697968,198.389465 
	C224.899643,199.977966 228.250076,203.443100 229.103821,208.900620 
	C230.084854,215.171951 227.658813,219.555847 221.173645,223.330124 
M224.812134,209.861771 
	C222.616928,204.045700 219.500458,201.810532 214.522324,202.769119 
	C210.471939,203.549072 208.087997,206.077667 207.736938,210.267944 
	C207.318878,215.257996 210.496826,219.199875 215.275513,219.731781 
	C220.376877,220.299591 223.867249,217.001663 224.812134,209.861771 
z"/>
<path fill="#B5551F" opacity="1.000000" stroke="none" 
	d="
M241.308624,53.600426 
	C242.772232,53.712154 243.856033,53.826233 244.968842,53.943363 
	C242.322708,64.396637 242.117523,64.593956 233.885742,63.276108 
	C236.464142,59.734783 238.696472,56.668777 241.308624,53.600426 
z"/>
<path fill="#FEFCFB" opacity="1.000000" stroke="none" 
	d="
M367.470428,241.366638 
	C362.508514,232.891571 362.684601,224.845047 368.296265,217.216003 
	C373.315857,210.391891 381.923004,207.530746 390.092773,209.780945 
	C399.058044,212.250229 404.118866,218.315216 405.558319,227.406998 
	C406.924713,236.037521 401.690033,245.147339 393.355408,248.889130 
	C384.176300,253.010056 374.682831,250.340805 367.470428,241.366638 
z"/>
<path fill="#FDFBF9" opacity="1.000000" stroke="none" 
	d="
M389.833527,79.740196 
	C396.331665,75.793884 401.705902,75.945351 406.153473,79.944664 
	C409.891479,83.305939 411.207794,88.953133 409.206696,93.624352 
	C407.195587,98.319023 403.633789,100.950661 398.456848,101.165977 
	C393.306305,101.380180 389.321411,99.241959 387.094635,94.621933 
	C384.531464,89.303970 385.359558,84.305412 389.833527,79.740196 
z"/>
<path fill="#FBF7F4" opacity="1.000000" stroke="none" 
	d="
M179.409027,219.701401 
	C178.573257,214.096054 178.176849,208.588181 177.747345,202.620422 
	C181.660751,202.620422 184.793961,202.339264 187.856125,202.685852 
	C192.534698,203.215363 195.301117,206.608139 195.271591,211.148773 
	C195.241119,215.833664 192.118546,219.333984 187.323669,219.757843 
	C184.850037,219.976501 182.341293,219.797958 179.409027,219.701401 
z"/>
<path fill="#FCF9F6" opacity="1.000000" stroke="none" 
	d="
M224.855576,210.250336 
	C223.867249,217.001663 220.376877,220.299591 215.275513,219.731781 
	C210.496826,219.199875 207.318878,215.257996 207.736938,210.267944 
	C208.087997,206.077667 210.471939,203.549072 214.522324,202.769119 
	C219.500458,201.810532 222.616928,204.045700 224.855576,210.250336 
z"/>
</svg>