<svg width="245" height="219" viewBox="0 0 245 219" fill="none" xmlns="http://www.w3.org/2000/svg">
<path d="M145.655 218.4C145.83 215.342 146.458 212.283 147.172 208.812C145.642 208.647 144.244 208.45 142.838 208.351C125.454 207.13 111.974 192.5 112.537 175.449C113.111 158.049 126.953 144.435 144.466 144.219C155.087 144.089 165.711 144.195 176.646 144.195C176.646 148.018 176.646 151.409 176.646 155.432C166.34 155.432 156.221 155.033 146.158 155.611C141.55 155.876 136.502 157.172 132.622 159.568C124.877 164.351 122.113 173.897 124.803 182.439C127.494 190.987 135.047 196.884 144.193 197.098C153.343 197.313 162.501 197.14 171.655 197.164C173.267 197.168 174.878 197.305 176.715 197.391C176.715 201.037 176.715 204.303 176.715 208.426C172.74 208.426 168.808 208.711 164.936 208.349C160.756 207.958 158.419 209.226 157.757 213.575C157.532 215.053 156.306 216.378 155.369 218.086C152.17 218.4 149.14 218.4 145.655 218.4Z" fill="#B75919"/>
<path d="M236.107 130.39C223.294 130.39 210.965 130.43 198.637 130.377C186.763 130.326 179.719 123.323 179.599 111.414C179.509 102.585 179.495 93.7535 179.6 84.9249C179.743 72.9485 186.675 66.1815 198.734 66.1529C213.544 66.1178 228.355 66.1445 243.528 66.1445C243.528 69.887 243.528 73.2767 243.528 77.3915C239.844 77.3915 236.246 77.3915 232.648 77.3915C222.152 77.3915 211.656 77.3898 201.16 77.392C191.59 77.3941 190.22 78.9689 191.378 89.2276C204.711 89.2276 218.121 89.2276 231.881 89.2276C231.881 93.2948 231.881 96.834 231.881 100.742C218.411 100.742 205.117 100.742 191.117 100.742C191.117 105.485 190.7 109.946 191.238 114.29C191.741 118.35 195.163 119.145 198.807 119.133C211.802 119.091 224.797 119.118 237.791 119.118C239.605 119.119 241.418 119.118 243.56 119.118C243.56 122.919 243.56 126.319 243.56 130.39C241.129 130.39 238.861 130.39 236.107 130.39Z" fill="#B75919"/>
<path d="M180.136 172.709C183.149 154.402 197.284 143.037 214.968 144.277C230.845 145.39 243.959 159.45 244.176 175.59C244.418 193.553 230.163 208.246 212.333 208.411C194.509 208.576 180.068 194.186 179.971 176.149C179.965 175.153 180.056 174.157 180.136 172.709ZM194.883 188.07C201.884 196.74 211.377 199.41 220.556 195.289C228.891 191.547 234.125 182.437 232.759 173.807C231.32 164.715 226.259 158.65 217.294 156.181C209.124 153.93 200.517 156.791 195.497 163.616C189.885 171.245 189.709 179.291 194.883 188.07Z" fill="#B75919"/>
<path d="M63.4571 100.618C69.2222 89.342 74.8116 78.389 80.985 66.2916C92.0466 87.9677 102.677 108.799 113.692 130.383C109.637 130.383 106.459 130.767 103.448 130.224C101.9 129.945 100.14 128.285 99.3472 126.787C94.0563 116.794 89.0077 106.672 83.8609 96.6014C83.0598 95.034 82.1589 93.5175 80.8906 91.2323C75.334 102.107 70.2034 112.144 65.0771 122.183C60.3557 131.429 60.3577 131.43 48.6038 129.852C53.5763 120.058 58.4289 110.5 63.4571 100.618Z" fill="#B75919"/>
<path d="M66.8772 176.067C72.1685 165.665 77.2857 155.593 83.0111 144.324C94.0699 165.988 104.693 186.797 115.726 208.41C111.55 208.41 108.235 208.752 105.052 208.251C103.674 208.035 102.153 206.301 101.408 204.882C96.0715 194.728 90.9265 184.473 85.6976 174.262C84.9721 172.846 84.1195 171.494 82.9043 169.379C77.4718 179.992 72.4161 189.853 67.3754 199.722C62.4733 209.319 62.48 209.323 50.5842 207.962C56.0495 197.259 61.3763 186.828 66.8772 176.067Z" fill="#B75919"/>
<path d="M34.3104 127.308C33.4035 127.788 32.0543 128.242 31.96 128.056C21.6368 107.783 11.4069 87.4612 1.18487 67.1361C1.12862 67.0242 1.25608 66.82 1.42808 66.1554C4.40186 66.1554 7.5841 65.7681 10.5957 66.3169C12.1267 66.5959 13.8436 68.3004 14.6349 69.8036C20.6702 81.2666 26.4977 92.839 32.864 105.306C35.4125 100.358 37.5845 96.1567 39.7428 91.9484C43.2329 85.1429 47.0228 78.4681 50.086 71.4753C51.9949 67.1174 54.6357 65.4479 59.1907 66.1063C60.9683 66.3633 62.8141 66.1483 65.5058 66.1483C54.9451 86.8384 44.6996 106.911 34.3104 127.308Z" fill="#B75919"/>
<path d="M170.107 127.178C169.086 128.551 168.08 130.234 167.046 130.251C156.737 130.427 146.411 130.626 136.113 130.219C126.418 129.836 117.787 122.046 117.432 112.579C116.859 97.3294 117.278 82.0421 117.278 66.4644C120.922 66.4644 124.314 66.4644 128.334 66.4644C128.334 74.2676 128.334 82.0288 128.334 89.7899C128.334 95.9448 128.299 102.1 128.344 108.255C128.397 115.564 131.726 119.001 138.985 119.057C149.119 119.136 159.255 119.077 170.109 119.077C170.109 121.859 170.109 124.287 170.107 127.178Z" fill="#B75919"/>
<path d="M184.268 23.1833C182.279 23.1841 180.779 23.1482 179.282 23.1925C174.246 23.3415 173.604 24.2366 174.594 30.28C182.242 30.28 189.991 30.28 197.953 30.28C197.953 32.7027 197.953 34.5978 197.953 36.8524C190.056 36.8524 182.431 36.8524 173.947 36.8524C173.947 39.1102 174.007 41.0201 173.934 42.9249C173.801 46.3701 175.483 47.6251 178.822 47.5818C187.287 47.4721 195.754 47.5454 204.606 47.5454C204.606 49.8215 204.606 51.7027 204.606 54.079C194.83 54.079 185.055 54.4094 175.32 53.9368C170.597 53.7075 167.426 49.2035 167.266 43.9286C167.089 38.1065 167.036 32.2663 167.287 26.4494C167.526 20.8876 171.297 16.854 176.758 16.6846C185.886 16.4015 195.028 16.6073 204.577 16.6073C204.577 18.7793 204.577 20.6506 204.577 23.1833C197.969 23.1833 191.363 23.1833 184.268 23.1833Z" fill="#B75919"/>
<path d="M22.504 33.1353C25.6778 35.534 28.5612 37.722 32.2219 40.4998C32.2219 32.1865 32.2219 24.6878 32.2219 16.8796C34.6966 16.8796 36.5772 16.8796 38.7768 16.8796C38.7768 28.96 38.7768 40.8663 38.7768 53.9667C28.5606 46.1425 18.8156 38.6792 8.20834 30.5555C8.20834 38.8351 8.20834 46.1664 8.20834 53.8734C5.71201 53.8734 3.83261 53.8734 1.61226 53.8734C1.61226 41.9893 1.61226 30.0848 1.61226 17.0827C8.74303 22.5661 15.4783 27.7454 22.504 33.1353Z" fill="#B75919"/>
<path d="M212.931 21.0941C220.028 15.6589 227.331 14.9963 234.676 19.3151C241.46 23.3048 244.596 29.6545 243.707 37.4632C242.795 45.4714 238.175 50.8833 230.487 53.4346C222.56 56.0649 213.832 52.6995 209.219 45.401C204.281 37.5891 205.538 28.78 212.931 21.0941ZM216.735 26.3868C212.56 30.705 211.732 35.7035 214.295 41.0215C216.522 45.6415 220.507 47.7798 225.658 47.5655C230.835 47.3502 234.396 44.7186 236.407 40.0239C238.409 35.3527 237.092 29.7055 233.354 26.3442C228.907 22.3449 223.532 22.1935 216.735 26.3868Z" fill="#B75919"/>
<path d="M106.551 47.5428C112.813 47.5433 118.616 47.5433 124.787 47.5433C124.787 49.817 124.787 51.7091 124.787 53.9674C117.398 53.9674 109.888 54.6533 102.559 53.7924C93.5725 52.7366 87.0751 43.9442 87.3269 34.8851C87.5806 25.7611 94.4809 17.6591 103.598 16.8619C110.506 16.2579 117.509 16.7422 124.813 16.7422C124.813 18.8589 124.813 20.7395 124.813 23.1967C118.754 23.1967 112.799 23.1008 106.848 23.2208C99.27 23.3735 94.2083 28.1362 94.0642 35.0312C93.9156 42.1434 98.312 46.7164 106.551 47.5428Z" fill="#B75919"/>
<path d="M81.8054 39.5628C78.3726 49.9029 70.4691 55.3143 60.9521 54.1521C51.773 53.0313 44.923 45.235 44.5106 35.055C44.2694 29.1032 44.4666 23.1337 44.4666 16.8079C46.7655 16.8079 48.6441 16.8079 51.1508 16.8079C51.1508 22.6746 51.0949 28.4517 51.1643 34.2272C51.2622 42.3738 56.1114 47.5876 63.4546 47.5661C70.8771 47.5444 75.521 42.4842 75.6318 34.1617C75.7067 28.5246 75.6461 22.8856 75.6461 16.845C77.8776 16.845 79.739 16.845 81.9391 16.845C81.9391 24.2944 81.9391 31.7271 81.8054 39.5628Z" fill="#B75919"/>
<path d="M141.812 47.467C148.398 47.5196 154.537 47.5196 161.123 47.5196C161.123 49.7987 161.123 51.8129 161.123 54.2135C154.361 54.2135 147.744 54.4495 141.154 54.1373C136.062 53.8961 131.41 49.9016 131.101 44.6497C130.559 35.435 130.95 26.1654 130.95 16.6691C132.923 16.6691 134.696 16.6691 137.225 16.6691C137.225 24.606 137.282 32.5177 137.197 40.4279C137.161 43.697 137.778 46.3939 141.812 47.467Z" fill="#B75919"/>
<path d="M0.821167 154.47C0.821412 150.869 0.821411 147.755 0.821411 144.435C6.1989 144.435 11.0238 144.036 15.7549 144.532C22.3755 145.226 27.1712 151.073 27.1446 157.551C27.1189 163.809 22.4701 169.705 16.1683 170.426C11.3121 170.982 6.34138 170.537 0.820923 170.537C0.820923 165.151 0.820923 160.053 0.821167 154.47ZM7.04915 166.198C9.54204 166.198 12.0508 166.376 14.5244 166.157C19.3193 165.734 22.4419 162.233 22.4723 157.548C22.5019 153.008 19.7354 149.615 15.0569 149.085C11.9947 148.739 8.8615 149.02 4.94809 149.02C5.37759 154.988 5.774 160.496 7.04915 166.198Z" fill="#B75919"/>
<path d="M48.3744 169.73C40.9432 171.595 35.7004 169.85 32.3128 164.658C29.2209 159.919 29.5245 153.828 33.0782 149.304C36.3712 145.112 41.8327 143.242 46.8987 144.789C52.1004 146.378 55.4508 149.843 56.3046 155.3C57.2856 161.572 54.8596 165.955 48.3744 169.73ZM52.0129 156.261C49.8177 150.445 46.7012 148.21 41.7231 149.169C37.6727 149.949 35.2887 152.477 34.9377 156.668C34.5196 161.658 37.6976 165.599 42.4763 166.131C47.5776 166.699 51.068 163.401 52.0129 156.261Z" fill="#B75919"/>
<path d="M68.5094 0C69.973 0.111728 71.0568 0.225807 72.1696 0.342937C69.5235 10.7962 69.3183 10.9935 61.0865 9.67568C63.6649 6.13436 65.8972 3.06835 68.5094 0Z" fill="#B75919"/>
</svg>
