<svg width="165" height="161" viewBox="0 0 165 161" fill="none" xmlns="http://www.w3.org/2000/svg">
<path d="M108.835 139.316C108.934 139.274 109.049 139.233 109.096 139.194C109.281 139.034 109.426 138.928 109.701 138.886C115.526 136.218 120.276 132.304 124.688 127.793C129.052 123.331 132.507 118.315 135.39 112.846C137.073 109.655 138.316 106.268 139.448 102.861C140.048 101.057 140.12 99.0779 140.467 97.0543C141.297 95.3667 141.195 93.6166 141.533 91.8331C141.517 91.1134 141.528 90.5187 141.541 89.7953C141.769 87.6131 141.738 85.556 141.628 83.3658C141.682 82.7003 141.613 82.1571 141.77 81.4985C141.983 77.7734 141.089 74.3433 140.126 70.8052C139.472 70.0362 139.358 69.2152 139.333 68.2669C137.191 61.2841 133.873 55.0136 129.487 49.2941C126.577 45.4983 123.494 41.8533 119.955 38.6328C115.945 34.9835 111.588 31.8034 106.683 29.4331C105.231 28.7314 103.932 27.6978 102.235 27.3012C102.036 26.7378 102.341 26.5492 102.816 26.4089C105.996 26.8584 108.748 28.2384 111.601 29.2417C113.953 30.0686 116.038 31.5834 118.204 33.0628C118.494 32.9833 118.68 33.0561 118.953 33.1856C119.264 33.374 119.481 33.5247 119.785 33.7224C119.918 33.8186 119.97 33.8591 120.096 33.9644C120.219 34.0735 120.267 34.1179 120.387 34.2286C120.742 34.5662 121.069 34.7798 121.465 35.0644C121.642 35.2077 121.739 35.2943 121.906 35.4469C122.262 35.7845 122.619 35.9347 123.05 36.1577C123.28 36.3583 123.4 36.5245 123.6 36.7622C125.124 38.4733 127.136 39.4972 128.505 41.3561C128.53 41.4627 128.564 41.4927 128.578 41.5095C128.897 41.4528 129.022 41.7139 129.264 41.9339C129.318 42.0109 129.344 41.9726 129.328 41.9899C129.876 42.909 130.666 43.6087 131.483 44.4257C131.628 44.5699 131.698 44.6392 131.819 44.7624C132.157 45.2792 132.424 45.7544 132.816 46.184C132.913 46.1554 132.998 46.2201 133.034 46.2604C134.331 48.5788 136.031 50.5733 137.293 52.8527C138.678 55.3546 140.13 57.8223 141.227 60.4704C141.436 60.9757 141.792 61.3356 142.168 61.8399C144.076 66.5922 145.59 71.3463 146.506 76.2785C146.63 76.946 146.729 77.618 146.855 78.4257C146.768 78.7591 146.715 78.9673 146.714 79.2986C146.76 79.7101 146.794 80.0115 146.806 80.4341C146.842 80.96 146.859 81.3688 146.986 81.8945C147.153 83.1937 147.145 84.3699 147.148 85.6835C147.173 86.559 147.166 87.297 147.15 88.1727C147.132 88.9463 147.146 89.5832 147.058 90.3467C146.464 91.3387 146.932 92.422 146.513 93.317C146.766 92.8404 146.648 92.2887 146.752 91.7819C146.803 91.5336 146.877 91.2387 147.199 91.2578C147.521 91.2768 147.611 91.5844 147.595 91.8337C147.546 92.6094 147.442 93.3816 147.481 94.2812C147.416 94.5443 147.332 94.6723 147.13 94.8461C146.749 95.0442 146.506 95.221 146.432 95.5592C146.399 95.7116 146.389 95.865 146.393 96.02C146.402 95.8349 146.424 95.652 146.541 95.3803C146.773 95.0284 147.08 94.9286 147.367 94.6197C147.437 93.3829 147.687 92.2533 147.615 90.9837C148.329 89.5705 148.465 88.21 148.233 86.7643C148.109 85.9987 148.057 85.1965 148.45 84.3355C147.978 75.6014 145.66 67.4441 142.538 59.4022C140.115 53.1598 136.789 47.5925 132.415 42.4573C132.234 41.982 132.201 41.6095 132.709 41.3076C136.243 45.0389 139.075 49.1873 141.744 53.4586C142.234 54.2424 143.067 54.7883 143.465 55.7845C143.781 56.0635 144.041 56.2457 144.149 56.5616C144.198 56.5154 144.082 56.8759 144.266 56.6014C144.364 56.4557 144.207 56.6416 144.256 56.3321C144.306 56.1678 144.339 56.1049 144.457 55.9806C145.693 57.7157 146.402 59.7217 147.329 61.7514C148.453 63.1284 148.562 64.7901 149.2 66.3692C149.374 66.8673 149.494 67.256 149.631 67.7688C150.546 71.0354 151.105 74.2627 152.06 77.5247C152.18 78.0809 152.167 78.52 152.212 79.0877C152.548 81.1683 152.821 83.1218 152.827 85.2357C152.822 85.5452 152.82 85.7214 152.823 86.0282C152.981 88.3914 153.075 90.6232 152.715 92.9775C152.414 94.5445 152.498 96.0248 152.19 97.5891C152.17 97.9699 152.148 98.2222 152.084 98.5938C151.797 99.7136 151.716 100.747 151.469 101.863C151.374 102.32 151.208 102.655 151.341 103.127C151.403 103.445 151.409 103.658 151.357 103.978C151.174 104.465 150.933 104.83 151.071 105.382C151.077 105.555 151.074 105.624 151.054 105.794C150.982 106.089 150.896 106.272 150.78 106.547C150.722 106.698 150.7 106.759 150.65 106.912C150.505 107.387 150.564 107.766 150.667 108.246C150.726 108.863 150.198 108.993 149.979 109.447C149.922 109.671 149.896 109.801 149.855 110.03C149.818 110.191 149.8 110.255 149.749 110.41C149.619 110.747 149.637 110.994 149.714 111.335C149.712 111.487 149.702 111.547 149.645 111.682C149.497 111.809 149.391 111.832 149.207 111.795C149.135 111.78 149.029 111.885 148.987 111.949C148.945 112.013 148.871 112.151 148.835 112.225C148.775 112.348 148.751 112.398 148.688 112.524C148.572 112.759 148.498 112.92 148.395 113.172C148.224 113.552 148.097 113.848 147.982 114.254C147.934 114.411 147.913 114.474 147.861 114.629C147.713 115.026 147.659 115.349 147.516 115.747C147.325 116.049 147.127 116.222 146.931 116.522C146.714 116.889 146.56 117.179 146.385 117.568C146.199 117.947 146.102 118.252 146.031 118.667C145.988 118.825 145.966 118.887 145.898 119.035C145.813 119.175 145.774 119.227 145.6 119.419C145.221 119.76 144.962 119.946 144.71 120.284C144.483 120.585 144.37 120.823 144.411 121.219C144.398 121.807 144.019 122.081 143.739 122.524C143.642 122.727 143.596 122.845 143.529 123.051C143.484 123.194 143.464 123.251 143.408 123.388C143.318 123.574 143.264 123.679 143.172 123.862C143.105 123.992 143.076 124.043 142.996 124.166C142.909 124.283 142.872 124.328 142.724 124.506C142.54 124.728 142.47 124.819 142.358 124.987C142.285 125.113 142.257 125.163 142.186 125.291C142.085 125.472 142.028 125.576 141.93 125.763C141.857 125.899 141.825 125.953 141.742 126.087C141.614 126.271 141.538 126.375 141.405 126.561C140.9 127.149 140.565 127.74 140.072 128.328C140.088 128.545 139.665 128.465 139.919 128.595C140.193 128.306 140.399 128.388 140.628 128.678C139.003 131.893 136.529 134.404 134.253 137.045C130.966 140.858 126.797 143.732 123.05 147.056C118.185 151.373 112.37 154.243 106.333 156.376C100.795 158.333 95.0758 159.953 89.0281 160.504C88.7499 160.822 88.5095 160.863 88.1179 160.751C87.7792 160.707 87.5576 160.721 87.2288 160.764C86.861 160.899 86.5983 160.986 86.2193 160.844C85.5793 160.848 85.0342 160.894 84.353 160.921C84.181 160.848 84.145 160.795 84.0831 160.652C83.7823 160.41 84.2608 159.85 83.5857 159.829C82.9953 159.413 82.4499 159.408 81.7768 159.61C81.0482 159.833 80.3997 159.654 79.8328 159.851C79.8591 160.004 79.8226 160.07 79.6876 160.2C79.5127 160.293 79.4363 160.321 79.2372 160.375C77.6251 160.451 76.1358 160.486 74.5189 160.347C73.9686 160.218 73.6342 159.895 73.0604 159.844C72.3178 159.816 71.6976 159.869 71.0979 159.744C70.5608 159.633 69.9324 159.543 70.2024 158.634C70.7498 158.395 71.1991 158.428 71.7772 158.523C72.5117 158.622 73.1203 158.579 73.8511 158.592C74.3932 158.667 74.852 158.432 75.0225 158.561C74.964 158.55 74.6414 158.596 74.2111 158.582C73.5258 158.582 72.9596 158.583 72.2729 158.58C71.6901 158.449 71.2167 158.413 70.6222 158.401C70.2742 158.353 70.0529 158.272 69.7042 158.232C69.4295 158.216 69.2716 158.208 68.9923 158.194C67.0142 157.815 65.1361 157.541 63.2003 156.953C62.4315 156.618 61.6874 156.445 61.3704 155.566C61.3536 155.202 61.71 155.227 61.6951 155.004C61.6934 154.979 61.4305 154.969 61.181 154.955C60.3896 154.739 59.7279 154.451 58.9003 154.369C58.7235 154.34 58.6536 154.325 58.4815 154.278C57.9322 154.057 57.5038 153.821 56.9324 153.666C56.5083 153.518 56.177 153.499 55.7341 153.596C54.4433 153.437 53.4525 152.729 52.2223 152.36C51.8782 152.147 51.6696 151.94 51.3675 151.677C50.9106 151.166 50.3672 150.919 49.9312 150.388C49.5049 149.447 48.7576 149.044 47.9422 148.861C46.9565 148.639 46.0904 148.2 45.1351 147.66C44.0549 147.002 43.153 146.221 41.8095 146.137C41.6302 146.097 41.5599 146.075 41.3911 146.005C40.5687 145.257 39.6567 144.792 38.8654 144.006C36.1561 142.147 33.5253 140.361 31.1996 138.022C31.0263 137.315 30.4716 137.005 30.1147 136.424C28.9561 134.513 27.9359 132.636 26.7127 130.904C26.1808 130.15 26.6873 129.512 26.2592 128.639C30.0861 131.003 32.4295 134.895 36.8882 136.123C37.1599 136.16 37.2188 136.199 37.3632 136.301C38.7859 137.664 39.9608 139.119 41.3466 140.461C41.3924 140.506 41.456 140.528 41.4067 140.49C40.6533 139.311 39.8991 138.206 38.9079 137.151C38.735 136.543 38.7169 135.99 38.2674 135.492C38.3497 134.521 38.0592 133.78 37.4795 133.124C36.733 132.28 36.3876 131.25 36.1678 130.171C36.0812 129.746 35.7152 129.227 36.2976 128.927C36.8112 128.662 37.3545 128.61 37.9024 129.029C38.6836 129.626 39.53 130.138 40.4221 130.762C40.4978 130.952 40.5308 131.056 40.6451 131.216C40.7453 131.377 40.8034 131.468 40.9168 131.616C40.9693 131.675 41.0768 131.79 41.1282 131.849C41.2444 131.987 41.3164 132.061 41.462 132.167C41.624 132.252 41.7199 132.297 41.8878 132.383C41.9971 132.465 42.0346 132.506 42.0898 132.629C42.1105 132.823 42.1291 132.933 42.2218 133.101C43.0416 133.779 43.8028 134.396 44.6581 135.061C45.2975 135.633 46 135.911 46.7164 136.359C46.9594 136.526 47.1105 136.648 47.3788 136.702C47.5043 136.663 47.5478 136.632 47.6476 136.543C47.7415 136.447 47.7792 136.409 47.9585 136.365C48.1302 136.459 48.1603 136.559 48.3438 136.693C48.7029 136.678 48.8902 136.711 49.1037 136.938C52.9423 138.537 56.8422 139.764 60.2847 142.098C61.2572 142.757 62.7335 142.469 63.9996 142.915C69.3913 144.814 74.9438 146.019 80.7173 145.95C83.1789 145.92 85.6237 145.764 88.1983 145.395C88.7715 145.532 89.222 145.476 89.7761 145.529C90.0287 145.611 90.1507 145.697 90.2841 145.922C90.2652 146.264 90.1163 146.413 89.8055 146.539C89.5823 146.611 89.4279 146.549 89.3285 146.68C89.4057 146.631 89.4908 146.604 89.683 146.589C89.9895 146.523 90.1936 146.456 90.5117 146.368C94.0636 145.965 97.3666 145.059 100.677 143.735C101.183 143.583 101.597 143.511 102.065 143.288C102.21 143.217 102.268 143.188 102.412 143.12C102.613 143.03 102.728 142.98 102.926 142.889C103.066 142.823 103.123 142.798 103.267 142.74C103.593 142.634 103.833 142.566 104.149 142.421C104.537 142.249 104.844 142.128 105.113 141.768C105.238 141.65 105.292 141.606 105.438 141.515C105.892 141.331 106.348 141.335 106.508 140.74C107.104 139.915 108.05 139.857 108.835 139.316Z" fill="#B75919"/>
<path d="M42.5226 42.7292C43.2618 41.9978 43.933 41.3902 44.7071 40.7576C45.2532 40.2547 45.8625 39.9753 46.3643 39.4328C46.5419 39.3343 46.5982 39.2528 46.6014 39.1349C46.5778 39.1814 46.5541 39.2279 46.4645 39.3294C45.9492 39.655 45.5221 39.9678 44.9053 40.1149C40.4127 41.3727 37.124 44.3497 33.7145 47.1613C31.0775 49.3358 29.3427 52.2065 27.3696 55.0381C26.8634 56.5659 26.0321 57.8211 25.4306 59.275C23.7209 61.3241 23.0127 63.817 21.8431 66.1898C21.5604 66.4654 21.341 66.4342 21.0655 66.1683C20.8882 65.5009 21.0362 64.9603 21.1675 64.3054C21.3831 63.7077 21.8323 63.3756 22.0023 62.7594C22.1717 62.0205 22.5768 61.4708 22.625 60.6966C22.6495 60.3722 22.6832 60.1588 22.7521 59.8447C22.6248 59.4465 23.8702 58.7411 22.41 58.7511C22.2442 58.5785 22.205 58.4448 22.2079 58.196C22.4062 57.6377 22.6567 57.2079 22.7116 56.6012C22.8489 55.9124 23.3473 55.3601 22.8401 54.6251C22.7019 54.242 22.679 53.9499 22.7036 53.5437C22.7351 53.3633 22.7539 53.2928 22.8186 53.1237C23.3527 52.4352 23.8875 51.8824 24.3543 51.1433C24.6934 50.6753 25.0451 50.3417 25.2583 49.7894C25.6932 48.8857 26.6556 48.4824 26.8841 47.4298C27.4196 46.4075 28.2124 45.6816 28.7158 44.6421C28.8364 44.4506 28.9134 44.3507 29.0646 44.2165C29.1247 44.1708 29.2474 44.1239 29.2474 44.1239C29.2474 44.1239 29.1795 44.0108 29.1105 44.0461C28.6601 44.1034 28.267 44.0933 27.9382 44.5347C27.7014 44.7428 27.5222 44.8515 27.255 45.0158C26.4549 45.5013 25.7738 45.9619 25.4223 46.8861C25.1009 47.298 24.7015 47.4198 24.275 47.6763C24.1316 47.7457 24.073 47.7692 23.924 47.8123C23.6568 47.8519 23.4822 47.8797 23.2585 48.0353C23.1435 48.1344 23.0977 48.1756 22.9782 48.2752C22.5856 48.5468 22.2306 48.7044 21.8604 49.0168C21.4731 49.2711 21.0266 49.2783 20.8579 49.8111C20.7947 49.9669 20.7673 50.0293 20.6865 50.1806C20.4979 50.4339 20.3307 50.5558 20.0393 50.6742C19.4946 50.772 19.006 50.6961 18.5928 51.1636C18.4088 51.4057 18.285 51.5681 18.0564 51.7747C17.6053 51.8441 17.4845 51.6224 17.4062 51.2167C18.2822 49.5241 19.216 47.9195 20.1785 46.209C20.3777 45.4037 20.8067 44.838 21.2267 44.1461C21.4023 43.8466 21.5781 43.672 21.6425 43.4256C21.3546 43.4124 21.2651 43.6737 21.0194 43.8945C20.2702 44.3768 20.0589 45.2128 19.3193 45.6968C18.9008 46.0171 18.7675 46.6329 18.046 46.3312C18.9385 44.0872 20.9362 42.539 21.8977 40.2217C21.8747 39.9698 21.8888 39.8366 22.0416 39.6462C24.2027 37.1078 26.1909 34.5516 28.6927 32.3212C29.0377 31.5598 29.5159 31.0416 30.1548 30.5234C30.3244 30.3589 30.4247 30.2706 30.6114 30.1336C30.7468 30.0453 30.8034 30.0143 30.9436 30.0324C32.7249 29.0849 34.0056 27.5068 35.8824 26.5764C36.1262 26.0891 36.3469 25.7221 36.863 25.4701C38.4744 24.7734 39.5562 23.4098 41.2492 22.9074C42.3406 22.3822 43.3274 21.8322 44.3993 21.2142C44.9468 20.36 45.7664 20.1242 46.5322 19.7896C47.4367 19.3943 48.4405 19.1872 49.2572 18.3794C49.4044 18.2713 49.4663 18.2329 49.6331 18.1663C50.2888 18.191 50.8402 18.2484 51.4165 17.8618C51.5458 17.7736 51.5951 17.7372 51.713 17.6439C51.863 17.5059 51.9365 17.4183 52.0351 17.2455C52.115 17.065 52.1729 16.9691 52.3134 16.8333C54.2629 15.7175 56.447 15.5307 58.539 14.7094C58.8473 14.8881 58.8712 15.0972 58.7375 15.4128C58.5927 15.545 58.5067 15.5809 58.42 15.6156C58.2248 15.6938 58.4091 15.4737 58.2883 15.6451C58.225 15.7347 58.2813 15.7538 58.486 15.6395C59.2266 15.5804 59.6495 15.9539 60.0603 16.5236C60.1759 16.9537 59.8879 17.2056 59.9247 17.6369C60.8345 17.4151 61.6739 17.0601 62.6221 16.6875C62.7944 16.6287 62.8649 16.6101 63.0424 16.6149C63.2739 16.6568 63.3983 16.6754 63.6124 16.6641C63.887 16.5204 64.0618 16.3928 64.3122 16.185C64.7677 16.3261 65.7654 15.5608 65.4477 16.895C65.3344 17.3706 65.9955 17.0281 66.4278 17.0342C67.224 16.698 67.28 17.1409 67.3046 17.7238C67.3176 18.07 67.3511 18.3003 67.7736 18.2991C68.4419 18.2109 69.0243 18.2288 69.6979 18.0479C70.1254 17.9903 70.4419 17.9974 70.8757 17.9915C71.2721 18.1534 71.6139 18.1743 71.8951 18.5344C72.3109 19.383 73.1639 19.0125 73.7727 19.4515C73.9067 20.0356 73.6001 20.2033 73.0193 20.2199C72.4827 21.0855 73.5493 20.8529 73.766 21.3623C74.0773 21.4309 74.3078 21.4392 74.6498 21.4775C75.27 22.0703 74.8091 22.4318 74.451 22.9256C74.3321 23.2909 74.2508 23.5532 74.0915 23.8891C73.9298 24.1213 73.8559 24.2828 73.8877 24.5571C74.2984 25.0065 74.0063 25.2425 73.6636 25.5415C73.5851 25.7197 73.2384 25.5481 73.4637 25.8394C74.1495 27.4498 72.3972 26.415 72.0827 27.1371C71.8098 27.2921 71.6409 27.3611 71.3213 27.3942C70.6366 27.5402 70.0917 27.6275 69.4368 27.2702C68.8615 27.0887 68.4307 27.1346 67.92 27.4137C67.334 28.7336 66.5645 29.3221 65.1101 28.5197C64.9406 28.556 64.8807 28.602 64.7089 28.6656C64.2274 29.0791 63.7914 29.0484 63.2282 28.8365C62.6764 29.2457 61.7152 28.8813 61.4813 29.886C61.2297 30.4396 60.9542 30.8375 60.6152 31.3033C59.79 31.4266 59.0544 31.4965 58.1789 31.5594C57.6138 32.0439 56.9734 32.2128 56.402 32.659C56.2933 32.7752 56.2583 32.8283 56.1291 33.0417C55.9805 33.3115 55.9306 33.4229 55.8573 33.624C55.7894 33.8289 55.7393 33.9418 55.6234 34.1251C55.4245 34.3238 55.2626 34.4191 55.0265 34.5726C54.7407 34.7749 54.5509 34.9459 54.2834 35.1805C53.5344 35.5897 53.0017 36.1849 52.125 36.3683C51.7679 36.8061 51.5097 37.2119 51.1733 37.8776C49.9038 38.3644 49.6513 39.6464 48.7243 40.2211C46.8476 41.3844 44.9129 42.425 42.8198 43.3531C42.5289 43.2128 42.4448 43.0585 42.5226 42.7292Z" fill="#B75919"/>
<path d="M38.1094 135.416C39.3984 135.328 39.0905 136.17 39.084 136.952C38.3935 137.37 38.0541 136.697 37.4306 136.51C37.2026 136.407 37.1055 136.308 36.9654 136.103C36.8926 136.026 36.9145 136.025 36.9103 136.035C37.0962 135.027 36.12 134.892 35.6214 134.476C32.116 131.551 28.9049 128.333 25.9247 124.884C25.3125 124.175 24.8381 123.348 24.2087 122.481C24.0792 122.524 24.0204 122.562 23.9408 122.5C23.862 122.439 23.8499 122.353 23.9968 122.283C23.6659 121.397 23.2427 120.471 22.7562 119.437C22.5516 118.865 22.4439 118.403 22.921 118.013C24.215 118.316 24.442 119.589 25.42 120.219C25.5142 120.161 25.4676 120.117 25.4932 120.011C25.5198 119.718 25.4743 119.488 25.4086 119.143C25.716 118.661 26.1147 118.636 26.6763 118.881C28.0921 124.119 31.4146 127.998 34.8129 131.819C35.8792 133.018 36.6301 134.496 38.1094 135.416Z" fill="#B75919"/>
</svg>
