<svg width="224" height="226" viewBox="0 0 224 226" fill="none" xmlns="http://www.w3.org/2000/svg">
<path d="M113.503 59.0926C124.915 56.6903 139.041 63.9799 146.61 76.1769C161.472 100.126 146.715 131.465 118.746 135.354C117.283 135.558 115.825 135.792 113.931 135.486C113.499 127.651 113.499 120.342 113.888 112.954C117.662 114.255 121.049 115.635 124.45 117.025C124.464 117.034 124.482 117.062 124.259 117.391C126.188 118.814 128.341 119.909 130.628 121.149C131.288 121.34 131.815 121.384 132.753 121.564C135.837 122.221 136.644 121.056 136.616 118.441C136.465 104.291 136.449 90.1397 136.465 75.6911C135.916 75.2753 135.289 75.1572 134.3 75.1322C127.305 79.4545 120.371 78.9232 113.369 76.0278C113.446 70.0505 113.474 64.5716 113.503 59.0926Z" fill="#C91544"/>
<path d="M113.096 59.0036C113.474 64.5715 113.446 70.0505 113.008 75.9802C105.242 76.4311 97.8841 76.4311 90.1239 76.4311C90.1239 90.4862 90.1239 105.787 89.9716 121.08C89.8193 121.072 89.5216 121.006 89.3489 121.105C89.3264 121.484 89.4766 121.763 89.8936 122.271C91.9865 122.018 93.8127 121.536 96.0022 121.051C98.9916 119.484 101.514 117.697 104.272 116.416C107.233 115.04 110.415 114.141 113.5 113.034C113.499 120.342 113.499 127.651 113.502 135.42C111.758 135.744 110.01 135.608 107.658 135.25C106.861 135.021 106.669 135.014 106.477 135.006C91.4716 132.189 81.032 123.57 76.3385 109.194C71.6896 94.9533 73.9345 81.8354 84.7956 70.4133C90.4122 64.5066 96.6701 60.4813 104.464 58.8695C107.09 58.3264 109.941 58.8685 113.096 59.0036ZM89.7856 74.5622C89.9585 74.6476 90.1313 74.7329 90.3042 74.8183C90.2679 74.6253 90.2315 74.4323 89.7856 74.5622Z" fill="#D21847"/>
<path d="M54.4605 146.94C51.3017 146.941 48.6044 146.702 45.9868 147.054C44.8088 147.213 43.7899 148.553 42.6987 149.357C42.9505 149.882 43.2022 150.407 43.4539 150.932C47.3633 150.932 51.2727 150.932 55.3566 150.932C55.3566 153.386 55.3566 155.309 55.3566 157.733C51.3874 157.733 47.6411 157.733 43.4689 157.733C43.2937 161.605 43.1399 165.006 42.9752 168.646C40.2645 168.646 37.8249 168.646 34.9715 168.646C34.9715 159.118 34.9715 149.552 34.9715 139.57C49.6859 139.57 64.5655 139.57 79.8441 139.57C79.8441 141.753 79.8441 143.957 79.8441 146.746C76.6102 146.746 73.4787 146.598 70.3761 146.833C69.4152 146.906 68.5331 148.018 67.6149 148.654C68.5575 149.3 69.4221 150.243 70.4626 150.517C71.7099 150.845 73.1274 150.753 74.4361 150.579C79.1163 149.957 80.5588 152.052 79.3535 156.542C75.9837 158.651 70.3381 155.062 67.2999 158.679C67.5243 159.429 67.7488 160.179 67.9733 160.929C73.6059 160.929 79.2397 160.997 84.8709 160.903C88.1542 160.848 89.5345 158.995 89.4635 155.715C89.3487 150.419 89.4326 145.119 89.4326 139.492C92.5843 139.492 95.3354 139.492 98.5132 139.492C98.5132 146.038 99.0907 152.691 98.3238 159.185C97.7481 164.06 94.24 167.905 88.9389 168.113C79.516 168.482 70.0681 168.216 60.1788 168.216C60.1788 161.551 60.1788 154.612 60.1788 146.94C58.1418 146.94 56.5481 146.94 54.4605 146.94Z" fill="#5A5A5C"/>
<path d="M157.457 167.989C155.011 168.393 152.566 168.796 149.406 169.318C149.406 164.147 149.406 159.665 149.406 155.183C149.008 155.035 148.61 154.886 148.212 154.737C146.435 156.932 144.657 159.126 142.629 161.629C140.555 159.195 138.697 157.016 135.854 153.681C135.854 159.437 135.854 163.865 135.854 168.733C132.737 168.733 130.32 168.733 127.87 168.257C127.685 167.511 127.534 167.241 127.382 166.97C127.304 158.627 127.227 150.284 127.443 141.412C127.827 140.795 128.011 140.66 127.994 140.627C127.886 140.413 127.734 140.222 127.597 140.024C131.732 138.379 135.408 138.222 138.083 142.688C139.158 144.483 140.726 145.983 142.442 148.07C146.636 143.589 149.271 136.83 157.036 139.805C157.245 140.52 157.412 140.77 157.578 141.02C157.655 149.366 157.732 157.712 157.526 166.597C157.158 167.23 156.983 167.381 157.002 167.412C157.131 167.618 157.3 167.799 157.457 167.989Z" fill="#575759"/>
<path d="M168.898 153.159C168.811 157.081 170.029 160.181 173.579 160.847C176.104 161.32 178.904 160.329 181.654 159.155C178.822 157.453 175.289 156.995 177.677 152.535C182.112 152.535 186.67 152.535 191.199 152.535C192.015 160.599 187.595 167.08 179.98 169.301C173.14 171.295 165.698 167.85 162.021 160.987C158.548 154.505 160.376 146.687 166.502 141.821C172.73 136.874 179.64 137.098 186.025 142.557C183.679 145.485 181.822 148.465 176.885 147.114C172.782 145.992 169.943 148.504 168.898 153.159Z" fill="#5A5A5C"/>
<path d="M111.348 150.396C114.984 150.516 118.13 150.516 121.696 150.516C121.696 152.707 121.696 154.58 121.696 157.114C119.506 157.114 117.211 156.885 114.989 157.189C113.309 157.418 111.722 158.329 110.094 158.936C111.793 159.624 113.44 160.645 115.202 160.918C117.436 161.263 119.764 161.001 122.304 161.001C122.304 163.755 122.304 166.009 122.304 168.587C115.462 168.587 108.732 168.587 101.724 168.587C101.724 158.9 101.724 149.33 101.724 139.472C108.563 139.472 115.281 139.472 122.232 139.472C122.232 141.892 122.232 144.003 122.232 146.748C119.052 146.748 115.938 146.743 112.824 146.749C110.08 146.755 109.049 147.727 111.348 150.396Z" fill="#59595B"/>
<path d="M157.594 167.749C157.3 167.799 157.131 167.618 157.002 167.411C156.983 167.381 157.158 167.23 157.419 167.053C157.641 167.151 157.686 167.33 157.594 167.749Z" fill="#474749"/>
<path d="M127.318 167.239C127.534 167.241 127.685 167.511 127.672 167.89C127.423 167.834 127.339 167.671 127.318 167.239Z" fill="#4A4A4B"/>
<path d="M157.629 140.752C157.412 140.77 157.245 140.52 157.221 140.154C157.469 140.186 157.574 140.335 157.629 140.752Z" fill="#474749"/>
<path d="M127.436 140.253C127.734 140.222 127.886 140.413 127.994 140.627C128.011 140.66 127.827 140.795 127.56 140.957C127.346 140.849 127.31 140.665 127.436 140.253Z" fill="#4A4A4B"/>
<path d="M106.595 135.128C106.669 135.014 106.861 135.021 107.341 135.036C107.324 135.112 107.018 135.181 106.595 135.128Z" fill="#C91544"/>
<path d="M90.1239 121.088C90.1239 105.787 90.1239 90.4862 90.1239 76.4311C97.8841 76.4311 105.242 76.4311 112.96 76.4785C120.371 78.9231 127.305 79.4545 134.523 75.2372C135.534 75.4957 135.96 75.7422 136.387 75.9886C136.449 90.1396 136.465 104.291 136.616 118.441C136.644 121.056 135.837 122.221 132.549 121.433C131.454 121.111 130.974 121.057 130.494 121.002C128.341 119.908 126.188 118.814 124.467 116.95C127.574 117.122 130.251 118.064 133.354 119.156C133.354 112.091 133.337 105.789 133.358 99.486C133.38 93.0113 133.439 86.5366 133.465 79.9082C133.357 79.4269 133.141 79.2548 132.445 79.4563C117.644 84.4013 117.014 84.7951 115.719 89.5988C119.632 88.9229 123.705 88.2193 128.005 87.4766C127.342 98.1336 125.73 100.741 115.198 109.298C117.515 110.399 120.151 111.291 122.326 112.834C123.451 113.632 123.759 115.584 124.436 117.015C121.049 115.635 117.662 114.255 113.888 112.954C110.415 114.141 107.233 115.04 104.272 116.416C101.514 117.697 98.9916 119.484 95.6032 121.03C93.2685 121.037 91.6962 121.062 90.1239 121.088ZM93.2207 117.414C94.2887 117.528 95.3566 117.642 97.0994 117.664C101.805 114.55 106.51 111.436 111.419 108.188C103.274 103.869 100.78 96.5702 100.893 87.9558C102.634 89.7284 103.792 91.8195 104.365 94.0602C106.105 100.87 108.569 103.667 114.3 103.982C120.303 103.675 124.001 98.6914 123.264 90.4817C119.766 92.049 116.632 93.4534 113.082 94.3019C111.617 88.2589 108.383 83.8705 102.041 82.268C99.8122 81.7048 97.6402 80.916 94.7566 79.9245C94.3034 80.2876 93.8503 80.6507 93.1961 81.9317C93.2666 93.6108 93.3371 105.29 93.2207 117.414ZM115.508 80.2813C111.441 79.5551 107.374 78.8289 102.15 77.8963C106.816 81.4798 110.183 84.0651 113.532 86.6375C115.006 85.0078 116.68 83.1569 118.502 81.1424C117.505 80.8623 116.872 80.6843 115.508 80.2813Z" fill="#FAEBEF"/>
<path d="M130.628 121.149C130.974 121.057 131.454 121.111 132.137 121.296C131.815 121.384 131.288 121.34 130.628 121.149Z" fill="#F9E6EA"/>
<path d="M136.465 75.691C135.96 75.7422 135.534 75.4957 134.885 75.1442C135.289 75.1572 135.916 75.2753 136.465 75.691Z" fill="#F9E6EA"/>
<path d="M89.9716 121.08C91.6962 121.062 93.2685 121.037 95.2398 121.032C93.8127 121.536 91.9865 122.018 89.9627 122.002C89.6839 121.338 89.6028 121.172 89.5216 121.006C89.5216 121.006 89.8193 121.072 89.9716 121.08Z" fill="#F9E6EA"/>
<path d="M89.3489 121.105C89.6028 121.172 89.6839 121.338 89.6959 121.773C89.4766 121.763 89.3264 121.484 89.3489 121.105Z" fill="#CE0034"/>
<path d="M89.9904 74.4008C90.2316 74.4323 90.2679 74.6253 90.3042 74.8184C90.1313 74.733 89.9585 74.6476 89.9904 74.4008Z" fill="#F9E6EA"/>
<path d="M113.502 103.929C108.569 103.667 106.105 100.87 104.365 94.0602C103.792 91.8195 102.634 89.7284 100.893 87.9558C100.78 96.5701 103.274 103.869 111.419 108.188C106.51 111.436 101.805 114.55 96.5275 117.488C95.1063 117.198 94.2569 117.083 93.4076 116.969C93.3371 105.29 93.2666 93.6108 93.585 81.4669C94.4634 80.7448 94.9528 80.4875 95.4422 80.2302C97.6402 80.916 99.8122 81.7047 102.041 82.268C108.383 83.8705 111.617 88.2588 113.29 95.0382C113.5 98.4927 113.501 101.211 113.502 103.929Z" fill="#D21948"/>
<path d="M124.45 117.025C123.759 115.584 123.451 113.632 122.326 112.834C120.151 111.291 117.515 110.399 115.198 109.298C125.73 100.74 127.342 98.1336 128.005 87.4766C123.705 88.2193 119.632 88.9229 115.719 89.5988C117.014 84.7951 117.644 84.4013 132.61 79.6661C133.247 79.7925 133.364 79.9272 133.481 80.0619C133.439 86.5366 133.38 93.0113 133.358 99.486C133.337 105.789 133.354 112.091 133.354 119.156C130.251 118.064 127.574 117.122 124.69 116.621C124.482 117.062 124.464 117.034 124.45 117.025Z" fill="#CA1A48"/>
<path d="M113.901 103.955C113.501 101.211 113.5 98.4928 113.498 95.3163C116.632 93.4534 119.766 92.049 123.264 90.4818C124.001 98.6914 120.303 103.675 113.901 103.955Z" fill="#CA1846"/>
<path d="M115.873 80.3938C116.872 80.6843 117.505 80.8623 118.502 81.1424C116.68 83.1569 115.006 85.0078 113.532 86.6375C110.183 84.0651 106.816 81.4797 102.15 77.8962C107.374 78.8289 111.441 79.5551 115.873 80.3938Z" fill="#D2234F"/>
<path d="M93.3141 117.191C94.2569 117.084 95.1063 117.198 96.1901 117.534C95.3566 117.642 94.2887 117.528 93.3141 117.191Z" fill="#CF053C"/>
<path d="M95.0994 80.0774C94.9528 80.4876 94.4634 80.7449 93.6856 81.008C93.8503 80.6507 94.3034 80.2876 95.0994 80.0774Z" fill="#CF053C"/>
<path d="M133.465 79.9082C133.364 79.9272 133.247 79.7925 132.965 79.4479C133.141 79.2548 133.357 79.4269 133.465 79.9082Z" fill="#F9E6EA"/>
</svg>
