<svg width="224" height="226" viewBox="0 0 224 226" fill="none" xmlns="http://www.w3.org/2000/svg">
<path fill-rule="evenodd" clip-rule="evenodd" d="M65.0608 47.2289L60.2864 30.0704C60.1278 29.497 60.3762 28.9026 60.8522 28.602C69.6348 23.1023 79.2251 19.0546 89.2634 16.6106C89.8084 16.4778 90.4018 16.7224 90.6847 17.2398L99.2811 32.7903C103.428 32.1121 107.678 31.7624 112.003 31.7624C116.336 31.7624 120.586 32.119 124.733 32.7972L133.295 17.2958C133.584 16.7784 134.171 16.5337 134.716 16.6665C144.63 19.0438 154.248 23.0083 163.168 28.5461C163.645 28.8467 163.893 29.441 163.734 30.0144L158.946 47.2289C165.831 52.2982 171.896 58.4442 176.898 65.4223L193.829 60.5838C194.395 60.423 194.981 60.6747 195.278 61.1572C200.704 70.0579 204.698 79.7773 207.11 89.9506C207.241 90.503 206.999 91.1043 206.489 91.3909L191.138 100.103C191.807 104.305 192.152 108.612 192.152 112.996C192.152 117.388 191.8 121.695 191.131 125.897L206.427 134.581C206.937 134.875 207.179 135.469 207.048 136.021C204.702 146.069 200.79 155.816 195.326 164.857C195.029 165.339 194.443 165.591 193.877 165.43L176.891 160.578C171.886 167.559 165.828 173.699 158.939 178.771L163.713 195.93C163.872 196.503 163.624 197.097 163.148 197.398C154.365 202.898 144.775 206.945 134.736 209.389C134.191 209.522 133.598 209.277 133.315 208.76L124.719 193.21C120.572 193.888 116.322 194.238 111.997 194.238C107.664 194.238 103.414 193.881 99.2673 193.203L90.7054 208.704C90.4156 209.222 89.8291 209.466 89.2841 209.333C79.3698 206.956 69.7523 202.992 60.8315 197.454C60.5935 197.304 60.4098 197.08 60.3078 196.815C60.2059 196.55 60.1912 196.259 60.2658 195.986L65.0539 178.771C58.1652 173.699 52.1071 167.559 47.1019 160.578L30.1712 165.416C29.6055 165.577 29.019 165.325 28.7223 164.843C23.2956 155.942 19.3017 146.223 16.8901 136.049C16.759 135.497 17.0004 134.896 17.511 134.609L32.8618 125.897C32.1926 121.695 31.8477 117.388 31.8477 113.003C31.8477 108.612 32.1995 104.305 32.8688 100.103L17.5731 91.4189C17.3296 91.2794 17.1373 91.0636 17.0254 90.8038C16.9134 90.544 16.8877 90.2544 16.9522 89.9785C19.2979 79.9309 23.2098 70.1839 28.674 61.1432C28.9707 60.6607 29.5571 60.409 30.1229 60.5699L47.1089 65.4223C52.1108 58.4442 58.1753 52.2982 65.0608 47.2289Z" fill="#BBBDC3"/>
<path fill-rule="evenodd" clip-rule="evenodd" d="M112.003 178.47C147.583 178.47 176.601 149.062 176.601 113.004C176.601 76.9453 147.583 47.5366 112.003 47.5366C76.4239 47.5366 47.4056 76.9453 47.4056 113.004C47.4056 149.062 76.4239 178.47 112.003 178.47Z" fill="#F4F4F6"/>
<path fill-rule="evenodd" clip-rule="evenodd" d="M112.003 174.247C145.292 174.247 172.441 146.733 172.441 112.997C172.441 79.2597 145.292 51.7458 112.003 51.7458C78.7145 51.7458 51.5659 79.2597 51.5659 112.997C51.5659 146.733 78.7145 174.247 112.003 174.247Z" fill="#003E76"/>
<path fill-rule="evenodd" clip-rule="evenodd" d="M148.066 139.811H92.2852V118.527H101.675L104.959 120.142L108.243 118.527H133.798C134.509 118.527 135.081 117.94 135.081 117.227V108.787C135.081 108.067 134.502 107.487 133.798 107.487H118.972L115.681 105.872L112.39 107.487H92.2852V86.2028H148.066C148.777 86.2028 149.349 85.6155 149.349 84.9023V76.4629C149.349 75.7427 148.77 75.1624 148.066 75.1624H75.934C75.2234 75.1624 74.6508 75.7497 74.6508 76.4629V149.558C74.6508 150.278 75.2303 150.859 75.934 150.859H148.066C148.777 150.859 149.349 150.271 149.349 149.558V141.119C149.349 140.398 148.777 139.811 148.066 139.811Z" fill="#F4F4F6"/>
<path fill-rule="evenodd" clip-rule="evenodd" d="M81.8122 189.721C81.6462 190.003 81.3815 190.211 81.0709 190.304C80.7603 190.397 80.4264 190.369 80.1357 190.224C79.5009 189.909 79.2388 189.119 79.5492 188.476L118.972 107.48H112.397L143.305 80.0078C143.713 79.6442 144.32 79.5743 144.809 79.868C145.417 80.2386 145.617 81.0356 145.258 81.6579L81.8122 189.721Z" fill="#C3360E"/>
<path fill-rule="evenodd" clip-rule="evenodd" d="M149.667 42.5512L101.682 118.527H108.243L80.4324 145.985C80.046 146.37 79.4388 146.475 78.9352 146.209C78.6335 146.047 78.4074 145.771 78.3065 145.441C78.2056 145.11 78.2382 144.753 78.397 144.447L134.737 35.9157C135.04 35.3283 135.751 35.0557 136.365 35.3214L149.073 40.6563C149.729 40.929 150.039 41.6981 149.77 42.3624C149.742 42.4183 149.708 42.4882 149.667 42.5512Z" fill="#C3360E"/>
</svg>
