<svg width="224" height="226" viewBox="0 0 224 226" fill="none" xmlns="http://www.w3.org/2000/svg">
<path d="M162.836 135.048C156.35 124.699 152.542 114.081 156.398 102.01C157.621 98.1822 159.477 94.7437 162.23 91.3451C162.736 89.5373 163.722 88.6292 165.371 87.9405C177.764 82.3064 186.839 85.6317 191.615 98.0845C185.083 92.6749 178.715 89.0701 170.714 94.4173C170.235 97.1727 167.789 98.3589 166.988 100.879C161.858 110.364 163.479 119.512 166.993 129.024C167.483 132.458 166.022 134.284 162.836 135.048Z" fill="#429C50"/>
<path d="M162.203 135.232C164.367 134.248 165.321 132.691 166.315 130.789C167.059 125.29 169.666 120.478 169.208 114.937C168.794 109.915 167.067 105.211 166.486 99.8563C166.968 97.4453 168.491 96.2229 170.168 94.8199C176.464 105.184 180.777 115.959 176.408 128.293C175.122 131.924 173.417 135.308 170.671 138.618C170.157 140.481 169.174 141.351 167.492 141.921C156.121 147.509 149.063 145.478 142.302 134.528C142.114 133.898 142.081 133.579 142.296 132.845C150.223 138.926 155.163 139.723 162.203 135.232Z" fill="#FBCA47"/>
<path d="M53.0169 101.892C51.5735 101.675 51.2383 100.931 51.2339 100.063C51.1942 92.0895 51.1745 84.1158 51.1749 76.1422C51.175 75.1826 51.0499 73.8453 52.3969 73.8191C56.9889 73.7297 61.7752 72.7075 65.9129 75.6624C67.9509 77.1178 69.5212 79.7901 68.2334 81.6954C65.6162 85.5678 67.1861 88.1141 68.9739 91.6235C71.0616 95.7216 67.9954 100.295 63.3879 101.492C60.1154 102.341 56.7717 101.787 53.0169 101.892Z" fill="#2A84C3"/>
<path d="M88.4121 97.9748C85.4548 88.4841 88.8936 82.8275 97.0678 83.0944C102.968 83.287 105.885 86.0236 106.393 91.9703C106.548 93.792 106.508 95.6339 106.494 97.466C106.454 102.496 106.252 102.72 101.72 100.715C100.655 100.244 100.324 100.689 99.671 100.982C95.2915 102.948 91.5873 102.109 88.4121 97.9748Z" fill="#358AC6"/>
<path d="M48.2823 111.168C48.2786 118.138 48.4066 124.634 48.2318 131.122C48.0781 136.827 44.2568 140.669 38.9043 140.871C37.8107 140.912 36.2805 141.326 36.1287 139.65C36.003 138.262 37.3664 138.444 38.3179 138.292C42.4417 137.633 43.6304 134.843 43.6079 131.088C43.5669 124.262 43.456 117.432 43.6859 110.614C43.7506 108.697 41.9233 105.26 45.7279 105.096C50.1294 104.906 47.5535 108.732 48.2823 111.168Z" fill="#3D8FC9"/>
<path d="M115.017 114.685C121.341 114.926 124.295 121.439 122.387 127.67C120.916 132.474 114.926 134.708 109.415 132.645C104.57 130.83 102.366 124.798 104.675 119.645C106.633 115.274 110.433 114.548 115.017 114.685Z" fill="#2F86C5"/>
<path d="M65.5281 118.338C65.563 116.286 65.1039 114.407 67.7767 114.448C70.3842 114.489 70.0264 116.345 70.0363 117.965C70.0495 120.121 70.1312 122.289 69.9429 124.431C69.4163 130.418 66.0564 133.336 60.0645 133.175C54.3095 133.021 51.5437 130.141 51.3572 124.004C51.2816 121.518 51.3661 119.028 51.3524 116.539C51.3444 115.08 52.0606 114.474 53.4894 114.469C54.95 114.464 55.5768 115.125 55.57 116.57C55.5558 119.556 55.4435 122.553 55.6612 125.524C55.8813 128.528 56.801 131.107 60.6835 130.912C64.3735 130.727 65.4331 128.419 65.505 125.247C65.5538 123.092 65.5237 120.934 65.5281 118.338Z" fill="#2580C1"/>
<path d="M117.688 99.1999C119.451 97.2427 118.81 95.9096 117.126 94.9088C116.28 94.4061 115.313 94.1012 114.387 93.7398C111.686 92.6848 109.009 91.4989 108.921 88.0673C108.85 85.3064 110.798 83.7954 113.166 83.2242C116.504 82.4187 119.914 82.1192 122.644 85.8343C120.164 86.6445 118.559 84.8822 116.666 84.9549C115.071 85.0161 113.442 85.1914 112.847 86.7062C112.119 88.5595 113.848 89.2734 115.148 89.9449C116.471 90.6286 117.884 91.1357 119.24 91.7582C121.585 92.8344 122.895 94.5485 122.561 97.2591C122.226 99.9816 120.383 101.287 117.988 101.867C115.048 102.579 112.165 102.323 108.757 100.86C111.868 98.7777 114.94 101.126 117.688 99.1999Z" fill="#358AC6"/>
<path d="M141.795 98.7605C143.062 99.4425 144.819 99.3281 144.284 101.019C143.889 102.268 142.606 101.682 141.69 101.477C137.5 100.536 134.738 98.0113 134.494 93.6675C134.167 87.8611 134.305 82.0291 134.21 76.2087C134.184 74.6798 134.516 73.6739 136.359 73.6142C138.579 73.5423 138.678 74.8687 138.666 76.5151C138.63 81.507 138.692 86.4997 138.64 91.4914C138.611 94.2675 139.014 96.8113 141.795 98.7605Z" fill="#2A84C3"/>
<path d="M77.105 84.3865C79.8884 83.6008 82.3162 82.3566 84.8628 83.5078C84.9062 85.1288 83.9791 85.1418 83.2002 85.1669C78.5487 85.3171 76.798 87.9829 76.8594 92.3144C76.8946 94.804 76.8456 97.2947 76.85 99.7849C76.8525 101.181 76.2628 101.984 74.7822 101.926C73.8271 101.889 72.8787 102.082 72.3102 100.852C70.4978 96.9314 72.9994 87.6144 77.105 84.3865Z" fill="#2F86C5"/>
<path d="M134.866 114.874C136.498 114.549 137.822 113.988 138.87 115.798C136.478 117.251 132.785 116.177 131.398 119.537C130.208 122.417 130.976 125.429 130.544 128.333C130.286 130.075 132.225 133.17 128.442 133.219C124.326 133.272 126.111 129.904 126.071 128.061C125.873 118.969 127.739 116.239 134.866 114.874Z" fill="#2A84C3"/>
<path d="M95.5889 120.175C95.5941 118.541 95.5878 117.376 95.6075 116.211C95.6332 114.694 96.5925 114.254 97.9165 114.234C99.2574 114.213 100.24 114.686 100.25 116.174C100.285 121.166 100.254 126.16 100.281 131.153C100.289 132.614 99.6027 133.269 98.1797 133.288C96.6868 133.308 95.5683 132.995 95.5915 131.128C95.635 127.634 95.5944 124.138 95.5889 120.175Z" fill="#3F90C9"/>
<path d="M167.317 142.262C168.129 140.997 169.106 140.052 170.268 139.048C174.36 146.244 179.653 152.566 184.33 159.749C176.877 156.133 172.656 148.896 167.317 142.262Z" fill="#49A056"/>
<path d="M126.199 101.183C125.92 95.8475 125.861 90.8896 125.814 85.9316C125.799 84.3922 125.787 82.9526 128.005 82.8632C130.465 82.7641 130.584 84.2428 130.568 86.0538C130.531 90.1881 130.438 94.3277 130.597 98.4563C130.723 101.754 129.403 102.661 126.199 101.183Z" fill="#3B8DC8"/>
<path d="M165.555 87.5227C164.774 88.8786 163.835 89.8725 162.665 90.9482C158.81 84.4588 154.187 78.5783 149.637 72.2729C149.37 71.5115 149.44 71.153 150.139 70.9701C156.785 75.1741 160.755 81.4795 165.555 87.5227Z" fill="#FBCD50"/>
<path d="M84.7164 116.593C78.7159 117.26 77.6845 118.315 77.5853 124.071C77.5453 126.389 77.5507 128.707 77.5651 131.026C77.574 132.444 76.9731 133.186 75.4917 133.132C74.4837 133.096 73.2713 133.153 73.2682 131.805C73.258 127.375 72.2819 122.772 74.6207 118.648C76.5888 115.179 79.9573 114.482 84.0818 114.959C84.8484 115.389 84.9746 115.813 84.7164 116.593Z" fill="#2A84C3"/>
<path d="M84.8274 117.109C84.5166 116.476 84.5098 116.065 84.5013 115.346C88.9741 115.081 91.1221 117.69 91.5965 121.806C91.9187 124.602 91.8642 127.443 91.9613 130.264C92.017 131.883 91.86 133.23 89.6298 133.169C87.2967 133.106 87.5394 131.544 87.5295 130.054C87.5141 127.726 87.4682 125.397 87.5239 123.07C87.5787 120.778 86.9901 118.802 84.8274 117.109Z" fill="#2C85C4"/>
<path d="M62.1618 110.406C60.51 110.837 59.3262 112.274 57.256 110.624C59.0196 109.3 60.6214 108.069 62.2541 106.881C63.5463 105.94 64.8842 104.486 66.0844 107.018C67.203 109.378 65.0115 109.232 63.9137 109.874C63.5051 110.113 62.9731 110.142 62.1618 110.406Z" fill="#3F90C9"/>
<path d="M130.494 78.0998C128.343 79.9711 126.546 79.9633 125.61 77.4117C124.913 75.5103 125.968 73.9314 127.93 73.8715C130.438 73.7948 131.509 75.2884 130.494 78.0998Z" fill="#2F86C5"/>
<path d="M99.0671 110.483C95.9131 111.136 94.6513 109.781 95.1991 107.112C95.5211 105.544 97.0327 104.518 98.5864 105.237C101.054 106.378 101.326 108.25 99.0671 110.483Z" fill="#3B8DC8"/>
<path d="M145.461 66.6509C141.409 65.5968 139.387 62.081 137.145 58.7789C140.575 60.5609 143.483 62.9026 145.461 66.6509Z" fill="#FCE5A4"/>
<path d="M150.38 70.7246C150.201 71.2042 149.99 71.3788 149.697 71.7648C147.674 71.7029 147.024 70.2525 146.488 68.3505C148.211 68.0965 149.83 68.3363 150.38 70.7246Z" fill="#FCE5A4"/>
<path d="M142.484 132.138C142.487 132.731 142.432 133.031 142.261 133.775C140.316 133.307 139.99 131.629 139.508 129.734C141.704 129.303 141.703 131.025 142.484 132.138Z" fill="#FCE5A4"/>
<path d="M145.488 67.008C145.816 67.0878 146.089 67.2622 146.403 67.7645C146.509 67.9878 146.498 68.0022 146.489 68.0093C146.201 67.8366 145.921 67.6568 145.582 67.2247C145.522 66.9724 145.501 66.9978 145.488 67.008Z" fill="#FCE5A4"/>
<path d="M184.428 160.05C184.405 160.045 184.585 160.202 184.585 160.202C184.585 160.202 184.531 159.959 184.501 160.03C184.471 160.101 184.451 160.055 184.428 160.05Z" fill="#49A056"/>
<path d="M188.006 163.508C187.987 163.508 188.026 163.507 188.006 163.508V163.508Z" fill="#49A056"/>
<path d="M166.172 99.6982C171.355 109.545 172.846 119.7 166.72 130.256C161.612 120.423 160.031 110.255 166.172 99.6982Z" fill="#E2BDA3"/>
<path d="M64.2244 97.6812C61.7041 100.065 58.6188 101.457 56.526 98.9763C54.2312 96.2555 55.0352 92.2158 55.9912 88.958C56.5022 87.2168 58.9558 88.3678 60.5199 88.5838C63.0856 88.9381 64.8013 90.3678 65.242 93.0086C65.4951 94.5249 65.1745 95.9917 64.2244 97.6812Z" fill="#E2BDA3"/>
<path d="M55.4855 82.9115C55.8669 80.3692 54.3337 77.5296 57.246 76.4118C59.0985 75.7007 61.2315 76.2875 62.8595 77.4746C64.487 78.6613 64.6649 80.5509 64.1563 82.3941C63.4331 85.015 61.4064 85.8388 58.9069 85.9935C56.9406 86.1151 55.1765 86.1161 55.4855 82.9115Z" fill="#E2BDA3"/>
<path d="M93.0466 98.2176C90.9563 95.2106 91.2266 92.1854 91.8251 89.2683C92.4046 86.4435 94.494 85.1123 97.3633 85.4068C100.036 85.6812 101.364 87.3002 101.707 90.0002C102.661 97.5136 99.4745 100.798 93.0466 98.2176Z" fill="#E2BDA3"/>
<path d="M109.71 118.298C112.88 116.317 116 115.859 117.668 119.164C119.411 122.62 119.653 126.68 116.806 129.833C114.386 132.513 109.185 130.862 108.636 127.276C108.199 124.417 107.717 121.362 109.71 118.298Z" fill="#E2BDA3"/>
</svg>
